<svg width="200" height="200" viewBox="0 0 200 200" fill="none" xmlns="http://www.w3.org/2000/svg">
<path d="M152.023 17.5126L159.573 21.6149L154.322 29.1162L154.571 98.0792C154.602 106.965 148.961 117.31 141.948 121.183L95.1264 147.072C94.907 148.979 94.6219 151.06 94.2586 153.328C93.8532 155.833 93.1555 158.287 92.1781 160.644L94.3677 159L92.2794 167.886L82.7732 183.644L74.9111 179.201C74.7384 179.133 74.5759 179.043 74.428 178.935C73.5904 178.36 73.342 177.278 73.8514 176.424C75.0318 174.264 75.9444 171.98 76.5708 169.619C77.4809 166.489 75.5667 161.854 73.9716 158.77L56.9216 168.197L50.1348 177.891L41.4935 173.596C38.3455 172.389 36.2573 168.834 36.2573 163.503L36.0001 91.9701C35.969 83.084 41.6104 72.7392 48.6232 68.8664L141.582 17.4681C144.208 16.0093 146.654 15.6761 148.688 16.2981C149.836 16.6066 150.952 17.013 152.023 17.5126Z" fill="url(#paint0_linear_2_16)"/>
<path opacity="0.8" d="M163.743 31.1975C163.743 22.3115 158.008 18.2388 151.011 22.1116L58.052 73.5172C51.0392 77.3901 45.3978 87.7349 45.429 96.6209L45.6861 168.146C45.6861 177.032 51.4211 181.105 58.4183 177.232L87.1318 161.356C87.9083 165.842 87.3524 170.445 85.5266 174.648C84.3656 177.114 83.189 179.276 82.1293 181.083C81.6798 181.873 81.8474 182.852 82.5375 183.466C83.2276 184.08 84.2666 184.175 85.0669 183.697C91.768 179.55 101.103 171.545 103.214 158.379C103.589 156.046 103.877 153.936 104.095 151.973L151.377 125.826C158.39 121.953 164.031 111.609 164 102.723L163.743 31.1975Z" fill="#52FCFF"/>
<path d="M130.45 80.4973C130.45 84.1102 133.504 85.2342 137.271 83.0082C141.039 80.7822 144.092 76.0489 144.092 72.4361C144.092 68.8232 141.039 67.6991 137.271 69.9259C133.504 72.1512 130.45 76.8852 130.45 80.4973Z" fill="url(#paint1_linear_2_16)"/>
<path d="M74.8984 113.322C74.8984 116.935 77.9524 118.059 81.7192 115.833C85.4867 113.607 88.5407 108.874 88.5407 105.261C88.5407 101.648 85.4867 100.524 81.7192 102.75C77.9524 104.976 74.8984 109.71 74.8984 113.322Z" fill="url(#paint2_linear_2_16)"/>
<path d="M125.248 113.232L97.655 129.537C95.9691 130.533 94.5895 130.026 94.5895 128.408C94.5895 126.792 95.9691 124.653 97.655 123.657L125.248 107.353C126.934 106.356 128.314 106.864 128.314 108.481C128.314 110.098 126.934 112.237 125.248 113.232Z" fill="url(#paint3_linear_2_16)"/>
<defs>
<linearGradient id="paint0_linear_2_16" x1="36.0001" y1="183.645" x2="159.573" y2="183.645" gradientUnits="userSpaceOnUse">
<stop stop-color="#17D1AA"/>
<stop offset="0.15" stop-color="#1ACBAF"/>
<stop offset="0.37" stop-color="#21B8BC"/>
<stop offset="0.62" stop-color="#2E9BD3"/>
<stop offset="0.89" stop-color="#3F71F1"/>
<stop offset="1" stop-color="#475FFF"/>
</linearGradient>
<linearGradient id="paint1_linear_2_16" x1="148.557" y1="137.616" x2="148.557" y2="68.459" gradientUnits="userSpaceOnUse">
<stop stop-color="#1D45BA"/>
<stop offset="0.4204" stop-color="#1D47BA"/>
<stop offset="0.5718" stop-color="#1D4EB9"/>
<stop offset="0.6797" stop-color="#1C59B8"/>
<stop offset="0.767" stop-color="#1B6AB6"/>
<stop offset="0.8417" stop-color="#1A80B3"/>
<stop offset="0.9079" stop-color="#199CB0"/>
<stop offset="0.9663" stop-color="#18BBAD"/>
<stop offset="1" stop-color="#17D1AA"/>
</linearGradient>
<linearGradient id="paint2_linear_2_16" x1="148.557" y1="137.616" x2="148.557" y2="68.459" gradientUnits="userSpaceOnUse">
<stop stop-color="#1D45BA"/>
<stop offset="0.4204" stop-color="#1D47BA"/>
<stop offset="0.5718" stop-color="#1D4EB9"/>
<stop offset="0.6797" stop-color="#1C59B8"/>
<stop offset="0.767" stop-color="#1B6AB6"/>
<stop offset="0.8417" stop-color="#1A80B3"/>
<stop offset="0.9079" stop-color="#199CB0"/>
<stop offset="0.9663" stop-color="#18BBAD"/>
<stop offset="1" stop-color="#17D1AA"/>
</linearGradient>
<linearGradient id="paint3_linear_2_16" x1="148.557" y1="137.616" x2="148.557" y2="68.459" gradientUnits="userSpaceOnUse">
<stop stop-color="#1D45BA"/>
<stop offset="0.4204" stop-color="#1D47BA"/>
<stop offset="0.5718" stop-color="#1D4EB9"/>
<stop offset="0.6797" stop-color="#1C59B8"/>
<stop offset="0.767" stop-color="#1B6AB6"/>
<stop offset="0.8417" stop-color="#1A80B3"/>
<stop offset="0.9079" stop-color="#199CB0"/>
<stop offset="0.9663" stop-color="#18BBAD"/>
<stop offset="1" stop-color="#17D1AA"/>
</linearGradient>
</defs>
</svg>
