<svg width="198" height="248" viewBox="0 0 198 248" fill="none" xmlns="http://www.w3.org/2000/svg">
<path d="M90.7739 1.83312C98.1001 -1.65505 112.572 0.715119 114.227 1.77722L189.402 42.7856C196.019 46.5644 198.022 51.7296 198 60.45L197.752 216.657C197.752 223.265 194.084 225.657 188.817 228.229L97.6612 168.975C91.0327 165.185 87.5328 158.588 87.5328 149.89L90.7739 1.83312Z" fill="url(#paint0_linear_1735_7369)"/>
<path d="M188.816 228.228V62.9653C188.817 57.0027 185.565 51.5081 180.32 48.6101L96.4905 2.16825C94.4513 1.03816 91.9622 1.06563 89.9489 2.24043C87.9356 3.41523 86.6992 5.56159 86.6997 7.88124V169.992L188.816 228.228Z" fill="url(#paint1_linear_1735_7369)"/>
<path d="M93.5811 67.5218C93.5811 64.1599 95.8597 62.9462 98.6705 64.8111L113.658 74.7549C116.469 76.6198 118.748 80.857 118.748 84.2189C118.748 87.5809 116.469 88.7945 113.658 86.9296L98.6705 76.9858C95.8597 75.1209 93.5811 70.8837 93.5811 67.5218Z" fill="#52FCFF"/>
<path d="M122.179 86.4958C122.179 83.1338 124.458 81.9202 127.269 83.7851L143.4 94.4879C146.211 96.3527 148.49 100.59 148.49 103.952C148.49 107.314 146.211 108.527 143.4 106.663L127.269 95.9598C124.458 94.0949 122.179 89.8577 122.179 86.4958Z" fill="#52FCFF"/>
<path d="M157.011 103.519C154.201 101.654 151.922 102.867 151.922 106.229C151.922 109.591 154.201 113.828 157.011 115.693L171.999 125.637C174.81 127.502 177.089 126.288 177.089 122.926C177.089 119.564 174.81 115.327 171.999 113.462L157.011 103.519Z" fill="#52FCFF"/>
<path d="M93.5811 86.4919C93.5811 83.13 95.8597 81.9163 98.6705 83.7812L113.658 93.725C116.469 95.5899 118.748 99.8271 118.748 103.189C118.748 106.551 116.469 107.765 113.658 105.9L98.6705 95.9559C95.8597 94.091 93.5811 89.8539 93.5811 86.4919Z" fill="#52FCFF"/>
<path d="M127.269 102.755C124.458 100.89 122.179 102.104 122.179 105.466C122.179 108.828 124.458 113.065 127.269 114.93L143.4 125.633C146.211 127.498 148.49 126.284 148.49 122.922C148.49 119.56 146.211 115.323 143.4 113.458L127.269 102.755Z" fill="#52FCFF"/>
<path d="M151.922 125.199C151.922 121.837 154.201 120.624 157.011 122.489L171.999 132.432C174.81 134.297 177.089 138.535 177.089 141.896C177.089 145.258 174.81 146.472 171.999 144.607L157.011 134.663C154.201 132.798 151.922 128.561 151.922 125.199Z" fill="#52FCFF"/>
<path d="M98.6705 102.751C95.8597 100.886 93.5811 102.1 93.5811 105.462C93.5811 108.824 95.8597 113.061 98.6705 114.926L113.658 124.87C116.469 126.735 118.748 125.521 118.748 122.159C118.748 118.797 116.469 114.56 113.658 112.695L98.6705 102.751Z" fill="#52FCFF"/>
<path d="M122.179 124.436C122.179 121.074 124.458 119.86 127.269 121.725L143.4 132.428C146.211 134.293 148.49 138.53 148.49 141.892C148.49 145.254 146.211 146.468 143.4 144.603L127.269 133.9C124.458 132.035 122.179 127.798 122.179 124.436Z" fill="#52FCFF"/>
<path d="M157.011 141.459C154.201 139.594 151.922 140.808 151.922 144.169C151.922 147.531 154.201 151.769 157.011 153.633L171.999 163.577C174.81 165.442 177.089 164.229 177.089 160.867C177.089 157.505 174.81 153.267 171.999 151.403L157.011 141.459Z" fill="#52FCFF"/>
<path d="M93.5811 124.432C93.5811 121.07 95.8597 119.857 98.6705 121.721L113.658 131.665C116.469 133.53 118.748 137.767 118.748 141.129C118.748 144.491 116.469 145.705 113.658 143.84L98.6705 133.896C95.8597 132.031 93.5811 127.794 93.5811 124.432Z" fill="#52FCFF"/>
<path d="M127.269 140.695C124.458 138.831 122.179 140.044 122.179 143.406C122.179 146.768 124.458 151.005 127.269 152.87L143.4 163.573C146.211 165.438 148.49 164.224 148.49 160.862C148.49 157.5 146.211 153.263 143.4 151.398L127.269 140.695Z" fill="#52FCFF"/>
<path d="M151.922 163.14C151.922 159.778 154.201 158.564 157.011 160.429L171.999 170.373C174.81 172.238 177.089 176.475 177.089 179.837C177.089 183.199 174.81 184.412 171.999 182.547L157.011 172.604C154.201 170.739 151.922 166.502 151.922 163.14Z" fill="#52FCFF"/>
<path d="M98.6705 140.692C95.8597 138.827 93.5811 140.04 93.5811 143.402C93.5811 146.764 95.8597 151.001 98.6705 152.866L113.658 162.81C116.469 164.675 118.748 163.461 118.748 160.099C118.748 156.737 116.469 152.5 113.658 150.635L98.6705 140.692Z" fill="#52FCFF"/>
<path d="M122.179 162.376C122.179 159.014 124.458 157.801 127.269 159.666L143.4 170.368C146.211 172.233 148.49 176.47 148.49 179.832C148.49 183.194 146.211 184.408 143.4 182.543L127.269 171.84C124.458 169.975 122.179 165.738 122.179 162.376Z" fill="#52FCFF"/>
<path d="M157.011 179.399C154.201 177.534 151.922 178.748 151.922 182.11C151.922 185.472 154.201 189.709 157.011 191.574L171.999 201.517C174.81 203.382 177.089 202.169 177.089 198.807C177.089 195.445 174.81 191.208 171.999 189.343L157.011 179.399Z" fill="#52FCFF"/>
<path d="M125.128 67.4097C124.867 67.237 124.633 66.9738 124.425 66.6201C124.243 66.2837 124.151 65.9461 124.151 65.6073V43.6207L118.802 44.9217C118.568 44.9818 118.321 44.8948 118.06 44.6605C117.826 44.4434 117.618 44.1359 117.436 43.7379L115.132 38.6528C114.976 38.2721 114.911 37.9364 114.937 37.6457C114.989 37.3415 115.145 37.1834 115.405 37.1713L124.386 34.9076C124.542 34.888 124.685 34.906 124.815 34.9616C124.971 35.0036 125.141 35.0851 125.323 35.206L130.203 38.4441C130.464 38.6168 130.685 38.8714 130.867 39.2078C131.075 39.5615 131.18 39.9078 131.18 40.2465V70.2703C131.18 70.609 131.075 70.8171 130.867 70.8945C130.685 70.9891 130.464 70.9501 130.203 70.7774L125.128 67.4097Z" fill="white"/>
<path d="M146.215 81.9084C143.768 80.285 141.725 78.4828 140.085 76.5018C138.445 74.49 137.195 72.4754 136.336 70.4582C135.503 68.4275 135.061 66.548 135.009 64.8198C135.009 64.5427 135.087 64.3636 135.243 64.2824C135.399 64.2013 135.594 64.2384 135.829 64.3938L141.061 67.8651C141.399 68.0896 141.659 68.3547 141.842 68.6604C142.05 68.9525 142.206 69.2563 142.31 69.5717C142.544 70.4354 142.844 71.2191 143.208 71.9228C143.599 72.6437 144.041 73.276 144.536 73.8197C145.056 74.3807 145.629 74.8684 146.254 75.2829C146.983 75.7664 147.659 76.0307 148.284 76.0757C148.909 76.1206 149.403 75.9099 149.768 75.4434C150.158 74.9634 150.354 74.2153 150.354 73.1991C150.354 72.2753 150.171 71.3538 149.807 70.4345C149.469 69.5326 148.987 68.6742 148.362 67.8594C147.738 67.0446 147.035 66.3781 146.254 65.86C145.629 65.4456 145.121 65.2012 144.731 65.1269C144.341 65.0218 144.015 65.0061 143.755 65.0797C143.495 65.1534 143.26 65.2135 143.052 65.2601C142.844 65.2759 142.61 65.1975 142.349 65.0248L137.234 61.6312C137 61.4758 136.792 61.2452 136.61 60.9396C136.453 60.6204 136.375 60.3222 136.375 60.0451L137.781 44.8572C137.833 44.4299 137.976 44.1861 138.21 44.126C138.445 44.0351 138.731 44.1019 139.069 44.3264L154.727 54.7143C155.013 54.9043 155.247 55.1675 155.429 55.5039C155.612 55.8404 155.703 56.178 155.703 56.5167V60.8586C155.703 61.1973 155.612 61.414 155.429 61.5087C155.247 61.6034 155.013 61.5557 154.727 61.3657L143.403 53.8533L142.896 59.5212C143.469 59.4393 144.132 59.5102 144.887 59.7338C145.668 59.944 146.722 60.4895 148.05 61.3702C149.299 62.1992 150.484 63.2313 151.603 64.4667C152.748 65.7192 153.763 67.101 154.649 68.612C155.56 70.1403 156.262 71.7151 156.757 73.3366C157.278 74.9445 157.538 76.5491 157.538 78.1504C157.538 80.3367 157.082 81.9745 156.171 83.0637C155.286 84.1702 153.998 84.6548 152.306 84.5177C150.614 84.3497 148.583 83.48 146.215 81.9084Z" fill="white"/>
<path opacity="0.8" d="M100.462 133.891L50.2547 162.685H50.2309L0 133.891L50.2309 105.122L100.462 133.891Z" fill="#52FCFF"/>
<path d="M100.461 133.892V191.478L50.2305 220.295V162.685H50.2543L100.461 133.892Z" fill="url(#paint2_linear_1735_7369)"/>
<path d="M50.2309 162.685V220.295L0 191.478V133.892L50.2309 162.685Z" fill="url(#paint3_linear_1735_7369)"/>
<path d="M28.8305 174.509C28.2409 174.596 27.6514 174.662 27.0618 174.727C26.4723 174.792 25.8827 174.857 25.2932 174.944C25.1247 174.944 25.0405 174.944 24.872 174.683C23.4403 172.769 22.0085 170.942 20.4925 169.028L15.9445 163.024C15.6724 162.68 15.4111 162.337 15.1529 161.997C14.6919 161.391 14.2406 160.797 13.7547 160.239L8.53296 157.194C8.78563 157.542 9.03829 157.89 9.29096 158.151C9.70314 158.683 10.1153 159.224 10.5299 159.767C11.4707 161.001 12.424 162.251 13.4178 163.459C14.0916 164.329 14.7654 165.221 15.4392 166.113C16.1129 167.005 16.7867 167.896 17.4605 168.767L21.2505 173.726C21.8401 174.509 22.4507 175.292 23.0613 176.075C23.6718 176.858 24.2825 177.642 24.872 178.425C25.0405 178.599 25.1247 178.686 25.2089 178.599C26.2196 178.512 27.146 178.425 28.1567 178.251C29.3779 178.12 30.5781 177.968 31.7783 177.816C32.9784 177.663 34.1786 177.511 35.3998 177.381C36.3409 177.288 37.282 177.171 38.2104 177.055C39.0267 176.953 39.8335 176.853 40.6216 176.772C40.9585 176.772 41.3796 176.685 41.7165 176.597L36.4947 173.465C34.7399 173.767 32.985 173.985 31.2019 174.207C30.4181 174.305 29.6276 174.403 28.8305 174.509Z" fill="white"/>
<path d="M34.2207 195.479L31.6098 195.827C28.3672 191.607 25.1456 187.408 21.9241 183.21C18.7026 179.012 15.4812 174.814 12.2387 170.594V166.852L12.2403 166.854C19.5671 176.425 26.8939 185.995 34.2207 195.479Z" fill="white"/>
<path d="M12.2387 176.075C15.589 180.374 18.9045 184.708 22.2299 189.055C24.0872 191.483 25.9487 193.917 27.8198 196.349L25.2089 196.697C22.7644 193.54 20.3462 190.383 17.9395 187.242C16.0347 184.755 14.1363 182.277 12.2387 179.817V176.075Z" fill="white"/>
<path d="M38.0949 182.079C36.4947 182.297 34.8945 182.492 33.2942 182.688C31.694 182.884 30.0938 183.08 28.4936 183.297C28.5778 183.384 28.5778 183.471 28.5778 183.471C28.9989 183.993 29.399 184.537 29.799 185.081C30.1991 185.625 30.5991 186.169 31.0202 186.691L31.1045 186.778C32.2836 186.647 33.4416 186.495 34.5997 186.343C35.7577 186.19 36.9158 186.038 38.0949 185.908V182.079Z" fill="white"/>
<path d="M36.4948 191.607C37.0211 191.542 37.5475 191.476 38.0949 191.389V195.044L37.4212 195.131C37 194.565 36.5789 194.021 36.1578 193.478C35.7367 192.934 35.3156 192.39 34.8945 191.824C35.442 191.737 35.9684 191.672 36.4948 191.607Z" fill="white"/>
<path d="M108.7 207.972L108.715 213.543L125.453 223.207L125.437 217.636L108.7 207.972Z" fill="#ED8600"/>
<path d="M131.925 217.644L131.94 223.207L143.495 216.581L143.48 211.01L131.925 217.644Z" fill="#ED8600"/>
<path d="M125.437 217.636L125.453 223.207H131.94L131.925 217.644L125.437 217.636Z" fill="#ED8600"/>
<path d="M120.278 197.615H126.758L143.495 207.278V211.01L131.94 217.636H125.453L108.715 207.972C108.715 206.517 108.715 205.711 108.715 204.241L120.278 197.615Z" fill="#ECBA09"/>
<path d="M115.294 212.917L68.8904 239.708C69.1336 239.597 69.402 239.552 69.6685 239.577C69.935 239.602 70.1901 239.697 70.4078 239.851L116.811 213.061C116.596 212.901 116.34 212.803 116.073 212.777C115.805 212.752 115.535 212.8 115.294 212.917Z" fill="#ECBA09"/>
<path d="M71.8492 244.766L118.252 217.975C118.464 217.826 118.632 217.624 118.74 217.39C118.848 217.156 118.892 216.897 118.867 216.641C118.826 215.923 118.616 215.225 118.254 214.603C117.891 213.981 117.386 213.453 116.78 213.06L70.3773 239.851C70.9863 240.242 71.4926 240.771 71.8542 241.395C72.2158 242.019 72.4222 242.72 72.4562 243.439C72.4829 243.694 72.4408 243.951 72.3341 244.185C72.2274 244.418 72.06 244.619 71.8492 244.766Z" fill="#ECBA09"/>
<path d="M70.3777 239.851C69.2244 239.188 68.2836 239.723 68.276 241.043C68.3169 241.76 68.527 242.458 68.8894 243.08C69.2519 243.702 69.7565 244.231 70.3625 244.623C71.5157 245.287 72.4565 244.751 72.4565 243.44C72.4226 242.72 72.2162 242.019 71.8546 241.395C71.493 240.771 70.9867 240.242 70.3777 239.851Z" fill="#ED8600"/>
<path d="M79.3606 239.738L79.353 242.881L78.0784 242.157L78.0859 239.007L79.3606 239.738Z" fill="#ED8600"/>
<path d="M92.1831 241.042L92.1755 244.185L91.0981 243.567L91.1057 240.424L92.1831 241.042Z" fill="#ED8600"/>
<path d="M93.1465 240.484L93.1389 243.627L92.1753 244.185L92.1829 241.042L93.1465 240.484Z" fill="#ED8600"/>
<path d="M91.1057 240.424L91.0981 243.567L89.7324 244.358L89.74 241.215L91.1057 240.424Z" fill="#ED8600"/>
<path d="M87.054 242.769L87.0388 245.911L85.6807 246.695L85.6883 243.553L87.054 242.769Z" fill="#ED8600"/>
<path d="M79.8689 243.567L79.8613 246.711L76.2802 244.66L76.2877 241.51L79.8689 243.567Z" fill="#ED8600"/>
<path d="M81.5986 242.573L81.591 245.716L79.8612 246.711L79.8688 243.568L81.5986 242.573Z" fill="#ED8600"/>
<path d="M91.6597 242.309L91.6445 245.46L88.9586 247.012L88.9662 243.861L91.6597 242.309Z" fill="#ED8600"/>
<path d="M88.9658 243.862L88.9582 247.013L87.0387 245.912L87.0538 242.769L88.9658 243.862Z" fill="#ED8600"/>
<path d="M85.5747 244.857L85.5671 248L81.5914 245.716L81.599 242.573L85.5747 244.857Z" fill="#ED8600"/>
<path d="M93.1465 240.484L92.1829 241.042L91.1055 240.424L89.7398 241.216L91.6594 242.309L88.966 243.861L87.054 242.768L85.6883 243.552L86.7657 244.17L85.5745 244.856L81.5988 242.572L79.8689 243.567L76.2878 241.509L79.3606 239.738L78.0859 239.007L83.1921 236.067L84.4592 236.798L85.5896 236.142L93.1465 240.484Z" fill="#ECBA09"/>
<path d="M86.7661 244.17L86.7585 247.313L85.5673 247.999L85.5749 244.856L86.7661 244.17Z" fill="#ED8600"/>
<path d="M95.3921 235.471L95.3845 238.237L93.1766 239.518L93.1842 236.753L95.3921 235.471Z" fill="#ED8600"/>
<path d="M93.1846 236.753L93.177 239.52L87.5701 236.301L87.5776 233.534L93.1846 236.753Z" fill="#ED8600"/>
<path d="M95.3921 235.472L93.1842 236.753L87.5773 233.534L89.7928 232.26L95.3921 235.472Z" fill="#ECBA09"/>
<path fill-rule="evenodd" clip-rule="evenodd" d="M58.6841 137.331C51.5292 133.917 45.7312 124.437 45.7312 116.082C45.7312 112.949 46.5536 110.459 47.9106 108.732L46.8003 109.053L49.432 107.286C49.4732 107.246 49.5246 107.216 49.576 107.185C49.6274 107.155 49.6788 107.125 49.7199 107.085L49.8021 107.005C52.146 105.559 55.2711 105.438 58.6841 107.085C65.8391 110.499 71.6371 119.979 71.6371 128.333C71.6371 132.31 70.3212 135.282 68.1829 136.969L68.1418 137.01C68.0185 137.09 67.9054 137.17 67.7923 137.251C67.6792 137.331 67.5661 137.411 67.4428 137.492L64.8933 139.259L65.0167 138.415C63.1251 138.737 60.9869 138.415 58.6841 137.331ZM58.6841 113.954C54.7777 112.106 51.6114 114.275 51.6114 118.854C51.6114 123.393 54.7777 128.615 58.6841 130.502C62.5906 132.35 65.7568 130.181 65.7568 125.602C65.7568 121.023 62.5906 115.801 58.6841 113.954Z" fill="url(#paint4_linear_1735_7369)"/>
<path fill-rule="evenodd" clip-rule="evenodd" d="M42.8118 118.211C42.8118 109.897 48.6097 105.88 55.7647 109.254C62.8785 112.628 68.6765 122.148 68.7176 130.502C68.7176 138.817 62.9196 142.834 55.7647 139.46C48.6097 136.045 42.8118 126.566 42.8118 118.211ZM48.692 120.943C48.692 125.522 51.8583 130.743 55.7647 132.591C59.6711 134.479 62.8374 132.27 62.8374 127.691C62.8374 123.112 59.6711 117.89 55.7647 116.042C51.8583 114.195 48.692 116.364 48.692 120.943Z" fill="url(#paint5_linear_1735_7369)"/>
<ellipse cx="9.6968" cy="15.3436" rx="9.6968" ry="15.3436" transform="matrix(0.888878 -0.458143 0.476536 0.879155 39.8276 115.145)" fill="url(#paint6_linear_1735_7369)"/>
<path fill-rule="evenodd" clip-rule="evenodd" d="M57.9861 126.868L51.6836 123.115C50.992 124.781 50.1133 126.848 49.3911 128.494C49.3088 128.615 49.1855 128.615 49.021 128.534C48.7743 128.414 48.7332 128.333 48.7332 128.092V128.012L50.9864 122.7L48.9799 121.505C48.8565 121.425 48.7743 121.264 48.7743 121.103V120.742C48.7743 120.581 48.8565 120.541 48.9799 120.581L51.2993 121.962L52.0664 120.154L50.0901 118.974C49.9668 118.894 49.8845 118.733 49.8845 118.573V118.171C49.8845 118.01 49.9668 117.97 50.0901 118.01L52.3927 119.384L54.2022 115.118C54.3667 114.797 54.7779 114.556 55.1479 114.797C55.5591 115.038 55.7647 115.52 55.8881 116.002L57.7697 122.593L59.9179 123.875C60.0413 123.955 60.1235 124.116 60.1235 124.277V124.638C60.1235 124.839 60.0413 124.919 59.9179 124.839L58.1014 123.755L58.878 126.475L60.987 127.731C61.1104 127.811 61.1926 127.972 61.1926 128.133V128.494C61.2338 128.655 61.1104 128.735 60.987 128.655L59.1957 127.588L61.1515 134.439C61.2749 134.76 61.4394 135.282 61.1104 135.363C60.6581 135.483 60.4525 135.162 60.3702 134.881L57.9861 126.868ZM56.9719 123.081L57.7231 125.787L52.0676 122.42L52.8111 120.598L56.9719 123.081ZM56.6513 121.926L53.1275 119.823L54.5723 116.283C54.7779 115.721 54.9835 115.962 55.2302 116.805L56.6513 121.926Z" fill="white"/>
<path fill-rule="evenodd" clip-rule="evenodd" d="M25.1729 113.633C16.4847 109.472 9.44434 97.9193 9.44434 87.737C9.44434 83.9186 10.443 80.8835 12.0907 78.7785L10.7426 79.1701L13.9382 77.0162C13.9881 76.9672 14.0506 76.9305 14.113 76.8938C14.1754 76.8571 14.2378 76.8203 14.2877 76.7714L14.3876 76.6735C17.2337 74.9111 21.0285 74.7643 25.1729 76.7714C33.861 80.9324 40.9015 92.4855 40.9015 102.668C40.9015 107.514 39.3036 111.137 36.7072 113.193L36.6572 113.242C36.5074 113.34 36.3701 113.438 36.2328 113.536C36.0955 113.633 35.9582 113.731 35.8084 113.829L32.7126 115.983L32.8624 114.955C30.5655 115.347 27.9691 114.955 25.1729 113.633ZM25.1729 85.1425C20.4294 82.8906 16.5846 85.5341 16.5846 91.1148C16.5846 96.6466 20.4294 103.011 25.1729 105.311C29.9164 107.563 33.7612 104.92 33.7612 99.339C33.7612 93.7583 29.9164 87.3943 25.1729 85.1425Z" fill="url(#paint7_linear_1735_7369)"/>
<path fill-rule="evenodd" clip-rule="evenodd" d="M5.89917 90.3315C5.89917 80.1981 12.9396 75.3027 21.6277 79.4148C30.266 83.5269 37.3064 95.1289 37.3563 105.311C37.3563 115.445 30.3159 120.34 21.6277 116.228C12.9396 112.067 5.89917 100.514 5.89917 90.3315ZM13.0394 93.6603C13.0394 99.241 16.8842 105.605 21.6277 107.857C26.3713 110.158 30.216 107.465 30.216 101.885C30.216 96.3038 26.3713 89.9399 21.6277 87.688C16.8842 85.4361 13.0394 88.0796 13.0394 93.6603Z" fill="url(#paint8_linear_1735_7369)"/>
<ellipse cx="11.7838" cy="18.6844" rx="11.7838" ry="18.6844" transform="matrix(0.888192 -0.459473 0.475185 0.879886 2.27563 86.5945)" fill="url(#paint9_linear_1735_7369)"/>
<path fill-rule="evenodd" clip-rule="evenodd" d="M24.3251 100.882L16.6721 96.308C15.8323 98.339 14.7652 100.858 13.8883 102.864C13.7884 103.011 13.6386 103.011 13.4389 102.913C13.1393 102.766 13.0894 102.668 13.0894 102.374V102.276L15.8255 95.802L13.3889 94.3458C13.2392 94.2479 13.1393 94.0521 13.1393 93.8563V93.4157C13.1393 93.2199 13.2392 93.1709 13.3889 93.2199L16.2054 94.9031L17.1368 92.699L14.7371 91.2618C14.5873 91.1639 14.4875 90.968 14.4875 90.7722V90.2827C14.4875 90.0869 14.5873 90.0379 14.7371 90.0869L17.5331 91.7614L19.7303 86.5622C19.93 86.1706 20.4293 85.8769 20.8787 86.1706C21.3781 86.4643 21.6277 87.0518 21.7775 87.6392L24.0623 95.6718L26.6708 97.2341C26.8206 97.332 26.9205 97.5278 26.9205 97.7236V98.1642C26.9205 98.409 26.8206 98.5069 26.6708 98.409L24.4651 97.088L25.4081 100.403L27.9691 101.934C28.1189 102.032 28.2187 102.227 28.2187 102.423V102.864C28.2687 103.06 28.1189 103.157 27.9691 103.06L25.7939 101.76L28.1688 110.109C28.3186 110.501 28.5183 111.137 28.1189 111.235C27.5696 111.382 27.32 110.99 27.2201 110.647L24.3251 100.882ZM23.0936 96.2665L24.0057 99.5649L17.1383 95.4607L18.0412 93.2406L23.0936 96.2665ZM22.7042 94.8584L18.4254 92.2958L20.1797 87.9819C20.4293 87.2965 20.679 87.5902 20.9786 88.6183L22.7042 94.8584Z" fill="white"/>
<path fill-rule="evenodd" clip-rule="evenodd" d="M57.1975 98.8457C46.7206 93.8311 38.2307 79.9082 38.2307 67.6372C38.2307 63.0356 39.435 59.3778 41.422 56.841L39.7962 57.313L43.6498 54.7172C43.71 54.6582 43.7853 54.614 43.8605 54.5697C43.9358 54.5255 44.0111 54.4812 44.0713 54.4222L44.1917 54.3042C47.6238 52.1804 52.1999 52.0034 57.1975 54.4222C67.6744 59.4368 76.1643 73.3597 76.1643 85.6308C76.1643 91.4713 74.2375 95.837 71.1065 98.3148L71.0463 98.3738C70.8656 98.4918 70.7 98.6098 70.5345 98.7278C70.3689 98.8457 70.2033 98.9637 70.0227 99.0817L66.2895 101.678L66.4702 100.439C63.7004 100.911 60.5694 100.439 57.1975 98.8457ZM57.1975 64.5104C51.4774 61.7966 46.841 64.9824 46.841 71.7079C46.841 78.3744 51.4774 86.0438 57.1975 88.8165C62.9176 91.5303 67.554 88.3446 67.554 81.6191C67.554 74.8936 62.9176 67.2242 57.1975 64.5104Z" fill="url(#paint10_linear_1735_7369)"/>
<path fill-rule="evenodd" clip-rule="evenodd" d="M33.9558 70.7641C33.9558 58.552 42.4457 52.6525 52.9226 57.6081C63.3393 62.5637 71.8292 76.5456 71.8894 88.8167C71.8894 101.029 63.3995 106.928 52.9226 101.973C42.4457 96.958 33.9558 83.0351 33.9558 70.7641ZM42.5661 74.7758C42.5661 81.5012 47.2025 89.1706 52.9226 91.8844C58.6427 94.6572 63.2791 91.4125 63.2791 84.687C63.2791 77.9615 58.6427 70.2921 52.9226 67.5783C47.2025 64.8645 42.5661 68.0503 42.5661 74.7758Z" fill="url(#paint11_linear_1735_7369)"/>
<ellipse cx="14.208" cy="22.5203" rx="14.208" ry="22.5203" transform="matrix(0.888309 -0.459246 0.475415 0.879762 29.5862 66.2603)" fill="url(#paint12_linear_1735_7369)"/>
<path fill-rule="evenodd" clip-rule="evenodd" d="M56.1752 83.4781L46.9465 77.9661C45.9338 80.4137 44.6471 83.4491 43.5896 85.8667C43.4692 86.0437 43.2886 86.0437 43.0477 85.9257C42.6864 85.7487 42.6262 85.6307 42.6262 85.2767V85.1587L45.9257 77.3564L42.9875 75.6015C42.8069 75.4835 42.6864 75.2475 42.6864 75.0115V74.4806C42.6864 74.2446 42.8069 74.1856 42.9875 74.2446L46.3837 76.2731L47.507 73.6168L44.6132 71.8848C44.4326 71.7668 44.3122 71.5308 44.3122 71.2948V70.7049C44.3122 70.4689 44.4326 70.4099 44.6132 70.4689L47.9848 72.4869L50.6344 66.2212C50.8753 65.7493 51.4774 65.3953 52.0193 65.7493C52.6214 66.1032 52.9225 66.8112 53.1031 67.5191L55.8583 77.1995L59.0039 79.0822C59.1845 79.2002 59.305 79.4362 59.305 79.6722V80.2031C59.305 80.4981 59.1845 80.6161 59.0039 80.4981L56.3441 78.9061L57.4811 82.9012L60.5694 84.7458C60.75 84.8638 60.8705 85.0997 60.8705 85.3357V85.8667C60.9307 86.1027 60.75 86.2207 60.5694 86.1027L57.9464 84.536L60.8103 94.598C60.9909 95.07 61.2317 95.8369 60.75 95.9549C60.0877 96.1319 59.7866 95.6599 59.6662 95.247L56.1752 83.4781ZM54.6901 77.9162L55.79 81.8912L47.5088 76.9451L48.5975 74.2695L54.6901 77.9162ZM54.2206 76.2192L49.0608 73.131L51.1763 67.9321C51.4774 67.1062 51.7785 67.4601 52.1397 68.699L54.2206 76.2192Z" fill="white"/>
<defs>
<linearGradient id="paint0_linear_1735_7369" x1="130.655" y1="1.80799e-05" x2="257.464" y2="86.2291" gradientUnits="userSpaceOnUse">
<stop stop-color="#17D1AA"/>
<stop offset="0.15" stop-color="#1ACBAF"/>
<stop offset="0.37" stop-color="#21B8BC"/>
<stop offset="0.62" stop-color="#2E9BD3"/>
<stop offset="0.89" stop-color="#3F71F1"/>
<stop offset="1" stop-color="#475FFF"/>
</linearGradient>
<linearGradient id="paint1_linear_1735_7369" x1="188.816" y1="228.23" x2="86.6997" y2="228.23" gradientUnits="userSpaceOnUse">
<stop stop-color="#17D1AA"/>
<stop offset="0.15" stop-color="#1ACBAF"/>
<stop offset="0.37" stop-color="#21B8BC"/>
<stop offset="0.62" stop-color="#2E9BD3"/>
<stop offset="0.89" stop-color="#3F71F1"/>
<stop offset="1" stop-color="#475FFF"/>
</linearGradient>
<linearGradient id="paint2_linear_1735_7369" x1="50.2305" y1="220.296" x2="100.461" y2="220.296" gradientUnits="userSpaceOnUse">
<stop stop-color="#17D1AA"/>
<stop offset="0.15" stop-color="#1ACBAF"/>
<stop offset="0.37" stop-color="#21B8BC"/>
<stop offset="0.62" stop-color="#2E9BD3"/>
<stop offset="0.89" stop-color="#3F71F1"/>
<stop offset="1" stop-color="#475FFF"/>
</linearGradient>
<linearGradient id="paint3_linear_1735_7369" x1="30.6226" y1="133.892" x2="-19.9599" y2="175.204" gradientUnits="userSpaceOnUse">
<stop stop-color="#17D1AA"/>
<stop offset="0.15" stop-color="#1ACBAF"/>
<stop offset="0.37" stop-color="#21B8BC"/>
<stop offset="0.62" stop-color="#2E9BD3"/>
<stop offset="0.89" stop-color="#3F71F1"/>
<stop offset="1" stop-color="#475FFF"/>
</linearGradient>
<linearGradient id="paint4_linear_1735_7369" x1="45.7312" y1="139.259" x2="71.6371" y2="139.259" gradientUnits="userSpaceOnUse">
<stop stop-color="#17D1AA"/>
<stop offset="0.15" stop-color="#1ACBAF"/>
<stop offset="0.37" stop-color="#21B8BC"/>
<stop offset="0.62" stop-color="#2E9BD3"/>
<stop offset="0.89" stop-color="#3F71F1"/>
<stop offset="1" stop-color="#475FFF"/>
</linearGradient>
<linearGradient id="paint5_linear_1735_7369" x1="69.879" y1="160.392" x2="113.196" y2="100.987" gradientUnits="userSpaceOnUse">
<stop stop-color="#244ABF"/>
<stop offset="1" stop-color="#4760FF"/>
</linearGradient>
<linearGradient id="paint6_linear_1735_7369" x1="11.8231" y1="2.43098e-06" x2="-6.38231" y2="16.1638" gradientUnits="userSpaceOnUse">
<stop stop-color="#17D1AA"/>
<stop offset="0.15" stop-color="#1ACBAF"/>
<stop offset="0.37" stop-color="#21B8BC"/>
<stop offset="0.62" stop-color="#2E9BD3"/>
<stop offset="0.89" stop-color="#3F71F1"/>
<stop offset="1" stop-color="#475FFF"/>
</linearGradient>
<linearGradient id="paint7_linear_1735_7369" x1="9.44437" y1="115.983" x2="40.9015" y2="115.983" gradientUnits="userSpaceOnUse">
<stop stop-color="#17D1AA"/>
<stop offset="0.15" stop-color="#1ACBAF"/>
<stop offset="0.37" stop-color="#21B8BC"/>
<stop offset="0.62" stop-color="#2E9BD3"/>
<stop offset="0.89" stop-color="#3F71F1"/>
<stop offset="1" stop-color="#475FFF"/>
</linearGradient>
<linearGradient id="paint8_linear_1735_7369" x1="38.7665" y1="141.739" x2="91.6175" y2="69.5245" gradientUnits="userSpaceOnUse">
<stop stop-color="#244ABF"/>
<stop offset="1" stop-color="#4760FF"/>
</linearGradient>
<linearGradient id="paint9_linear_1735_7369" x1="14.3677" y1="2.96029e-06" x2="-7.79623" y2="19.6378" gradientUnits="userSpaceOnUse">
<stop stop-color="#17D1AA"/>
<stop offset="0.15" stop-color="#1ACBAF"/>
<stop offset="0.37" stop-color="#21B8BC"/>
<stop offset="0.62" stop-color="#2E9BD3"/>
<stop offset="0.89" stop-color="#3F71F1"/>
<stop offset="1" stop-color="#475FFF"/>
</linearGradient>
<linearGradient id="paint10_linear_1735_7369" x1="38.2308" y1="101.678" x2="76.1643" y2="101.678" gradientUnits="userSpaceOnUse">
<stop stop-color="#17D1AA"/>
<stop offset="0.15" stop-color="#1ACBAF"/>
<stop offset="0.37" stop-color="#21B8BC"/>
<stop offset="0.62" stop-color="#2E9BD3"/>
<stop offset="0.89" stop-color="#3F71F1"/>
<stop offset="1" stop-color="#475FFF"/>
</linearGradient>
<linearGradient id="paint11_linear_1735_7369" x1="73.5899" y1="132.716" x2="137.27" y2="45.651" gradientUnits="userSpaceOnUse">
<stop stop-color="#244ABF"/>
<stop offset="1" stop-color="#4760FF"/>
</linearGradient>
<linearGradient id="paint12_linear_1735_7369" x1="17.3234" y1="3.56804e-06" x2="-9.39182" y2="23.6787" gradientUnits="userSpaceOnUse">
<stop stop-color="#17D1AA"/>
<stop offset="0.15" stop-color="#1ACBAF"/>
<stop offset="0.37" stop-color="#21B8BC"/>
<stop offset="0.62" stop-color="#2E9BD3"/>
<stop offset="0.89" stop-color="#3F71F1"/>
<stop offset="1" stop-color="#475FFF"/>
</linearGradient>
</defs>
</svg>
