<svg width="192" height="240" viewBox="0 0 192 240" fill="none" xmlns="http://www.w3.org/2000/svg">
<path d="M88.0229 1.77399C95.1271 -1.60166 109.161 0.692051 110.765 1.71989L183.662 41.4054C190.079 45.0624 192.021 50.0609 192 58.5001L191.759 209.669C191.759 216.063 188.202 218.378 183.095 220.867L94.7015 163.524C88.2738 159.856 84.88 153.473 84.88 145.055L88.0229 1.77399Z" fill="url(#paint0_linear_1735_7646)"/>
<path d="M183.094 220.867V60.9344C183.095 55.1642 179.942 49.8469 174.855 47.0423L93.5663 2.09855C91.5889 1.00491 89.1753 1.03149 87.2229 2.1684C85.2706 3.30531 84.0717 5.38243 84.0722 7.62726V164.508L183.094 220.867Z" fill="url(#paint1_linear_1735_7646)"/>
<path d="M93.515 61.281C91.9853 60.2713 90.7452 60.9316 90.7452 62.7558C90.7452 64.58 91.9853 66.8772 93.515 67.8869L112.403 80.3535C113.933 81.3631 115.173 80.7028 115.173 78.8787C115.173 77.0545 113.933 74.7573 112.403 73.7476L93.515 61.281Z" fill="#52FCFF"/>
<path d="M121.274 79.6022C119.744 78.5926 118.504 79.2529 118.504 81.0771C118.504 82.9012 119.744 85.1985 121.274 86.2081L141.273 99.4076C142.802 100.417 144.042 99.757 144.042 97.9328C144.042 96.1086 142.802 93.8114 141.273 92.8017L121.274 79.6022Z" fill="#52FCFF"/>
<path d="M147.373 100.132C147.373 98.3075 148.614 97.6472 150.143 98.6569L169.032 111.124C170.561 112.133 171.801 114.43 171.801 116.255C171.801 118.079 170.561 118.739 169.032 117.729L150.143 105.263C148.614 104.253 147.373 101.956 147.373 100.132Z" fill="#52FCFF"/>
<path d="M93.515 73.1717C91.9853 72.162 90.7452 72.8223 90.7452 74.6465C90.7452 76.4707 91.9853 78.7679 93.515 79.7775L112.403 92.2442C113.933 93.2538 115.173 92.5935 115.173 90.7694C115.173 88.9452 113.933 86.6479 112.403 85.6383L93.515 73.1717Z" fill="#52FCFF"/>
<path d="M118.504 92.9678C118.504 91.1436 119.744 90.4833 121.274 91.4929L141.273 104.692C142.802 105.702 144.042 107.999 144.042 109.823C144.042 111.648 142.802 112.308 141.273 111.298L121.274 98.0988C119.744 97.0892 118.504 94.7919 118.504 92.9678Z" fill="#52FCFF"/>
<path d="M150.143 110.548C148.614 109.538 147.373 110.198 147.373 112.022C147.373 113.847 148.614 116.144 150.143 117.153L169.032 129.62C170.561 130.63 171.801 129.969 171.801 128.145C171.801 126.321 170.561 124.024 169.032 123.014L150.143 110.548Z" fill="#52FCFF"/>
<path d="M90.7452 86.5372C90.7452 84.713 91.9853 84.0527 93.515 85.0623L112.403 97.529C113.933 98.5386 115.173 100.836 115.173 102.66C115.173 104.484 113.933 105.145 112.403 104.135L93.515 91.6682C91.9853 90.6586 90.7452 88.3614 90.7452 86.5372Z" fill="#52FCFF"/>
<path d="M121.274 103.384C119.744 102.374 118.504 103.034 118.504 104.858C118.504 106.683 119.744 108.98 121.274 109.99L141.273 123.189C142.802 124.199 144.042 123.538 144.042 121.714C144.042 119.89 142.802 117.593 141.273 116.583L121.274 103.384Z" fill="#52FCFF"/>
<path d="M147.373 123.913C147.373 122.089 148.614 121.429 150.143 122.438L169.032 134.905C170.561 135.915 171.801 138.212 171.801 140.036C171.801 141.86 170.561 142.52 169.032 141.511L150.143 129.044C148.614 128.035 147.373 125.737 147.373 123.913Z" fill="#52FCFF"/>
<path d="M93.515 96.9528C91.9853 95.9431 90.7452 96.6034 90.7452 98.4276C90.7452 100.252 91.9853 102.549 93.515 103.559L112.403 116.025C113.933 117.035 115.173 116.375 115.173 114.55C115.173 112.726 113.933 110.429 112.403 109.419L93.515 96.9528Z" fill="#52FCFF"/>
<path d="M118.504 116.749C118.504 114.924 119.744 114.264 121.274 115.274L141.273 128.473C142.802 129.483 144.042 131.78 144.042 133.604C144.042 135.429 142.802 136.089 141.273 135.079L121.274 121.88C119.744 120.87 118.504 118.573 118.504 116.749Z" fill="#52FCFF"/>
<path d="M150.143 134.328C148.614 133.319 147.373 133.979 147.373 135.803C147.373 137.627 148.614 139.924 150.143 140.934L169.032 153.401C170.561 154.41 171.801 153.75 171.801 151.926C171.801 150.102 170.561 147.804 169.032 146.795L150.143 134.328Z" fill="#52FCFF"/>
<path d="M90.7452 110.318C90.7452 108.494 91.9853 107.834 93.515 108.843L112.403 121.31C113.933 122.32 115.173 124.617 115.173 126.441C115.173 128.265 113.933 128.926 112.403 127.916L93.515 115.449C91.9853 114.44 90.7452 112.142 90.7452 110.318Z" fill="#52FCFF"/>
<path d="M121.274 127.165C119.744 126.155 118.504 126.816 118.504 128.64C118.504 130.464 119.744 132.761 121.274 133.771L141.273 146.97C142.802 147.98 144.042 147.32 144.042 145.496C144.042 143.671 142.802 141.374 141.273 140.365L121.274 127.165Z" fill="#52FCFF"/>
<path d="M147.373 147.694C147.373 145.87 148.614 145.21 150.143 146.219L169.032 158.686C170.561 159.696 171.801 161.993 171.801 163.817C171.801 165.641 170.561 166.302 169.032 165.292L150.143 152.825C148.614 151.816 147.373 149.518 147.373 147.694Z" fill="#52FCFF"/>
<path d="M93.515 120.734C91.9853 119.724 90.7452 120.385 90.7452 122.209C90.7452 124.033 91.9853 126.33 93.515 127.34L112.403 139.806C113.933 140.816 115.173 140.156 115.173 138.332C115.173 136.507 113.933 134.21 112.403 133.201L93.515 120.734Z" fill="#52FCFF"/>
<path d="M118.504 140.53C118.504 138.706 119.744 138.046 121.274 139.055L141.273 152.255C142.802 153.265 144.042 155.562 144.042 157.386C144.042 159.21 142.802 159.87 141.273 158.861L121.274 145.661C119.744 144.652 118.504 142.354 118.504 140.53Z" fill="#52FCFF"/>
<path d="M150.143 158.11C148.614 157.1 147.373 157.76 147.373 159.585C147.373 161.409 148.614 163.706 150.143 164.716L169.032 177.182C170.561 178.192 171.801 177.532 171.801 175.708C171.801 173.883 170.561 171.586 169.032 170.576L150.143 158.11Z" fill="#52FCFF"/>
<path d="M90.7452 134.099C90.7452 132.275 91.9853 131.615 93.515 132.625L112.403 145.091C113.933 146.101 115.173 148.398 115.173 150.222C115.173 152.046 113.933 152.707 112.403 151.697L93.515 139.23C91.9853 138.221 90.7452 135.924 90.7452 134.099Z" fill="#52FCFF"/>
<path d="M121.274 150.946C119.744 149.936 118.504 150.597 118.504 152.421C118.504 154.245 119.744 156.542 121.274 157.552L141.273 170.752C142.802 171.761 144.042 171.101 144.042 169.277C144.042 167.453 142.802 165.155 141.273 164.146L121.274 150.946Z" fill="#52FCFF"/>
<path d="M147.373 171.476C147.373 169.651 148.614 168.991 150.143 170.001L169.032 182.467C170.561 183.477 171.801 185.774 171.801 187.598C171.801 189.423 170.561 190.083 169.032 189.073L150.143 176.607C148.614 175.597 147.373 173.3 147.373 171.476Z" fill="#52FCFF"/>
<path d="M93.515 144.515C91.9853 143.505 90.7452 144.166 90.7452 145.99C90.7452 147.814 91.9853 150.111 93.515 151.121L112.403 163.588C113.933 164.597 115.173 163.937 115.173 162.113C115.173 160.289 113.933 157.991 112.403 156.982L93.515 144.515Z" fill="#52FCFF"/>
<path d="M118.504 164.312C118.504 162.487 119.744 161.827 121.274 162.837L141.273 176.036C142.802 177.046 144.042 179.343 144.042 181.167C144.042 182.992 142.802 183.652 141.273 182.642L121.274 169.443C119.744 168.433 118.504 166.136 118.504 164.312Z" fill="#52FCFF"/>
<path d="M150.143 181.891C148.614 180.882 147.373 181.542 147.373 183.366C147.373 185.19 148.614 187.487 150.143 188.497L169.032 200.964C170.561 201.973 171.801 201.313 171.801 199.489C171.801 197.665 170.561 195.367 169.032 194.358L150.143 181.891Z" fill="#52FCFF"/>
<path d="M111.704 56.1112C111.438 55.9359 111.209 55.685 111.016 55.3584C110.847 55.0477 110.762 54.7359 110.762 54.4229V51.3927C110.762 51.1936 110.811 50.9267 110.907 50.5921C111.004 50.229 111.257 49.9979 111.667 49.8989L115.433 48.0307C117.363 47.5695 118.944 47.1476 120.175 46.765C121.43 46.3699 122.359 45.902 122.963 45.3613C123.566 44.8207 123.868 44.1378 123.868 43.3126C123.868 42.3453 123.651 41.4052 123.216 40.4925C122.806 39.5673 122.082 38.7622 121.044 38.0773C120.344 37.6153 119.753 37.41 119.27 37.4612C118.811 37.5 118.462 37.7243 118.22 38.134C117.979 38.5438 117.81 39.0155 117.713 39.5493C117.617 39.8555 117.448 40 117.206 39.983C116.989 39.9819 116.748 39.8937 116.482 39.7185L111.957 36.7316C111.74 36.5883 111.559 36.3835 111.414 36.1172C111.269 35.8509 111.197 35.5897 111.197 35.3336C111.221 33.9838 111.462 32.8628 111.921 31.9704C112.404 31.094 113.067 30.4794 113.912 30.1264C114.781 29.761 115.807 29.7125 116.989 29.9809C118.196 30.2652 119.548 30.9012 121.044 31.8889C123.095 33.2429 124.833 34.774 126.257 36.482C127.705 38.206 128.803 40.012 129.552 41.9C130.3 43.7595 130.674 45.614 130.674 47.4634C130.674 48.8576 130.408 49.9912 129.878 50.8642C129.371 51.7246 128.635 52.3911 127.669 52.8635C126.728 53.3235 125.606 53.7066 124.302 54.0129L120.972 55.7837L130.276 61.9247C130.541 62.0999 130.758 62.3428 130.927 62.6535C131.12 62.9801 131.217 63.2999 131.217 63.6129V67.9234C131.217 68.2364 131.12 68.4287 130.927 68.5005C130.758 68.5881 130.541 68.5443 130.276 68.3691L111.704 56.1112Z" fill="white"/>
<path d="M146.766 79.2528C146.524 79.0935 146.307 78.8505 146.114 78.5239C145.945 78.2132 145.861 77.9014 145.861 77.5884V72.7658L134.601 65.3345C134.36 65.1752 134.143 64.9323 133.95 64.6057C133.781 64.295 133.696 63.9832 133.696 63.6702V59.6157C133.696 59.3597 133.733 59.1559 133.805 59.0046C133.902 58.8407 133.998 58.691 134.095 58.5555L144.63 48.6936C144.943 48.4169 145.39 48.4698 145.969 48.8521L151.219 52.3168C151.484 52.4921 151.701 52.735 151.87 53.0457C152.063 53.3723 152.16 53.6921 152.16 54.0051V70.5643L155.346 72.6671C155.635 72.8582 155.865 73.1234 156.034 73.4625C156.203 73.7732 156.287 74.0708 156.287 74.3553V78.5805C156.287 78.8934 156.191 79.0858 155.997 79.1575C155.828 79.2452 155.623 79.2094 155.382 79.0501L152.16 76.9234V81.7461C152.16 82.0591 152.063 82.2514 151.87 82.3232C151.701 82.4108 151.484 82.367 151.219 82.1918L146.766 79.2528ZM139.923 62.7867L146.005 66.801V56.7289L139.923 62.7867Z" fill="white"/>
<path opacity="0.8" d="M97.4174 129.572L48.7319 157.437H48.7087L0 129.572L48.7087 101.731L97.4174 129.572Z" fill="#52FCFF"/>
<path d="M97.4172 129.573V185.302L48.7085 213.189V157.437H48.7316L97.4172 129.573Z" fill="url(#paint2_linear_1735_7646)"/>
<path d="M48.7087 157.437V213.189L0 185.302V129.573L48.7087 157.437Z" fill="url(#paint3_linear_1735_7646)"/>
<path d="M27.9567 168.88C27.3851 168.964 26.8134 169.027 26.2417 169.09C25.67 169.153 25.0983 169.216 24.5266 169.301C24.3633 169.301 24.2816 169.301 24.1183 169.048C22.7299 167.196 21.3415 165.427 19.8714 163.575L15.4612 157.765C15.1974 157.432 14.944 157.1 14.6936 156.771C14.2466 156.184 13.809 155.61 13.3378 155.07L8.27429 152.123C8.5193 152.46 8.76431 152.797 9.00932 153.049C9.40901 153.564 9.8087 154.087 10.2107 154.613C11.123 155.807 12.0475 157.017 13.0111 158.186C13.6645 159.028 14.3179 159.891 14.9712 160.754C15.6246 161.617 16.2779 162.48 16.9313 163.322L20.6065 168.122C21.1781 168.88 21.7703 169.637 22.3624 170.395C22.9544 171.153 23.5466 171.911 24.1183 172.669C24.2816 172.837 24.3633 172.921 24.4449 172.837C25.425 172.753 26.3233 172.669 27.3034 172.5C28.4876 172.374 29.6514 172.227 30.8152 172.079C31.979 171.932 33.1428 171.785 34.327 171.658C35.2396 171.569 36.1521 171.455 37.0524 171.343C37.844 171.245 38.6263 171.148 39.3905 171.069C39.7172 171.069 40.1256 170.985 40.4523 170.901L35.3887 167.869C33.687 168.162 31.9854 168.373 30.2563 168.587C29.4963 168.682 28.7297 168.777 27.9567 168.88Z" fill="white"/>
<path d="M33.1836 189.173L30.6519 189.51C27.5075 185.426 24.3836 181.363 21.2596 177.3C18.1358 173.237 15.012 169.174 11.8678 165.091V161.47L11.8693 161.472C18.9741 170.734 26.0789 179.995 33.1836 189.173Z" fill="white"/>
<path d="M11.8678 170.395C15.1165 174.555 18.3316 178.75 21.5562 182.957C23.3572 185.306 25.1623 187.661 26.9767 190.015L24.4449 190.352C22.0745 187.297 19.7296 184.242 17.3958 181.201C15.5487 178.795 13.7079 176.397 11.8678 174.016V170.395Z" fill="white"/>
<path d="M36.9404 176.205C35.3887 176.416 33.837 176.605 32.2852 176.795C30.7335 176.984 29.1818 177.174 27.63 177.384C27.7117 177.468 27.7117 177.553 27.7117 177.553C28.1201 178.058 28.508 178.584 28.8959 179.11C29.2839 179.637 29.6718 180.163 30.0801 180.668L30.1618 180.752C31.3052 180.626 32.4282 180.479 33.5511 180.331C34.6741 180.184 35.797 180.037 36.9404 179.91V176.205Z" fill="white"/>
<path d="M35.3888 185.426C35.8992 185.363 36.4096 185.299 36.9405 185.215V188.752L36.2871 188.836C35.8787 188.289 35.4704 187.762 35.062 187.236C34.6537 186.71 34.2454 186.184 33.837 185.636C34.3679 185.552 34.8783 185.489 35.3888 185.426Z" fill="white"/>
<path d="M105.406 201.263L105.421 206.654L121.651 216.006L121.636 210.615L105.406 201.263Z" fill="#ED8600"/>
<path d="M127.927 210.623L127.942 216.007L139.147 209.594L139.132 204.203L127.927 210.623Z" fill="#ED8600"/>
<path d="M121.636 210.616L121.651 216.007H127.941L127.927 210.623L121.636 210.616Z" fill="#ED8600"/>
<path d="M116.633 191.24H122.917L139.147 200.592V204.203L127.942 210.616H121.651L105.421 201.263C105.421 199.855 105.421 199.075 105.421 197.652L116.633 191.24Z" fill="#ECBA09"/>
<path d="M111.8 206.049L66.8029 231.975C67.0387 231.868 67.299 231.824 67.5574 231.848C67.8158 231.873 68.0632 231.964 68.2743 232.114L113.271 206.187C113.063 206.033 112.815 205.938 112.555 205.913C112.296 205.889 112.034 205.936 111.8 206.049Z" fill="#ECBA09"/>
<path d="M69.6721 236.87L114.669 210.944C114.874 210.8 115.038 210.604 115.142 210.378C115.247 210.151 115.289 209.901 115.265 209.653C115.225 208.958 115.022 208.283 114.67 207.681C114.319 207.079 113.829 206.567 113.242 206.188L68.2448 232.114C68.8354 232.492 69.3264 233.004 69.677 233.608C70.0276 234.212 70.2277 234.89 70.2607 235.587C70.2867 235.833 70.2458 236.082 70.1423 236.308C70.0389 236.533 69.8765 236.728 69.6721 236.87Z" fill="#ECBA09"/>
<path d="M68.2449 232.114C67.1266 231.472 66.2142 231.99 66.2069 233.267C66.2465 233.961 66.4503 234.637 66.8017 235.239C67.1532 235.841 67.6425 236.352 68.2301 236.732C69.3484 237.374 70.2607 236.856 70.2607 235.587C70.2278 234.891 70.0277 234.212 69.677 233.608C69.3264 233.004 68.8354 232.492 68.2449 232.114Z" fill="#ED8600"/>
<path d="M76.9557 232.005L76.9483 235.047L75.7123 234.346L75.7197 231.297L76.9557 232.005Z" fill="#ED8600"/>
<path d="M89.3896 233.267L89.3823 236.309L88.3376 235.711L88.3449 232.668L89.3896 233.267Z" fill="#ED8600"/>
<path d="M90.324 232.727L90.3166 235.769L89.3822 236.309L89.3896 233.267L90.324 232.727Z" fill="#ED8600"/>
<path d="M88.3448 232.668L88.3375 235.711L87.0132 236.476L87.0205 233.434L88.3448 232.668Z" fill="#ED8600"/>
<path d="M84.416 234.938L84.4013 237.98L83.0844 238.738L83.0917 235.696L84.416 234.938Z" fill="#ED8600"/>
<path d="M77.4487 235.711L77.4414 238.753L73.9687 236.768L73.9761 233.719L77.4487 235.711Z" fill="#ED8600"/>
<path d="M79.126 234.747L79.1186 237.789L77.4412 238.752L77.4485 235.71L79.126 234.747Z" fill="#ED8600"/>
<path d="M88.8821 234.492L88.8674 237.542L86.2629 239.044L86.2703 235.995L88.8821 234.492Z" fill="#ED8600"/>
<path d="M86.2701 235.995L86.2628 239.045L84.4014 237.98L84.4161 234.938L86.2701 235.995Z" fill="#ED8600"/>
<path d="M82.9816 236.958L82.9742 240L79.119 237.789L79.1264 234.747L82.9816 236.958Z" fill="#ED8600"/>
<path d="M90.324 232.727L89.3896 233.267L88.3449 232.668L87.0206 233.434L88.8819 234.492L86.2701 235.995L84.4161 234.937L83.0918 235.696L84.1365 236.294L82.9814 236.958L79.1262 234.748L77.4488 235.71L73.9761 233.719L76.9558 232.005L75.7198 231.297L80.6712 228.452L81.8999 229.16L82.9961 228.525L90.324 232.727Z" fill="#ECBA09"/>
<path d="M84.1365 236.294L84.1291 239.336L82.974 240L82.9814 236.958L84.1365 236.294Z" fill="#ED8600"/>
<path d="M92.5016 227.876L92.4942 230.553L90.3533 231.793L90.3606 229.116L92.5016 227.876Z" fill="#ED8600"/>
<path d="M90.3607 229.116L90.3534 231.793L84.9163 228.678L84.9237 226.001L90.3607 229.116Z" fill="#ED8600"/>
<path d="M92.5016 227.876L90.3606 229.116L84.9236 226.001L87.0719 224.768L92.5016 227.876Z" fill="#ECBA09"/>
<path fill-rule="evenodd" clip-rule="evenodd" d="M56.9059 132.901C49.9677 129.597 44.3455 120.423 44.3455 112.338C44.3455 109.306 45.1429 106.896 46.4588 105.225L45.3822 105.536L47.9342 103.825C47.974 103.786 48.0239 103.757 48.0737 103.728C48.1236 103.699 48.1734 103.67 48.2133 103.631L48.293 103.553C50.5659 102.154 53.5963 102.037 56.9059 103.631C63.844 106.935 69.4663 116.109 69.4663 124.194C69.4663 128.042 68.1903 130.919 66.1169 132.551L66.077 132.59C65.9574 132.668 65.8477 132.745 65.7381 132.823C65.6284 132.901 65.5187 132.979 65.3991 133.056L62.9269 134.767L63.0465 133.95C61.2123 134.261 59.1388 133.95 56.9059 132.901ZM56.9059 110.278C53.1178 108.49 50.0475 110.589 50.0475 115.02C50.0475 119.413 53.1178 124.466 56.9059 126.293C60.6939 128.081 63.7643 125.982 63.7643 121.551C63.7643 117.119 60.6939 112.066 56.9059 110.278Z" fill="url(#paint4_linear_1735_7646)"/>
<path fill-rule="evenodd" clip-rule="evenodd" d="M41.5144 114.398C41.5144 106.352 47.1367 102.465 54.0748 105.73C60.9731 108.995 66.5954 118.208 66.6352 126.293C66.6352 134.339 61.013 138.226 54.0748 134.961C47.1367 131.657 41.5144 122.483 41.5144 114.398ZM47.2164 117.041C47.2164 121.473 50.2868 126.526 54.0748 128.314C57.8629 130.141 60.9332 128.003 60.9332 123.572C60.9332 119.141 57.8629 114.087 54.0748 112.299C50.2868 110.511 47.2164 112.61 47.2164 117.041Z" fill="url(#paint5_linear_1735_7646)"/>
<ellipse cx="9.39899" cy="14.8554" rx="9.39899" ry="14.8554" transform="matrix(0.889254 -0.457413 0.477279 0.878752 38.6207 111.431)" fill="url(#paint6_linear_1735_7646)"/>
<path fill-rule="evenodd" clip-rule="evenodd" d="M56.2289 122.775L50.1174 119.144C49.4468 120.756 48.5946 122.756 47.8943 124.349C47.8146 124.466 47.695 124.466 47.5355 124.388C47.2962 124.271 47.2563 124.194 47.2563 123.96V123.883L49.4413 118.742L47.4956 117.586C47.376 117.508 47.2962 117.352 47.2962 117.197V116.847C47.2962 116.691 47.376 116.653 47.4956 116.691L49.7447 118.028L50.4886 116.278L48.5722 115.137C48.4526 115.059 48.3728 114.903 48.3728 114.748V114.359C48.3728 114.204 48.4526 114.165 48.5722 114.204L50.805 115.533L52.5596 111.405C52.7191 111.094 53.1179 110.861 53.4767 111.094C53.8755 111.327 54.0749 111.794 54.1945 112.26L56.0191 118.638L58.1022 119.879C58.2218 119.957 58.3015 120.112 58.3015 120.268V120.618C58.3015 120.812 58.2218 120.89 58.1022 120.812L56.3407 119.763L57.0938 122.395L59.1389 123.611C59.2585 123.688 59.3383 123.844 59.3383 123.999V124.349C59.3782 124.505 59.2585 124.582 59.1389 124.505L57.4019 123.472L59.2984 130.102C59.418 130.413 59.5775 130.918 59.2585 130.996C58.8199 131.113 58.6205 130.802 58.5408 130.53L56.2289 122.775ZM55.2455 119.111L55.9738 121.73L50.4898 118.471L51.2107 116.708L55.2455 119.111ZM54.9345 117.993L51.5176 115.958L52.9185 112.532C53.1179 111.988 53.3172 112.221 53.5565 113.038L54.9345 117.993Z" fill="white"/>
<path fill-rule="evenodd" clip-rule="evenodd" d="M24.4103 109.968C15.9854 105.941 9.15833 94.7605 9.15833 84.9067C9.15833 81.2114 10.1267 78.2742 11.7245 76.2371L10.4172 76.6161L13.516 74.5316C13.5644 74.4843 13.625 74.4487 13.6855 74.4132C13.746 74.3777 13.8065 74.3421 13.855 74.2948L13.9518 74.2C16.7117 72.4945 20.3915 72.3524 24.4103 74.2948C32.8351 78.3216 39.6622 89.502 39.6622 99.3559C39.6622 104.046 38.1128 107.552 35.595 109.541L35.5466 109.589C35.4013 109.684 35.2682 109.778 35.135 109.873C35.0019 109.968 34.8687 110.063 34.7235 110.157L31.7215 112.242L31.8668 111.247C29.6395 111.626 27.1217 111.247 24.4103 109.968ZM24.4103 82.3958C19.8105 80.2166 16.0822 82.7748 16.0822 88.1755C16.0822 93.5288 19.8105 99.6875 24.4103 101.914C29.0101 104.093 32.7383 101.535 32.7383 96.1344C32.7383 90.7337 29.0101 84.575 24.4103 82.3958Z" fill="url(#paint7_linear_1735_7646)"/>
<path fill-rule="evenodd" clip-rule="evenodd" d="M5.72058 87.4175C5.72058 77.611 12.5476 72.8735 20.9725 76.853C29.349 80.8324 36.176 92.0602 36.2245 101.914C36.2245 111.721 29.3974 116.458 20.9725 112.479C12.5476 108.452 5.72058 97.2714 5.72058 87.4175ZM12.6445 90.6389C12.6445 96.0396 16.3727 102.198 20.9725 104.378C25.5723 106.604 29.3006 103.999 29.3006 98.5979C29.3006 93.1972 25.5723 87.0385 20.9725 84.8593C16.3727 82.68 12.6445 85.2382 12.6445 90.6389Z" fill="url(#paint8_linear_1735_7646)"/>
<ellipse cx="11.4219" cy="18.09" rx="11.4219" ry="18.09" transform="matrix(0.88857 -0.458741 0.475927 0.879485 2.20691 83.801)" fill="url(#paint9_linear_1735_7646)"/>
<path fill-rule="evenodd" clip-rule="evenodd" d="M23.5883 97.6273L16.1671 93.201C15.3528 95.1665 14.3181 97.604 13.4677 99.5453C13.3709 99.6874 13.2256 99.6874 13.0319 99.5927C12.7414 99.4506 12.693 99.3558 12.693 99.0716V98.9768L15.3462 92.7114L12.9835 91.3022C12.8383 91.2074 12.7414 91.0179 12.7414 90.8284V90.402C12.7414 90.2125 12.8383 90.1652 12.9835 90.2125L15.7146 91.8415L16.6178 89.7084L14.2908 88.3176C14.1456 88.2228 14.0487 88.0333 14.0487 87.8438V87.3701C14.0487 87.1806 14.1456 87.1332 14.2908 87.1806L17.0021 88.8011L19.1327 83.7696C19.3264 83.3906 19.8106 83.1064 20.2463 83.3906C20.7305 83.6749 20.9726 84.2434 21.1179 84.8119L23.3334 92.5854L25.8629 94.0973C26.0082 94.192 26.105 94.3815 26.105 94.571V94.9974C26.105 95.2342 26.0082 95.329 25.8629 95.2342L23.724 93.9558L24.6384 97.164L27.1218 98.6452C27.2671 98.74 27.3639 98.9294 27.3639 99.1189V99.5453C27.4123 99.7348 27.2671 99.8296 27.1218 99.7348L25.0126 98.4768L27.3155 106.557C27.4607 106.936 27.6544 107.552 27.2671 107.646C26.7345 107.788 26.4924 107.409 26.3955 107.078L23.5883 97.6273ZM22.3941 93.1609L23.2785 96.3529L16.6193 92.3811L17.4948 90.2326L22.3941 93.1609ZM22.0165 91.7982L17.8673 89.3183L19.5685 85.1435C19.8106 84.4802 20.0527 84.7645 20.3432 85.7593L22.0165 91.7982Z" fill="white"/>
<path fill-rule="evenodd" clip-rule="evenodd" d="M55.4644 95.6572C45.305 90.8043 37.0724 77.3305 37.0724 65.4553C37.0724 61.0021 38.2401 57.4624 40.1669 55.0074L38.5905 55.4642L42.3273 52.9521C42.3856 52.895 42.4586 52.8522 42.5316 52.8094C42.6046 52.7666 42.6776 52.7237 42.736 52.6666L42.8527 52.5525C46.1808 50.4971 50.6183 50.3259 55.4644 52.6666C65.6239 57.5195 73.8565 70.9933 73.8565 82.8685C73.8565 88.5206 71.9881 92.7455 68.9519 95.1433L68.8935 95.2004C68.7184 95.3146 68.5578 95.4288 68.3973 95.543C68.2367 95.6572 68.0761 95.7714 67.901 95.8855L64.2809 98.3976L64.4561 97.1987C61.7703 97.6554 58.7341 97.1987 55.4644 95.6572ZM55.4644 62.4294C49.9176 59.8032 45.4218 62.8862 45.4218 69.3947C45.4218 75.8461 49.9176 83.2681 55.4644 85.9515C61.0112 88.5777 65.5071 85.4947 65.5071 78.9862C65.5071 72.4777 61.0112 65.0557 55.4644 62.4294Z" fill="url(#paint10_linear_1735_7646)"/>
<path fill-rule="evenodd" clip-rule="evenodd" d="M32.9269 68.4813C32.9269 56.6632 41.1595 50.954 51.3189 55.7497C61.42 60.5455 69.6526 74.0764 69.711 85.9516C69.711 97.7697 61.4783 103.479 51.3189 98.6832C41.1595 93.8303 32.9269 80.3565 32.9269 68.4813ZM41.2763 72.3636C41.2763 78.8721 45.7721 86.2941 51.3189 88.9204C56.8657 91.6037 61.3616 88.4636 61.3616 81.9551C61.3616 75.4466 56.8657 68.0246 51.3189 65.3983C45.7721 62.7721 41.2763 65.8551 41.2763 72.3636Z" fill="url(#paint11_linear_1735_7646)"/>
<ellipse cx="13.7716" cy="21.8038" rx="13.7716" ry="21.8038" transform="matrix(0.888687 -0.458515 0.476158 0.87936 28.6897 64.1228)" fill="url(#paint12_linear_1735_7646)"/>
<path fill-rule="evenodd" clip-rule="evenodd" d="M54.473 80.7854L45.524 75.4512C44.542 77.8198 43.2942 80.7573 42.2688 83.0969C42.152 83.2682 41.9769 83.2682 41.7433 83.154C41.393 82.9827 41.3346 82.8685 41.3346 82.526V82.4118L44.534 74.8611L41.6849 73.1628C41.5098 73.0486 41.393 72.8203 41.393 72.5919V72.0781C41.393 71.8497 41.5098 71.7926 41.6849 71.8497L44.9783 73.8128L46.0675 71.2422L43.2614 69.566C43.0862 69.4518 42.9694 69.2235 42.9694 68.9951V68.4242C42.9694 68.1958 43.0862 68.1387 43.2614 68.1958L46.5308 70.1487L49.1001 64.0852C49.3337 63.6284 49.9175 63.2859 50.443 63.6284C51.0269 63.971 51.3188 64.6561 51.494 65.3412L54.1657 74.7093L57.216 76.5313C57.3911 76.6455 57.5079 76.8738 57.5079 77.1022V77.616C57.5079 77.9015 57.3911 78.0157 57.216 77.9015L54.6367 76.3609L55.7394 80.2271L58.7341 82.0121C58.9092 82.1263 59.026 82.3547 59.026 82.5831V83.0969C59.0844 83.3253 58.9092 83.4395 58.7341 83.3253L56.1906 81.8092L58.9676 91.5466C59.1428 92.0033 59.3763 92.7455 58.9092 92.8597C58.267 93.031 57.975 92.5742 57.8582 92.1746L54.473 80.7854ZM53.0329 75.4028L54.0995 79.2496L46.0692 74.4631L47.125 71.8738L53.0329 75.4028ZM52.5776 73.7607L47.5742 70.772L49.6256 65.7408C49.9175 64.9415 50.2095 65.2841 50.5598 66.483L52.5776 73.7607Z" fill="white"/>
<defs>
<linearGradient id="paint0_linear_1735_7646" x1="126.696" y1="1.74966e-05" x2="249.505" y2="83.678" gradientUnits="userSpaceOnUse">
<stop stop-color="#17D1AA"/>
<stop offset="0.15" stop-color="#1ACBAF"/>
<stop offset="0.37" stop-color="#21B8BC"/>
<stop offset="0.62" stop-color="#2E9BD3"/>
<stop offset="0.89" stop-color="#3F71F1"/>
<stop offset="1" stop-color="#475FFF"/>
</linearGradient>
<linearGradient id="paint1_linear_1735_7646" x1="183.094" y1="220.868" x2="84.0722" y2="220.868" gradientUnits="userSpaceOnUse">
<stop stop-color="#17D1AA"/>
<stop offset="0.15" stop-color="#1ACBAF"/>
<stop offset="0.37" stop-color="#21B8BC"/>
<stop offset="0.62" stop-color="#2E9BD3"/>
<stop offset="0.89" stop-color="#3F71F1"/>
<stop offset="1" stop-color="#475FFF"/>
</linearGradient>
<linearGradient id="paint2_linear_1735_7646" x1="48.7085" y1="213.19" x2="97.4172" y2="213.19" gradientUnits="userSpaceOnUse">
<stop stop-color="#17D1AA"/>
<stop offset="0.15" stop-color="#1ACBAF"/>
<stop offset="0.37" stop-color="#21B8BC"/>
<stop offset="0.62" stop-color="#2E9BD3"/>
<stop offset="0.89" stop-color="#3F71F1"/>
<stop offset="1" stop-color="#475FFF"/>
</linearGradient>
<linearGradient id="paint3_linear_1735_7646" x1="29.6946" y1="129.573" x2="-19.2758" y2="169.649" gradientUnits="userSpaceOnUse">
<stop stop-color="#17D1AA"/>
<stop offset="0.15" stop-color="#1ACBAF"/>
<stop offset="0.37" stop-color="#21B8BC"/>
<stop offset="0.62" stop-color="#2E9BD3"/>
<stop offset="0.89" stop-color="#3F71F1"/>
<stop offset="1" stop-color="#475FFF"/>
</linearGradient>
<linearGradient id="paint4_linear_1735_7646" x1="44.3455" y1="134.767" x2="69.4663" y2="134.767" gradientUnits="userSpaceOnUse">
<stop stop-color="#17D1AA"/>
<stop offset="0.15" stop-color="#1ACBAF"/>
<stop offset="0.37" stop-color="#21B8BC"/>
<stop offset="0.62" stop-color="#2E9BD3"/>
<stop offset="0.89" stop-color="#3F71F1"/>
<stop offset="1" stop-color="#475FFF"/>
</linearGradient>
<linearGradient id="paint5_linear_1735_7646" x1="67.7614" y1="155.218" x2="109.655" y2="97.6494" gradientUnits="userSpaceOnUse">
<stop stop-color="#244ABF"/>
<stop offset="1" stop-color="#4760FF"/>
</linearGradient>
<linearGradient id="paint6_linear_1735_7646" x1="11.4599" y1="2.35364e-06" x2="-6.16862" y2="15.6694" gradientUnits="userSpaceOnUse">
<stop stop-color="#17D1AA"/>
<stop offset="0.15" stop-color="#1ACBAF"/>
<stop offset="0.37" stop-color="#21B8BC"/>
<stop offset="0.62" stop-color="#2E9BD3"/>
<stop offset="0.89" stop-color="#3F71F1"/>
<stop offset="1" stop-color="#475FFF"/>
</linearGradient>
<linearGradient id="paint7_linear_1735_7646" x1="9.15836" y1="112.242" x2="39.6622" y2="112.242" gradientUnits="userSpaceOnUse">
<stop stop-color="#17D1AA"/>
<stop offset="0.15" stop-color="#1ACBAF"/>
<stop offset="0.37" stop-color="#21B8BC"/>
<stop offset="0.62" stop-color="#2E9BD3"/>
<stop offset="0.89" stop-color="#3F71F1"/>
<stop offset="1" stop-color="#475FFF"/>
</linearGradient>
<linearGradient id="paint8_linear_1735_7646" x1="37.5919" y1="137.166" x2="88.7068" y2="67.1834" gradientUnits="userSpaceOnUse">
<stop stop-color="#244ABF"/>
<stop offset="1" stop-color="#4760FF"/>
</linearGradient>
<linearGradient id="paint9_linear_1735_7646" x1="13.9264" y1="2.86611e-06" x2="-7.53529" y2="19.0372" gradientUnits="userSpaceOnUse">
<stop stop-color="#17D1AA"/>
<stop offset="0.15" stop-color="#1ACBAF"/>
<stop offset="0.37" stop-color="#21B8BC"/>
<stop offset="0.62" stop-color="#2E9BD3"/>
<stop offset="0.89" stop-color="#3F71F1"/>
<stop offset="1" stop-color="#475FFF"/>
</linearGradient>
<linearGradient id="paint10_linear_1735_7646" x1="37.0724" y1="98.3979" x2="73.8565" y2="98.3979" gradientUnits="userSpaceOnUse">
<stop stop-color="#17D1AA"/>
<stop offset="0.15" stop-color="#1ACBAF"/>
<stop offset="0.37" stop-color="#21B8BC"/>
<stop offset="0.62" stop-color="#2E9BD3"/>
<stop offset="0.89" stop-color="#3F71F1"/>
<stop offset="1" stop-color="#475FFF"/>
</linearGradient>
<linearGradient id="paint11_linear_1735_7646" x1="71.36" y1="128.435" x2="132.948" y2="44.0599" gradientUnits="userSpaceOnUse">
<stop stop-color="#244ABF"/>
<stop offset="1" stop-color="#4760FF"/>
</linearGradient>
<linearGradient id="paint12_linear_1735_7646" x1="16.7913" y1="3.45452e-06" x2="-9.07746" y2="22.9545" gradientUnits="userSpaceOnUse">
<stop stop-color="#17D1AA"/>
<stop offset="0.15" stop-color="#1ACBAF"/>
<stop offset="0.37" stop-color="#21B8BC"/>
<stop offset="0.62" stop-color="#2E9BD3"/>
<stop offset="0.89" stop-color="#3F71F1"/>
<stop offset="1" stop-color="#475FFF"/>
</linearGradient>
</defs>
</svg>
