<svg width="24" height="24" viewBox="0 0 24 24" fill="none" xmlns="http://www.w3.org/2000/svg">
<path fill-rule="evenodd" clip-rule="evenodd" d="M9.46944 5.01207C8.80934 4.27863 8.12408 3.98923 7.51742 3.9998L7.5 3.99995C7.10218 3.99995 6.72064 4.15798 6.43934 4.43929C6.15804 4.72059 6 5.10212 6 5.49995C6 5.89777 6.15804 6.2793 6.43934 6.56061C6.72064 6.84191 7.10218 6.99995 7.5 6.99995H10.6419C10.3251 6.18851 9.92148 5.51433 9.46944 5.01207ZM11 8.99995V10.9999L5 10.9999L4 10.9999V8.99995H11ZM4.33772 6.99995C4.11743 6.53552 4 6.02379 4 5.49995C4 4.57169 4.36875 3.68145 5.02513 3.02507C5.67943 2.37077 6.56612 2.00228 7.4912 1.99996C8.81053 1.97987 10.0128 2.62607 10.956 3.67414C11.3497 4.11154 11.6987 4.61776 12 5.17651C12.3013 4.61776 12.6503 4.11154 13.044 3.67414C13.9872 2.62607 15.1895 1.97987 16.5088 1.99996C17.4339 2.00228 18.3206 2.37077 18.9749 3.02507C19.6312 3.68145 20 4.57169 20 5.49995C20 6.02379 19.8826 6.53552 19.6623 6.99995H20C21.1046 6.99995 22 7.89538 22 8.99995V10.9999C22 12.1045 21.1046 12.9999 20 12.9999V18.9999C20 19.7956 19.6839 20.5587 19.1213 21.1213C18.5587 21.6839 17.7957 21.9999 17 21.9999H7C6.20435 21.9999 5.44129 21.6839 4.87868 21.1213C4.31607 20.5587 4 19.7956 4 18.9999V12.9999C2.89543 12.9999 2 12.1045 2 10.9999V8.99995C2 7.89538 2.89543 6.99995 4 6.99995H4.33772ZM6 12.9999V18.9999C6 19.2652 6.10536 19.5195 6.29289 19.7071C6.48043 19.8946 6.73478 19.9999 7 19.9999H11V12.9999H6ZM13 12.9999V19.9999H17C17.2652 19.9999 17.5196 19.8946 17.7071 19.7071C17.8946 19.5195 18 19.2652 18 18.9999V12.9999H13ZM19 10.9999L20 10.9999V8.99995H13V10.9999L19 10.9999ZM16.5 6.99995C16.8978 6.99995 17.2794 6.84191 17.5607 6.56061C17.842 6.2793 18 5.89777 18 5.49995C18 5.10212 17.842 4.72059 17.5607 4.43929C17.2794 4.15798 16.8978 3.99995 16.5 3.99995L16.4826 3.9998C15.8759 3.98923 15.1907 4.27863 14.5306 5.01207C14.0785 5.51433 13.6749 6.18851 13.3581 6.99995H16.5Z" fill="white"/>
</svg>
