<svg width="200" height="200" viewBox="0 0 200 200" fill="none" xmlns="http://www.w3.org/2000/svg">
<path d="M41.0751 21.7257L48.5575 17.4985C49.6264 16.9701 50.6953 16.5738 51.8978 16.3096C53.902 15.6491 56.3071 16.0454 58.9793 17.4985L151.44 70.3385C158.388 74.3015 164 85.0016 164 94.1166L163.733 167.696C163.733 173.245 161.595 176.811 158.522 178.132L149.97 182.492L143.156 172.584L58.5785 124.235C51.6306 120.272 46.0188 109.572 46.0188 100.457L46.286 29.5196L41.0751 21.7257Z" fill="url(#paint0_linear_17_4115)"/>
<path opacity="0.8" fill-rule="evenodd" clip-rule="evenodd" d="M36.2547 31.1328C36.287 21.9213 41.9707 17.7065 48.9497 21.7191L141.622 74.9935C148.601 79.0061 154.233 89.7257 154.202 98.9383L153.947 173.068C153.915 182.279 148.232 186.494 141.253 182.482L48.5806 129.207C41.6016 125.194 35.969 114.475 36.0001 105.263L36.2547 31.1328Z" fill="#52FCFF"/>
<path fill-rule="evenodd" clip-rule="evenodd" d="M95.1006 68.3652C113.96 79.6626 129.247 103.924 129.248 122.554C129.248 141.186 113.96 147.132 95.1006 135.836C76.2427 124.539 60.9539 100.277 60.9539 81.6464C60.9539 63.0147 76.2427 57.0688 95.1006 68.3652Z" fill="#FF1351"/>
<path fill-rule="evenodd" clip-rule="evenodd" d="M108.522 122.499C109.091 123.462 109.376 124.366 109.376 125.209C109.376 126.053 109.091 126.584 108.522 126.803C107.952 127.023 107.241 126.874 106.386 126.359C105.532 125.843 104.792 125.116 104.165 124.174L92.9752 106.368L81.7834 110.671C81.1575 110.856 80.4459 110.709 79.6476 110.228C78.8504 109.746 78.1399 109.036 77.5129 108.094C76.8869 107.154 76.5734 106.262 76.5734 105.418C76.5734 104.574 76.8869 104.032 77.5129 103.791L88.6179 99.4354L77.5129 81.6791C76.8869 80.6829 76.5734 79.7624 76.5734 78.9177C76.5734 78.0741 76.8869 77.56 77.5129 77.3755C78.1399 77.1898 78.8504 77.3392 79.6476 77.8192C80.4459 78.3003 81.1575 79.0121 81.7834 79.9524L92.9752 97.7603L104.165 93.4555C104.792 93.271 105.532 93.4368 106.386 93.952C107.241 94.4672 107.952 95.1779 108.522 96.0841C109.091 96.9903 109.376 97.8657 109.376 98.7093C109.376 99.5529 109.091 100.113 108.522 100.389L97.3313 104.693L108.522 122.499Z" fill="white"/>
<defs>
<linearGradient id="paint0_linear_17_4115" x1="41.0752" y1="182.492" x2="164" y2="182.492" gradientUnits="userSpaceOnUse">
<stop stop-color="#17D1AA"/>
<stop offset="0.15" stop-color="#1ACBAF"/>
<stop offset="0.37" stop-color="#21B8BC"/>
<stop offset="0.62" stop-color="#2E9BD3"/>
<stop offset="0.89" stop-color="#3F71F1"/>
<stop offset="1" stop-color="#475FFF"/>
</linearGradient>
</defs>
</svg>
