<svg width="24" height="24" viewBox="0 0 24 24" fill="none" xmlns="http://www.w3.org/2000/svg">
<path d="M0 4C0 1.79086 1.79086 0 4 0H20C22.2091 0 24 1.79086 24 4V20C24 22.2091 22.2091 24 20 24H4C1.79086 24 0 22.2091 0 20V4Z" fill="#1F232E"/>
<path d="M11.9992 17.7137C14.2712 17.7137 16.5706 16.9286 16.5706 15.428V8.57087C16.5706 7.0703 14.2712 6.28516 11.9992 6.28516C9.72716 6.28516 7.42773 7.0703 7.42773 8.57087V15.428C7.42773 16.9286 9.72716 17.7137 11.9992 17.7137ZM11.9992 16.5709C9.87231 16.5709 8.57059 15.8309 8.57059 15.428V14.7034C9.45116 15.1823 10.7289 15.428 11.9992 15.428C13.2694 15.428 14.5472 15.1823 15.4277 14.7034V15.428C15.4277 15.8309 14.126 16.5709 11.9992 16.5709ZM11.9992 7.42801C14.126 7.42801 15.4277 8.16801 15.4277 8.57087C15.4277 8.97373 14.126 9.71373 11.9992 9.71373C9.87231 9.71373 8.57059 8.97373 8.57059 8.57087C8.57059 8.16801 9.87231 7.42801 11.9992 7.42801ZM8.57059 10.132C9.45116 10.6109 10.7289 10.8566 11.9992 10.8566C13.2694 10.8566 14.5472 10.6109 15.4277 10.132V10.8566C15.4277 11.2594 14.126 11.9994 11.9992 11.9994C9.87231 11.9994 8.57059 11.2594 8.57059 10.8566V10.132ZM8.57059 12.4177C9.45116 12.8966 10.7289 13.1423 11.9992 13.1423C13.2694 13.1423 14.5472 12.8966 15.4277 12.4177V13.1423C15.4277 13.5452 14.126 14.2852 11.9992 14.2852C9.87231 14.2852 8.57059 13.5452 8.57059 13.1423V12.4177Z" fill="#4B5266"/>
</svg>
