<svg width="30" height="30" viewBox="0 0 30 30" fill="none" xmlns="http://www.w3.org/2000/svg">
<path d="M0 8C0 3.58172 3.58172 0 8 0H22C26.4183 0 30 3.58172 30 8V22C30 26.4183 26.4183 30 22 30H8C3.58172 30 0 26.4183 0 22V8Z" fill="#EAEDF2"/>
<path d="M15 22.1431C17.84 22.1431 20.7143 21.1617 20.7143 19.286V10.7146C20.7143 8.83885 17.84 7.85742 15 7.85742C12.16 7.85742 9.28571 8.83885 9.28571 10.7146V19.286C9.28571 21.1617 12.16 22.1431 15 22.1431ZM15 20.7146C12.3414 20.7146 10.7143 19.7896 10.7143 19.286V18.3803C11.815 18.9789 13.4121 19.286 15 19.286C16.5878 19.286 18.185 18.9789 19.2857 18.3803V19.286C19.2857 19.7896 17.6586 20.7146 15 20.7146ZM15 9.28599C17.6586 9.28599 19.2857 10.211 19.2857 10.7146C19.2857 11.2181 17.6586 12.1431 15 12.1431C12.3414 12.1431 10.7143 11.2181 10.7143 10.7146C10.7143 10.211 12.3414 9.28599 15 9.28599ZM10.7143 12.666C11.815 13.2646 13.4121 13.5717 15 13.5717C16.5878 13.5717 18.185 13.2646 19.2857 12.666V13.5717C19.2857 14.0753 17.6586 15.0003 15 15.0003C12.3414 15.0003 10.7143 14.0753 10.7143 13.5717V12.666ZM10.7143 15.5231C11.815 16.1217 13.4121 16.4289 15 16.4289C16.5878 16.4289 18.185 16.1217 19.2857 15.5231V16.4289C19.2857 16.9324 17.6586 17.8574 15 17.8574C12.3414 17.8574 10.7143 16.9324 10.7143 16.4289V15.5231Z" fill="#A7AFC0"/>
</svg>
