<svg width="371" height="154" viewBox="0 0 371 154" fill="none" xmlns="http://www.w3.org/2000/svg">
<path d="M111.626 141.823L131.745 153.453M287.822 141.835L303.693 132.659M367.551 113.993C370.206 115.529 370.218 118.019 367.587 119.542L328.821 142.114C326.19 143.649 321.905 143.649 319.25 142.114L280.231 119.542C277.588 118.007 277.576 115.529 280.207 113.993L318.973 91.422C321.604 89.8867 325.888 89.8867 328.531 91.422L367.551 113.993ZM144.562 113.727C148.811 116.181 148.835 120.171 144.623 122.625L82.5151 158.785C78.291 161.239 71.4237 161.239 67.1753 158.785L4.64545 122.613C0.409208 120.159 0.38507 116.181 4.59718 113.715L66.7047 77.5553C70.9168 75.1011 77.7841 75.1011 82.0324 77.5553L144.55 113.715L144.562 113.727ZM215.194 119.566C264.053 119.703 303.596 142.796 303.517 171.145C303.438 199.495 263.767 222.367 214.908 222.23C166.05 222.093 126.506 199 126.585 170.651C126.664 142.301 166.336 119.429 215.194 119.566Z" stroke="url(#paint0_linear_2137_27534)"/>
<path d="M360.767 115.25C360.767 115.25 360.767 115.371 360.743 115.42C360.743 115.468 360.718 115.516 360.706 115.565C360.694 115.625 360.682 115.674 360.658 115.734C360.646 115.782 360.622 115.819 360.598 115.867C360.574 115.927 360.55 115.976 360.513 116.036C360.489 116.073 360.465 116.121 360.441 116.157C360.405 116.218 360.356 116.29 360.308 116.351C360.284 116.387 360.248 116.423 360.224 116.459C360.151 116.544 360.079 116.629 359.994 116.713C359.97 116.737 359.934 116.774 359.91 116.798C359.862 116.846 359.801 116.895 359.741 116.931C359.693 116.967 359.644 117.016 359.584 117.052C359.524 117.1 359.451 117.136 359.391 117.185C359.318 117.233 359.258 117.269 359.186 117.318L327.866 135.549C327.697 135.646 327.528 135.73 327.347 135.815C327.299 135.839 327.239 135.863 327.191 135.887C327.046 135.948 326.913 135.996 326.756 136.044C326.708 136.057 326.647 136.081 326.599 136.093C326.503 136.117 326.406 136.153 326.322 136.177C326.249 136.202 326.177 136.214 326.104 136.238C326.008 136.262 325.899 136.286 325.803 136.298C325.73 136.31 325.67 136.323 325.597 136.335C325.392 136.371 325.187 136.395 324.97 136.419C324.91 136.419 324.837 136.419 324.777 136.431C324.656 136.431 324.535 136.456 324.403 136.456C324.318 136.456 324.246 136.456 324.161 136.456C324.065 136.456 323.956 136.456 323.86 136.456C323.775 136.456 323.691 136.456 323.606 136.456C323.509 136.456 323.425 136.456 323.328 136.443C323.244 136.443 323.159 136.431 323.075 136.419C322.978 136.419 322.894 136.395 322.797 136.383C322.713 136.383 322.628 136.359 322.556 136.347C322.459 136.335 322.363 136.31 322.266 136.298C322.194 136.286 322.122 136.274 322.037 136.25C321.916 136.226 321.808 136.202 321.699 136.165C321.639 136.153 321.578 136.129 321.518 136.117C321.313 136.057 321.12 135.996 320.927 135.924C320.903 135.924 320.878 135.899 320.854 135.887C320.601 135.778 320.347 135.67 320.118 135.537L288.594 117.306C287.52 116.689 286.976 115.867 286.988 115.045V116.834C286.988 117.656 287.52 118.466 288.594 119.095L320.118 137.326C320.347 137.459 320.601 137.58 320.854 137.677C320.866 137.677 320.891 137.689 320.903 137.701H320.927C321.12 137.773 321.313 137.846 321.518 137.894C321.53 137.894 321.554 137.894 321.566 137.906C321.615 137.918 321.663 137.93 321.711 137.943C321.82 137.967 321.941 138.003 322.049 138.027C322.085 138.027 322.109 138.039 322.134 138.051C322.182 138.051 322.23 138.063 322.266 138.076C322.363 138.088 322.459 138.112 322.556 138.124C322.592 138.124 322.628 138.136 322.677 138.148C322.725 138.148 322.761 138.148 322.81 138.16C322.906 138.16 322.991 138.184 323.087 138.196C323.135 138.196 323.172 138.196 323.22 138.208C323.256 138.208 323.304 138.208 323.341 138.208C323.437 138.208 323.522 138.208 323.618 138.221C323.666 138.221 323.715 138.221 323.751 138.221C323.787 138.221 323.823 138.221 323.86 138.221C323.956 138.221 324.065 138.221 324.161 138.221C324.21 138.221 324.258 138.221 324.306 138.221C324.33 138.221 324.366 138.221 324.391 138.221C324.511 138.221 324.632 138.208 324.765 138.196C324.813 138.196 324.861 138.196 324.91 138.196C324.922 138.196 324.934 138.196 324.958 138.196C325.163 138.172 325.38 138.148 325.573 138.112C325.573 138.112 325.597 138.112 325.61 138.112C325.67 138.112 325.73 138.088 325.791 138.076C325.887 138.051 325.996 138.039 326.092 138.015C326.165 138.003 326.237 137.979 326.31 137.955C326.406 137.93 326.503 137.906 326.587 137.87C326.611 137.87 326.623 137.87 326.647 137.858C326.684 137.858 326.708 137.834 326.744 137.822C326.889 137.773 327.034 137.713 327.166 137.664C327.215 137.64 327.275 137.616 327.323 137.592C327.504 137.507 327.673 137.423 327.842 137.326L359.162 119.095C359.162 119.095 359.21 119.071 359.234 119.059C359.282 119.034 359.331 118.998 359.379 118.962C359.451 118.914 359.512 118.877 359.572 118.829C359.62 118.793 359.681 118.744 359.729 118.708C359.789 118.66 359.849 118.611 359.898 118.575C359.898 118.575 359.922 118.563 359.934 118.551C359.958 118.527 359.97 118.515 359.994 118.49C360.079 118.406 360.151 118.321 360.224 118.237C360.236 118.212 360.26 118.2 360.272 118.188C360.284 118.164 360.296 118.152 360.308 118.128C360.356 118.067 360.393 118.007 360.441 117.934C360.453 117.91 360.477 117.886 360.489 117.85C360.489 117.838 360.501 117.826 360.513 117.813C360.55 117.753 360.574 117.705 360.598 117.644C360.61 117.608 360.634 117.584 360.646 117.547C360.646 117.547 360.646 117.523 360.646 117.511C360.67 117.451 360.682 117.402 360.694 117.342C360.694 117.306 360.718 117.269 360.731 117.233V117.209C360.731 117.149 360.743 117.088 360.755 117.04C360.755 117.003 360.755 116.967 360.767 116.931C360.767 116.919 360.767 116.895 360.767 116.883V115.093C360.767 115.093 360.767 115.202 360.767 115.25Z" fill="url(#paint1_linear_2137_27534)"/>
<path d="M359.174 112.832C361.31 114.065 361.322 116.084 359.198 117.317L327.879 135.548C325.754 136.781 322.291 136.781 320.142 135.548L288.618 117.317C286.482 116.084 286.47 114.065 288.594 112.832L319.913 94.6006C322.037 93.3675 325.501 93.3675 327.637 94.6006L359.162 112.832H359.174Z" fill="url(#paint2_linear_2137_27534)"/>
<path d="M356.699 108.503C356.699 108.503 356.699 108.6 356.687 108.66C356.687 108.697 356.663 108.745 356.651 108.781C356.639 108.83 356.627 108.878 356.614 108.926C356.602 108.963 356.578 109.011 356.566 109.047C356.542 109.096 356.518 109.144 356.494 109.204C356.47 109.241 356.446 109.277 356.433 109.313C356.397 109.374 356.361 109.422 356.325 109.482C356.301 109.519 356.277 109.543 356.24 109.579C356.18 109.652 356.108 109.724 356.035 109.797C356.011 109.821 355.987 109.845 355.951 109.881C355.902 109.918 355.854 109.966 355.806 110.002C355.758 110.039 355.721 110.075 355.673 110.111C355.613 110.147 355.552 110.184 355.504 110.232C355.444 110.268 355.383 110.317 355.323 110.353L327.456 126.577C327.311 126.662 327.154 126.734 326.997 126.807C326.949 126.831 326.9 126.843 326.864 126.867C326.744 126.916 326.611 126.964 326.478 127.012C326.43 127.024 326.381 127.049 326.333 127.061C326.249 127.085 326.164 127.109 326.08 127.133C326.019 127.145 325.959 127.169 325.887 127.182C325.802 127.206 325.706 127.218 325.621 127.242C325.561 127.254 325.5 127.266 325.44 127.278C325.259 127.315 325.078 127.339 324.885 127.351C324.825 127.351 324.764 127.351 324.716 127.363C324.607 127.363 324.499 127.375 324.39 127.387C324.318 127.387 324.245 127.387 324.185 127.387C324.1 127.387 324.004 127.387 323.919 127.387C323.847 127.387 323.775 127.387 323.702 127.387C323.618 127.387 323.533 127.387 323.461 127.375C323.388 127.375 323.316 127.375 323.231 127.351C323.147 127.351 323.075 127.339 322.99 127.327C322.918 127.327 322.845 127.302 322.773 127.29C322.688 127.278 322.604 127.266 322.519 127.242C322.447 127.23 322.387 127.218 322.314 127.206C322.206 127.182 322.109 127.157 322.012 127.133C321.952 127.121 321.904 127.109 321.843 127.085C321.662 127.037 321.493 126.976 321.324 126.904C321.3 126.904 321.276 126.879 321.252 126.879C321.023 126.783 320.793 126.686 320.588 126.565L292.54 110.341C291.586 109.785 291.104 109.059 291.104 108.334V109.918C291.104 110.643 291.574 111.368 292.528 111.925L320.576 128.149C320.781 128.27 320.999 128.366 321.24 128.463C321.252 128.463 321.264 128.475 321.288 128.487H321.312C321.481 128.548 321.65 128.608 321.831 128.669C321.843 128.669 321.856 128.669 321.868 128.681C321.904 128.681 321.952 128.705 321.988 128.717C322.085 128.741 322.193 128.765 322.29 128.789C322.314 128.789 322.338 128.802 322.375 128.814C322.411 128.814 322.459 128.826 322.495 128.838C322.58 128.85 322.664 128.874 322.749 128.886C322.785 128.886 322.821 128.898 322.857 128.898C322.893 128.898 322.93 128.898 322.978 128.91C323.062 128.91 323.135 128.935 323.219 128.935C323.256 128.935 323.292 128.935 323.34 128.947C323.376 128.947 323.412 128.947 323.449 128.947C323.533 128.947 323.618 128.947 323.69 128.959C323.726 128.959 323.775 128.959 323.811 128.959C323.847 128.959 323.871 128.959 323.907 128.959C323.992 128.959 324.088 128.959 324.173 128.959C324.221 128.959 324.257 128.959 324.306 128.959C324.33 128.959 324.354 128.959 324.39 128.959C324.499 128.959 324.607 128.947 324.716 128.935C324.764 128.935 324.8 128.935 324.849 128.935C324.861 128.935 324.873 128.935 324.885 128.935C325.066 128.91 325.259 128.886 325.44 128.862H325.464C325.512 128.862 325.573 128.838 325.621 128.826C325.706 128.814 325.802 128.789 325.887 128.765C325.947 128.753 326.019 128.729 326.08 128.717C326.164 128.693 326.249 128.669 326.333 128.644C326.345 128.644 326.369 128.644 326.393 128.632C326.418 128.632 326.454 128.608 326.478 128.596C326.611 128.548 326.731 128.499 326.864 128.451C326.912 128.427 326.961 128.415 327.009 128.391C327.166 128.318 327.323 128.245 327.468 128.161L355.335 111.937C355.335 111.937 355.371 111.912 355.396 111.9C355.444 111.876 355.48 111.84 355.516 111.816C355.577 111.78 355.637 111.743 355.685 111.695C355.733 111.659 355.782 111.622 355.818 111.586C355.866 111.55 355.914 111.501 355.963 111.465C355.963 111.465 355.987 111.453 355.987 111.441C356.011 111.429 356.023 111.405 356.035 111.393C356.108 111.32 356.18 111.248 356.24 111.175C356.252 111.163 356.277 111.139 356.289 111.127C356.301 111.115 356.313 111.09 356.325 111.078C356.361 111.018 356.409 110.97 356.433 110.909C356.446 110.885 356.47 110.861 356.482 110.837C356.482 110.824 356.482 110.812 356.494 110.8C356.518 110.752 356.542 110.704 356.566 110.643C356.578 110.619 356.59 110.583 356.602 110.558C356.602 110.558 356.602 110.534 356.602 110.522C356.615 110.474 356.627 110.425 356.639 110.377C356.639 110.341 356.663 110.317 356.663 110.28C356.663 110.28 356.663 110.268 356.663 110.256C356.663 110.208 356.675 110.147 356.675 110.099C356.675 110.063 356.675 110.039 356.675 110.002C356.675 109.99 356.675 109.978 356.675 109.954V108.37C356.675 108.37 356.675 108.467 356.675 108.515L356.699 108.503Z" fill="url(#paint3_linear_2137_27534)"/>
<path d="M355.275 106.352C357.182 107.452 357.194 109.241 355.299 110.342L327.431 126.566C325.537 127.666 322.459 127.666 320.552 126.566L292.504 110.342C290.597 109.241 290.597 107.452 292.479 106.352L320.347 90.1278C322.242 89.0277 325.319 89.0277 327.226 90.1278L355.275 106.352Z" fill="url(#paint4_linear_2137_27534)"/>
<path d="M353.079 103.162C353.079 103.162 353.079 103.259 353.067 103.295C353.067 103.332 353.055 103.368 353.043 103.404C353.043 103.452 353.019 103.489 353.007 103.537C352.995 103.573 352.983 103.61 352.959 103.646C352.934 103.694 352.922 103.73 352.898 103.779C352.886 103.815 352.862 103.839 352.838 103.876C352.802 103.924 352.778 103.972 352.741 104.033C352.717 104.057 352.693 104.093 352.669 104.117C352.609 104.19 352.548 104.25 352.488 104.311C352.464 104.335 352.44 104.359 352.416 104.383C352.379 104.42 352.331 104.456 352.283 104.492C352.247 104.528 352.21 104.553 352.162 104.589C352.114 104.625 352.065 104.661 352.005 104.698C351.957 104.734 351.897 104.77 351.836 104.806L327.046 119.241C326.914 119.314 326.781 119.386 326.636 119.447C326.6 119.471 326.551 119.483 326.515 119.495C326.407 119.544 326.286 119.58 326.177 119.628C326.141 119.64 326.093 119.652 326.057 119.677C325.984 119.701 325.912 119.725 325.839 119.737C325.779 119.749 325.731 119.773 325.67 119.785C325.586 119.81 325.514 119.822 325.429 119.834C325.381 119.834 325.32 119.858 325.272 119.87C325.115 119.894 324.946 119.918 324.777 119.943C324.729 119.943 324.681 119.943 324.62 119.955C324.524 119.955 324.427 119.967 324.331 119.979C324.27 119.979 324.21 119.979 324.15 119.979C324.065 119.979 323.993 119.979 323.908 119.979C323.848 119.979 323.776 119.979 323.715 119.979C323.643 119.979 323.57 119.979 323.498 119.979C323.426 119.979 323.365 119.979 323.293 119.967C323.22 119.967 323.148 119.955 323.076 119.943C323.015 119.943 322.943 119.93 322.882 119.918C322.81 119.918 322.726 119.894 322.653 119.882C322.593 119.882 322.532 119.858 322.472 119.846C322.376 119.822 322.291 119.797 322.207 119.773C322.158 119.761 322.11 119.749 322.062 119.737C321.905 119.689 321.748 119.64 321.591 119.58C321.567 119.58 321.555 119.568 321.531 119.556C321.326 119.471 321.132 119.374 320.939 119.278L295.98 104.843C295.124 104.347 294.701 103.706 294.701 103.053V104.468C294.701 105.109 295.124 105.762 295.968 106.257L320.927 120.692C321.108 120.801 321.313 120.886 321.519 120.97C321.531 120.97 321.543 120.982 321.555 120.994C321.555 120.994 321.567 120.994 321.579 120.994C321.724 121.055 321.881 121.103 322.05 121.152C322.062 121.152 322.074 121.152 322.086 121.164C322.122 121.164 322.158 121.176 322.195 121.188C322.279 121.212 322.376 121.236 322.46 121.248C322.484 121.248 322.508 121.26 322.532 121.26C322.569 121.26 322.605 121.272 322.641 121.285C322.713 121.297 322.798 121.309 322.87 121.321C322.907 121.321 322.931 121.321 322.967 121.333C323.003 121.333 323.039 121.333 323.064 121.333C323.136 121.333 323.208 121.345 323.281 121.357C323.317 121.357 323.353 121.357 323.389 121.357C323.426 121.357 323.45 121.357 323.486 121.357C323.558 121.357 323.631 121.357 323.703 121.357C323.739 121.357 323.776 121.357 323.812 121.357C323.836 121.357 323.872 121.357 323.896 121.357C323.981 121.357 324.053 121.357 324.138 121.357C324.174 121.357 324.222 121.357 324.258 121.357C324.282 121.357 324.307 121.357 324.331 121.357C324.427 121.357 324.524 121.357 324.62 121.333C324.657 121.333 324.705 121.333 324.741 121.333C324.753 121.333 324.765 121.333 324.777 121.333C324.946 121.321 325.103 121.297 325.272 121.26C325.272 121.26 325.284 121.26 325.296 121.26C325.345 121.26 325.393 121.236 325.441 121.224C325.526 121.212 325.598 121.188 325.682 121.176C325.743 121.164 325.803 121.139 325.851 121.127C325.924 121.103 325.996 121.091 326.069 121.067C326.081 121.067 326.105 121.067 326.117 121.055C326.141 121.055 326.165 121.031 326.189 121.031C326.31 120.994 326.419 120.946 326.527 120.898C326.564 120.886 326.612 120.861 326.648 120.849C326.793 120.789 326.926 120.716 327.058 120.644L351.848 106.209C351.848 106.209 351.884 106.185 351.897 106.173C351.933 106.148 351.969 106.124 352.005 106.1C352.053 106.064 352.114 106.028 352.162 105.991C352.21 105.955 352.247 105.931 352.283 105.895C352.331 105.858 352.379 105.822 352.416 105.786C352.416 105.786 352.44 105.774 352.44 105.762C352.452 105.749 352.464 105.725 352.488 105.713C352.56 105.653 352.621 105.58 352.669 105.52C352.681 105.508 352.693 105.496 352.705 105.471C352.705 105.459 352.729 105.447 352.729 105.423C352.765 105.375 352.802 105.326 352.826 105.266C352.838 105.242 352.862 105.23 352.874 105.205C352.874 105.205 352.874 105.181 352.886 105.169C352.91 105.121 352.934 105.085 352.947 105.036C352.947 105.012 352.971 104.988 352.983 104.964V104.939C352.995 104.891 353.007 104.855 353.019 104.806C353.019 104.782 353.043 104.746 353.043 104.722C353.043 104.722 353.043 104.71 353.043 104.698C353.043 104.649 353.043 104.601 353.055 104.565C353.055 104.54 353.055 104.504 353.055 104.48C353.055 104.468 353.055 104.456 353.055 104.444V103.029C353.055 103.029 353.055 103.114 353.055 103.15L353.079 103.162Z" fill="url(#paint5_linear_2137_27534)"/>
<path d="M351.812 101.251C353.502 102.231 353.514 103.826 351.836 104.806L327.046 119.241C325.357 120.22 322.617 120.22 320.927 119.241L295.969 104.806C294.279 103.826 294.267 102.231 295.957 101.251L320.746 86.8165C322.424 85.8372 325.176 85.8372 326.865 86.8165L351.824 101.251H351.812Z" fill="url(#paint6_linear_2137_27534)"/>
<path d="M346.042 100.162C347.382 100.936 347.394 102.205 346.066 102.979L326.406 114.428C325.066 115.201 322.894 115.201 321.554 114.428L301.761 102.979C300.421 102.205 300.409 100.936 301.749 100.162L321.409 88.7131C322.749 87.9394 324.921 87.9394 326.261 88.7131L346.054 100.162H346.042Z" fill="#69E2F3"/>
<path d="M301.737 101.734L321.397 90.2848C322.737 89.511 324.909 89.511 326.249 90.2848L346.042 101.734C346.368 101.915 346.61 102.133 346.779 102.362C347.322 101.637 347.08 100.754 346.042 100.162L326.249 88.7131C324.909 87.9394 322.737 87.9394 321.397 88.7131L301.737 100.162C300.723 100.754 300.482 101.625 301.025 102.35C301.194 102.12 301.423 101.915 301.737 101.734Z" fill="#1BCFF2"/>
<path d="M347.056 101.517V64.3896C347.056 64.3896 347.056 64.3534 347.056 64.3292V64.3171C347.032 63.8214 346.706 63.3378 346.055 62.951L326.261 51.5022C324.922 50.7284 322.749 50.7284 321.409 51.5022L301.737 62.951C301.085 63.3257 300.759 63.8214 300.747 64.3171V64.3413C300.747 64.3413 300.747 64.3655 300.747 64.3896V101.529C300.723 102.061 301.049 102.593 301.749 102.992L321.542 114.44C322.882 115.214 325.066 115.214 326.406 114.44L346.079 102.992C346.767 102.593 347.092 102.061 347.068 101.529L347.056 101.517Z" fill="url(#paint7_linear_2137_27534)"/>
<path fill-rule="evenodd" clip-rule="evenodd" d="M324.53 100.106C317.12 96.6205 311.115 86.9419 311.115 78.4117C311.115 75.2128 311.966 72.6702 313.372 70.9067L312.222 71.2348L314.948 69.4303C314.99 69.3893 315.043 69.3585 315.097 69.3278C315.15 69.297 315.203 69.2663 315.246 69.2252L315.331 69.1432C317.758 67.6668 320.995 67.5438 324.53 69.2252C331.941 72.7112 337.946 82.3897 337.946 90.92C337.946 94.98 336.583 98.0148 334.368 99.7373L334.326 99.7783C334.198 99.8603 334.081 99.9424 333.963 100.024C333.846 100.106 333.729 100.188 333.601 100.27L330.961 102.075L331.089 101.214C329.13 101.542 326.915 101.214 324.53 100.106ZM324.53 76.2381C320.484 74.3516 317.205 76.5662 317.205 81.2414C317.205 85.8756 320.484 91.207 324.53 93.1346C328.576 95.0211 331.855 92.8065 331.855 88.1312C331.855 83.456 328.576 78.1246 324.53 76.2381Z" fill="url(#paint8_linear_2137_27534)"/>
<path fill-rule="evenodd" clip-rule="evenodd" d="M308.091 80.5852C308.091 72.096 314.096 67.9949 321.506 71.4398C328.874 74.8847 334.879 84.6043 334.922 93.1346C334.922 101.624 328.917 105.725 321.506 102.28C314.096 98.794 308.091 89.1155 308.091 80.5852ZM314.181 83.374C314.181 88.0492 317.46 93.3806 321.506 95.2671C325.552 97.1946 328.832 94.939 328.832 90.2638C328.832 85.5886 325.552 80.2572 321.506 78.3707C317.46 76.4842 314.181 78.6987 314.181 83.374Z" fill="url(#paint9_linear_2137_27534)"/>
<ellipse cx="10.0133" cy="15.7174" rx="10.0133" ry="15.7174" transform="matrix(0.891521 -0.45298 0.481815 0.876273 305 77.4545)" fill="url(#paint10_linear_2137_27534)"/>
<path fill-rule="evenodd" clip-rule="evenodd" d="M323.807 89.4236L317.279 85.5919C316.563 87.2934 315.653 89.4034 314.905 91.084C314.82 91.207 314.692 91.207 314.522 91.125C314.266 91.002 314.224 90.92 314.224 90.6739V90.5919L316.557 85.168L314.479 83.9481C314.351 83.8661 314.266 83.7021 314.266 83.538V83.1689C314.266 83.0049 314.351 82.9639 314.479 83.0049L316.881 84.415L317.676 82.5685L315.629 81.3644C315.501 81.2824 315.416 81.1184 315.416 80.9543V80.5442C315.416 80.3802 315.501 80.3392 315.629 80.3802L318.014 81.783L319.888 77.4274C320.058 77.0993 320.484 76.8533 320.867 77.0993C321.293 77.3454 321.506 77.8375 321.634 78.3296L323.583 85.059L325.808 86.3678C325.935 86.4498 326.021 86.6138 326.021 86.7779V87.147C326.021 87.352 325.935 87.434 325.808 87.352L323.926 86.2453L324.731 89.0226L326.915 90.3048C327.043 90.3868 327.128 90.5509 327.128 90.7149V91.084C327.171 91.248 327.043 91.3301 326.915 91.248L325.06 90.159L327.085 97.1536C327.213 97.4817 327.384 98.0148 327.043 98.0969C326.574 98.2199 326.361 97.8918 326.276 97.6047L323.807 89.4236ZM322.757 85.5572L323.534 88.3204L317.677 84.8821L318.447 83.0222L322.757 85.5572ZM322.424 84.3776L318.775 82.2307L320.271 78.6167C320.484 78.0426 320.697 78.2886 320.953 79.1499L322.424 84.3776Z" fill="white"/>
<path d="M136.512 116.736C136.512 116.833 136.5 116.93 136.476 117.026C136.464 117.111 136.44 117.184 136.416 117.256C136.392 117.353 136.368 117.437 136.343 117.534C136.319 117.607 136.283 117.679 136.247 117.764C136.211 117.861 136.162 117.957 136.114 118.054C136.078 118.127 136.03 118.187 135.993 118.26C135.921 118.368 135.861 118.477 135.776 118.586C135.728 118.646 135.68 118.707 135.631 118.767C135.511 118.912 135.378 119.045 135.245 119.19C135.197 119.239 135.149 119.287 135.1 119.336C135.016 119.42 134.919 119.493 134.823 119.565C134.738 119.638 134.654 119.698 134.569 119.771C134.461 119.843 134.352 119.916 134.243 119.988C134.123 120.061 134.014 120.146 133.893 120.218L81.3206 150.829C81.043 150.986 80.7533 151.131 80.4516 151.264C80.3671 151.3 80.2826 151.337 80.1861 151.373C79.9568 151.47 79.7154 151.566 79.4619 151.651C79.3774 151.675 79.293 151.711 79.1964 151.736C79.0395 151.784 78.8826 151.832 78.7257 151.868C78.605 151.905 78.4843 151.941 78.3636 151.965C78.1947 152.001 78.0257 152.038 77.8567 152.074C77.7481 152.098 77.6274 152.122 77.5188 152.147C77.1809 152.207 76.8309 152.255 76.4688 152.292C76.3602 152.292 76.2515 152.316 76.1429 152.316C75.9378 152.328 75.7326 152.352 75.5153 152.352C75.3826 152.352 75.2498 152.352 75.1171 152.352C74.9481 152.352 74.7791 152.352 74.6102 152.352C74.4653 152.352 74.3326 152.352 74.1877 152.352C74.0308 152.352 73.8739 152.34 73.717 152.328C73.5722 152.328 73.4395 152.304 73.2946 152.292C73.1377 152.28 72.9929 152.255 72.836 152.243C72.7032 152.231 72.5584 152.207 72.4257 152.183C72.2567 152.159 72.0998 152.134 71.9429 152.098C71.8222 152.074 71.6894 152.05 71.5687 152.026C71.3756 151.977 71.1825 151.941 70.9894 151.881C70.8808 151.856 70.7843 151.832 70.6756 151.796C70.3377 151.699 70.0118 151.59 69.686 151.457C69.6377 151.445 69.6015 151.421 69.5532 151.397C69.1187 151.216 68.6963 151.022 68.3101 150.805L15.3872 120.206C13.5768 119.166 12.6837 117.788 12.6837 116.422V119.42C12.6716 120.786 13.5768 122.164 15.3751 123.204L68.298 153.815C68.6842 154.045 69.1067 154.238 69.5411 154.407C69.5653 154.407 69.5894 154.431 69.6256 154.444C69.6377 154.444 69.6618 154.444 69.6739 154.456C69.9877 154.577 70.3256 154.685 70.6636 154.794C70.6877 154.794 70.7118 154.818 70.7481 154.818C70.8205 154.843 70.9049 154.855 70.9774 154.879C71.1705 154.927 71.3515 154.976 71.5446 155.024C71.5929 155.024 71.6412 155.048 71.7015 155.06C71.7739 155.072 71.8584 155.084 71.9308 155.096C72.0877 155.133 72.2567 155.157 72.4136 155.181C72.4739 155.181 72.5463 155.205 72.6067 155.217C72.6791 155.217 72.7515 155.229 72.8239 155.241C72.9808 155.266 73.1257 155.278 73.2826 155.29C73.355 155.29 73.4274 155.314 73.4998 155.314C73.5722 155.314 73.6326 155.314 73.705 155.314C73.8619 155.314 74.0188 155.338 74.1757 155.338C74.2481 155.338 74.3326 155.338 74.405 155.35C74.4653 155.35 74.5257 155.35 74.586 155.35C74.755 155.35 74.924 155.35 75.0929 155.35C75.1774 155.35 75.2619 155.35 75.3464 155.35C75.3946 155.35 75.4429 155.35 75.4912 155.35C75.6964 155.35 75.9015 155.326 76.1067 155.314C76.1912 155.314 76.2757 155.314 76.3602 155.302C76.3843 155.302 76.4084 155.302 76.4326 155.302C76.7826 155.266 77.1326 155.217 77.4705 155.157C77.4826 155.157 77.5067 155.157 77.5188 155.157C77.6154 155.133 77.7119 155.108 77.8205 155.096C77.9895 155.06 78.1585 155.024 78.3274 154.988C78.4481 154.963 78.5688 154.927 78.6895 154.891C78.8464 154.843 79.0033 154.806 79.1602 154.758C79.1964 154.758 79.2326 154.734 79.2567 154.734C79.3171 154.71 79.3654 154.685 79.4257 154.673C79.6671 154.589 79.9085 154.504 80.1499 154.395C80.2344 154.359 80.3309 154.323 80.4154 154.286C80.7171 154.153 81.0068 154.008 81.2844 153.851L133.857 123.24C133.857 123.24 133.93 123.192 133.966 123.18C134.05 123.132 134.123 123.071 134.207 123.023C134.316 122.95 134.437 122.878 134.533 122.805C134.63 122.745 134.702 122.672 134.787 122.6C134.883 122.527 134.98 122.443 135.064 122.37C135.076 122.358 135.1 122.334 135.125 122.322C135.161 122.285 135.185 122.249 135.221 122.225C135.366 122.092 135.487 121.947 135.607 121.802C135.631 121.766 135.668 121.741 135.692 121.705C135.716 121.669 135.728 121.645 135.752 121.608C135.837 121.5 135.897 121.391 135.969 121.282C135.993 121.234 136.03 121.197 136.054 121.149C136.066 121.125 136.078 121.101 136.09 121.076C136.138 120.98 136.187 120.883 136.223 120.786C136.247 120.726 136.283 120.677 136.295 120.617C136.295 120.593 136.295 120.581 136.307 120.557C136.343 120.46 136.368 120.375 136.392 120.279C136.404 120.218 136.428 120.158 136.44 120.097C136.44 120.085 136.44 120.061 136.44 120.049C136.452 119.952 136.464 119.855 136.476 119.759C136.476 119.698 136.5 119.638 136.5 119.577C136.5 119.553 136.5 119.529 136.5 119.493V116.494C136.5 116.579 136.5 116.676 136.488 116.76L136.512 116.736Z" fill="url(#paint11_linear_2137_27534)"/>
<path d="M133.821 112.674C137.418 114.754 137.43 118.127 133.87 120.206L81.2968 150.817C77.7243 152.896 71.9071 152.896 68.3105 150.817L15.3876 120.206C11.803 118.127 11.7789 114.754 15.3514 112.674L67.9243 82.0635C71.4967 79.9841 77.3019 79.9841 80.8985 82.0635L133.821 112.674Z" fill="url(#paint12_linear_2137_27534)"/>
<path d="M118.288 110.161C118.288 110.161 118.276 110.21 118.264 110.234C118.192 110.439 118.083 110.645 117.95 110.838C117.926 110.875 117.902 110.911 117.878 110.947C117.733 111.153 117.564 111.346 117.347 111.527C117.323 111.552 117.298 111.564 117.274 111.588C117.045 111.781 116.792 111.963 116.502 112.132L79.3171 133.772C79.0395 133.941 78.7257 134.074 78.4119 134.207C78.3274 134.244 78.243 134.268 78.1585 134.304C77.9654 134.377 77.7602 134.437 77.555 134.485C77.3378 134.546 77.1326 134.606 76.9033 134.643C76.6378 134.691 76.3843 134.739 76.1067 134.776C76.0464 134.776 75.974 134.8 75.9136 134.8C75.5516 134.836 75.1895 134.86 74.8153 134.86C74.755 134.86 74.6946 134.86 74.6464 134.86C74.2843 134.86 73.9222 134.836 73.5722 134.8C73.5239 134.8 73.4636 134.8 73.4153 134.788C73.0653 134.739 72.7153 134.691 72.3653 134.606C72.305 134.594 72.2446 134.582 72.1843 134.558C71.8705 134.485 71.5688 134.389 71.2791 134.28C71.2308 134.256 71.1705 134.244 71.1222 134.219C70.7722 134.086 70.4463 133.929 70.1325 133.748L32.7063 112.108C31.427 111.37 30.7994 110.403 30.7994 109.436L30.7753 116.146C30.7753 117.113 31.4149 118.08 32.6822 118.817L70.1084 140.458C70.398 140.627 70.7118 140.772 71.0377 140.905C71.0498 140.905 71.0739 140.905 71.086 140.917C71.1343 140.941 71.1946 140.953 71.2429 140.965C71.436 141.038 71.617 141.098 71.8222 141.159C71.9308 141.195 72.0394 141.207 72.1481 141.243C72.2084 141.256 72.2688 141.28 72.3291 141.292C72.3895 141.304 72.4377 141.316 72.4981 141.328C72.7153 141.376 72.9205 141.413 73.1377 141.437C73.2101 141.437 73.2946 141.449 73.3671 141.461C73.4153 141.461 73.4757 141.473 73.5239 141.485C73.6084 141.485 73.6808 141.509 73.7653 141.509C73.9826 141.522 74.1877 141.534 74.405 141.546C74.4774 141.546 74.5377 141.546 74.6102 141.546C74.6705 141.546 74.7309 141.546 74.7791 141.546C74.8757 141.546 74.9722 141.546 75.0688 141.546C75.3102 141.546 75.5516 141.522 75.7929 141.497C75.8171 141.497 75.8412 141.497 75.8774 141.497C75.9378 141.497 76.0102 141.473 76.0705 141.473C76.2516 141.449 76.4447 141.425 76.6257 141.401C76.7102 141.389 76.7826 141.364 76.855 141.34C77.0723 141.292 77.2895 141.243 77.5067 141.183C77.6154 141.147 77.7361 141.135 77.8567 141.098C77.9533 141.074 78.0257 141.026 78.1223 141.002C78.2068 140.965 78.2912 140.941 78.3757 140.905C78.6895 140.772 79.0033 140.639 79.2809 140.47L116.466 118.829C116.466 118.829 116.514 118.793 116.55 118.781C116.816 118.624 117.033 118.455 117.238 118.273C117.262 118.249 117.286 118.237 117.311 118.213C117.323 118.201 117.347 118.189 117.371 118.165C117.528 118.019 117.661 117.874 117.769 117.729C117.793 117.693 117.817 117.657 117.842 117.62C117.866 117.584 117.89 117.548 117.914 117.512C117.95 117.451 117.999 117.391 118.035 117.33C118.107 117.209 118.155 117.089 118.204 116.956C118.204 116.931 118.204 116.919 118.216 116.895C118.216 116.871 118.228 116.847 118.24 116.823C118.264 116.738 118.288 116.665 118.312 116.581C118.336 116.46 118.349 116.327 118.361 116.206C118.361 116.182 118.361 116.17 118.361 116.146L118.385 109.436C118.385 109.653 118.336 109.883 118.276 110.101L118.288 110.161Z" fill="url(#paint13_linear_2137_27534)"/>
<path d="M116.49 108.154C119.036 109.629 119.049 112.011 116.526 113.474L79.3413 135.114C76.8188 136.589 72.7033 136.589 70.1567 135.114L32.7305 113.474C30.196 112.011 30.1839 109.617 32.7063 108.154L69.8912 86.5141C72.4136 85.0392 76.5292 85.0512 79.0637 86.5141L116.49 108.154Z" fill="url(#paint14_linear_2137_27534)"/>
<path opacity="0.7" d="M116.49 106.812C119.036 108.287 119.048 110.669 116.526 112.132L79.3411 133.772C76.8187 135.247 72.7031 135.247 70.1566 133.772L32.7303 112.132C30.1958 110.669 30.1838 108.275 32.7062 106.812L69.891 85.1721C72.4135 83.6972 76.529 83.7093 79.0635 85.1721L116.49 106.812Z" fill="#52FCFF"/>
<path d="M111.023 101.831C113.232 103.112 113.256 105.179 111.059 106.461L78.7381 125.272C76.5415 126.554 72.969 126.554 70.7604 125.272L38.2342 106.461C36.0256 105.191 36.0135 103.112 38.2101 101.831L70.5311 83.0192C72.7277 81.7378 76.3001 81.7498 78.4967 83.0192L111.023 101.831Z" fill="#EEEEEE"/>
<path d="M118.288 96.2704C118.288 96.2704 118.276 96.3187 118.264 96.3429C118.192 96.5484 118.083 96.7539 117.95 96.9474C117.926 96.9836 117.902 97.0199 117.878 97.0562C117.733 97.2617 117.564 97.4551 117.347 97.6365C117.323 97.6607 117.298 97.6727 117.274 97.6969C117.045 97.8904 116.792 98.0717 116.502 98.241L79.3171 119.881C79.0395 120.05 78.7257 120.183 78.4119 120.316C78.3274 120.353 78.243 120.377 78.1585 120.413C77.9654 120.486 77.7602 120.546 77.555 120.595C77.3378 120.655 77.1326 120.715 76.9033 120.752C76.6378 120.8 76.3843 120.848 76.1067 120.885C76.0464 120.885 75.974 120.909 75.9136 120.909C75.5516 120.945 75.1895 120.969 74.8153 120.969C74.755 120.969 74.6946 120.969 74.6464 120.969C74.2843 120.969 73.9222 120.945 73.5722 120.909C73.5239 120.909 73.4636 120.909 73.4153 120.897C73.0653 120.848 72.7153 120.8 72.3653 120.715C72.305 120.703 72.2446 120.691 72.1843 120.667C71.8705 120.595 71.5688 120.498 71.2791 120.389C71.2308 120.365 71.1705 120.353 71.1222 120.329C70.7722 120.196 70.4463 120.038 70.1325 119.857L32.7063 98.2168C31.427 97.4793 30.7994 96.5121 30.7994 95.545L30.7753 102.255C30.7753 103.222 31.4149 104.189 32.6822 104.926L70.1084 126.567C70.398 126.736 70.7118 126.881 71.0377 127.014C71.0498 127.014 71.0739 127.014 71.086 127.038C71.1343 127.062 71.1946 127.075 71.2429 127.087C71.436 127.159 71.617 127.22 71.8222 127.28C71.9308 127.316 72.0394 127.328 72.1481 127.365C72.2084 127.377 72.2688 127.401 72.3291 127.413C72.3895 127.425 72.4377 127.437 72.4981 127.449C72.7153 127.498 72.9205 127.534 73.1377 127.558C73.2101 127.558 73.2946 127.57 73.3671 127.582C73.4153 127.582 73.4757 127.594 73.5239 127.606C73.6084 127.606 73.6808 127.631 73.7653 127.631C73.9826 127.643 74.1877 127.655 74.405 127.667C74.4774 127.667 74.5377 127.667 74.6102 127.667C74.6705 127.667 74.7309 127.667 74.7791 127.667C74.8757 127.667 74.9722 127.667 75.0688 127.667C75.3102 127.667 75.5516 127.643 75.7929 127.619C75.8171 127.619 75.8412 127.619 75.8774 127.619C75.9378 127.619 76.0102 127.594 76.0705 127.594C76.2516 127.57 76.4447 127.546 76.6257 127.522C76.7102 127.51 76.7826 127.486 76.855 127.461C77.0723 127.413 77.2895 127.365 77.5067 127.304C77.6154 127.268 77.7361 127.256 77.8567 127.22C77.9533 127.195 78.0257 127.147 78.1223 127.123C78.2068 127.087 78.2912 127.062 78.3757 127.026C78.6895 126.893 79.0033 126.76 79.2809 126.591L116.466 104.951C116.466 104.951 116.514 104.914 116.55 104.902C116.816 104.745 117.033 104.576 117.238 104.395C117.262 104.37 117.286 104.358 117.311 104.334C117.323 104.322 117.347 104.298 117.371 104.286C117.528 104.141 117.661 103.996 117.769 103.851C117.793 103.814 117.817 103.778 117.842 103.742C117.866 103.705 117.89 103.669 117.914 103.633C117.95 103.572 117.999 103.512 118.035 103.452C118.107 103.331 118.155 103.21 118.204 103.077C118.204 103.053 118.204 103.041 118.216 103.016C118.216 102.992 118.228 102.968 118.24 102.944C118.264 102.859 118.288 102.787 118.312 102.702C118.336 102.581 118.349 102.448 118.361 102.327C118.361 102.303 118.361 102.291 118.361 102.267L118.385 95.5571C118.385 95.7747 118.336 96.0044 118.276 96.222L118.288 96.2704Z" fill="url(#paint15_linear_2137_27534)"/>
<path d="M116.49 94.2514C119.036 95.7263 119.049 98.108 116.526 99.5708L79.3413 121.211C76.8188 122.686 72.7033 122.686 70.1567 121.211L32.7305 99.5708C30.196 98.108 30.1839 95.7142 32.7063 94.2514L69.8912 72.6111C72.4136 71.1362 76.5292 71.1483 79.0637 72.6111L116.49 94.2514Z" fill="url(#paint16_linear_2137_27534)"/>
<path opacity="0.7" d="M116.49 92.9216C119.036 94.3965 119.048 96.7781 116.526 98.241L79.3411 119.881C76.8187 121.356 72.7031 121.356 70.1566 119.881L32.7303 98.241C30.1958 96.7781 30.1838 94.3844 32.7062 92.9216L69.891 71.2813C72.4135 69.8063 76.529 69.8184 79.0635 71.2813L116.49 92.9216Z" fill="#52FCFF"/>
<path d="M111.023 87.9397C113.232 89.2212 113.256 91.2885 111.059 92.57L78.7381 111.381C76.5415 112.663 72.969 112.663 70.7604 111.381L38.2342 92.57C36.0256 91.3006 36.0135 89.2212 38.2101 87.9397L70.5311 69.1284C72.7277 67.8469 76.3001 67.859 78.4967 69.1284L111.023 87.9397Z" fill="#EEEEEE"/>
<path d="M118.288 82.3798C118.288 82.3798 118.276 82.4282 118.264 82.4524C118.192 82.6579 118.083 82.8634 117.95 83.0568C117.926 83.0931 117.902 83.1294 117.878 83.1656C117.733 83.3712 117.564 83.5646 117.347 83.7459C117.323 83.7701 117.299 83.7822 117.274 83.8064C117.045 83.9998 116.792 84.1812 116.502 84.3504L79.3172 105.991C79.0396 106.16 78.7258 106.293 78.412 106.426C78.3276 106.462 78.2431 106.486 78.1586 106.523C77.9655 106.595 77.7603 106.656 77.5551 106.704C77.3379 106.764 77.1327 106.825 76.9034 106.861C76.6379 106.91 76.3844 106.958 76.1068 106.994C76.0465 106.994 75.9741 107.018 75.9137 107.018C75.5517 107.055 75.1896 107.079 74.8155 107.079C74.7551 107.079 74.6948 107.079 74.6465 107.079C74.2844 107.079 73.9223 107.055 73.5723 107.018C73.5241 107.018 73.4637 107.018 73.4154 107.006C73.0654 106.958 72.7154 106.91 72.3654 106.825C72.3051 106.813 72.2447 106.801 72.1844 106.777C71.8706 106.704 71.5689 106.607 71.2792 106.498C71.2309 106.474 71.1706 106.462 71.1223 106.438C70.7723 106.305 70.4465 106.148 70.1327 105.967L32.7064 84.3262C31.4271 83.5888 30.7995 82.6216 30.7995 81.6544L30.7754 88.3641C30.7754 89.3313 31.4151 90.2985 32.6823 91.0359L70.1085 112.676C70.3982 112.845 70.712 112.991 71.0378 113.124C71.0499 113.124 71.074 113.124 71.0861 113.148C71.1344 113.172 71.1947 113.184 71.243 113.196C71.4361 113.269 71.6172 113.329 71.8223 113.39C71.931 113.426 72.0396 113.438 72.1482 113.474C72.2085 113.486 72.2689 113.51 72.3292 113.522C72.3896 113.535 72.4379 113.547 72.4982 113.559C72.7154 113.607 72.9206 113.643 73.1379 113.668C73.2103 113.668 73.2948 113.68 73.3672 113.692C73.4154 113.692 73.4758 113.704 73.5241 113.704C73.6085 113.704 73.681 113.728 73.7655 113.728C73.9827 113.74 74.1879 113.752 74.4051 113.764C74.4775 113.764 74.5379 113.764 74.6103 113.764C74.6706 113.764 74.731 113.764 74.7793 113.764C74.8758 113.764 74.9724 113.764 75.0689 113.764C75.3103 113.764 75.5517 113.74 75.7931 113.716C75.8172 113.716 75.8413 113.716 75.8775 113.716C75.9379 113.716 76.0103 113.692 76.0706 113.692C76.2517 113.668 76.4448 113.643 76.6258 113.619C76.7103 113.607 76.7827 113.583 76.8551 113.559C77.0724 113.51 77.2896 113.462 77.5069 113.402C77.6155 113.365 77.7362 113.353 77.8569 113.317C77.9534 113.293 78.0258 113.244 78.1224 113.22C78.2069 113.184 78.2914 113.16 78.3758 113.124C78.6896 112.991 79.0034 112.858 79.281 112.688L116.466 91.048C116.466 91.048 116.514 91.0118 116.55 90.9997C116.816 90.8425 117.033 90.6732 117.238 90.4919C117.262 90.4677 117.287 90.4556 117.311 90.4315C117.323 90.4194 117.347 90.4073 117.371 90.3831C117.528 90.238 117.661 90.093 117.769 89.9479C117.793 89.9116 117.818 89.8753 117.842 89.8391C117.866 89.8028 117.89 89.7665 117.914 89.7303C117.95 89.6698 117.999 89.6094 118.035 89.5489C118.107 89.428 118.156 89.3071 118.204 89.1741C118.204 89.15 118.204 89.1379 118.216 89.1137C118.216 89.0895 118.228 89.0653 118.24 89.0412C118.264 88.9565 118.288 88.884 118.312 88.7994C118.337 88.6785 118.349 88.5455 118.361 88.4246C118.361 88.4004 118.361 88.3883 118.361 88.3641L118.385 81.6544C118.385 81.8721 118.337 82.1018 118.276 82.3194L118.288 82.3798Z" fill="url(#paint17_linear_2137_27534)"/>
<path d="M116.49 80.3609C119.037 81.8358 119.049 84.2174 116.526 85.6802L79.3414 107.321C76.8189 108.795 72.7034 108.795 70.1568 107.321L32.7306 85.6802C30.1961 84.2174 30.184 81.8237 32.7065 80.3609L69.8913 58.7206C72.4137 57.2456 76.5293 57.2577 79.0638 58.7206L116.49 80.3609Z" fill="url(#paint18_linear_2137_27534)"/>
<path opacity="0.7" d="M116.49 79.031C119.036 80.5059 119.049 82.8876 116.526 84.3504L79.3413 105.991C76.8188 107.466 72.7033 107.466 70.1567 105.991L32.7305 84.3504C30.196 82.8876 30.1839 80.4938 32.7063 79.031L69.8912 57.3907C72.4136 55.9158 76.5292 55.9279 79.0637 57.3907L116.49 79.031Z" fill="#52FCFF"/>
<path d="M111.023 74.0492C113.232 75.3307 113.256 77.398 111.059 78.6795L78.7382 97.4908C76.5416 98.7723 72.9692 98.7723 70.7605 97.4908L38.2344 78.6795C36.0257 77.4101 36.0137 75.3307 38.2102 74.0492L70.5312 55.2378C72.7278 53.9563 76.3002 53.9684 78.4968 55.2378L111.023 74.0492Z" fill="#EEEEEE"/>
<path d="M118.288 68.4867C118.288 68.4867 118.276 68.5351 118.264 68.5593C118.192 68.7648 118.083 68.9703 117.95 69.1637C117.926 69.2 117.902 69.2363 117.878 69.2725C117.733 69.4781 117.564 69.6715 117.347 69.8528C117.323 69.877 117.298 69.8891 117.274 69.9133C117.045 70.1067 116.792 70.2881 116.502 70.4573L79.3171 92.0976C79.0395 92.2669 78.7257 92.3998 78.4119 92.5328C78.3274 92.5691 78.243 92.5933 78.1585 92.6295C77.9654 92.7021 77.7602 92.7625 77.555 92.8109C77.3378 92.8713 77.1326 92.9318 76.9033 92.9681C76.6378 93.0164 76.3843 93.0648 76.1067 93.101C76.0464 93.101 75.974 93.1252 75.9136 93.1252C75.5516 93.1615 75.1895 93.1857 74.8153 93.1857C74.755 93.1857 74.6946 93.1857 74.6464 93.1857C74.2843 93.1857 73.9222 93.1615 73.5722 93.1252C73.5239 93.1252 73.4636 93.1252 73.4153 93.1131C73.0653 93.0648 72.7153 93.0164 72.3653 92.9318C72.305 92.9197 72.2446 92.9076 72.1843 92.8834C71.8705 92.8109 71.5688 92.7142 71.2791 92.6054C71.2308 92.5812 71.1705 92.5691 71.1222 92.557C70.7722 92.424 70.4463 92.2669 70.1325 92.0855L32.7063 70.4452C31.427 69.7078 30.7994 68.7406 30.7994 67.7734L30.7753 74.4831C30.7753 75.4503 31.4149 76.4175 32.6822 77.1549L70.1084 98.7952C70.398 98.9645 70.7118 99.1095 71.0377 99.2425C71.0498 99.2425 71.0739 99.2425 71.086 99.2546C71.1343 99.2788 71.1946 99.2909 71.2429 99.303C71.436 99.3755 71.617 99.436 71.8222 99.4964C71.9308 99.5327 72.0394 99.5448 72.1481 99.581C72.2084 99.5931 72.2688 99.6173 72.3291 99.6294C72.3895 99.6415 72.4377 99.6536 72.4981 99.6657C72.7153 99.714 72.9205 99.7503 73.1377 99.7745C73.2101 99.7745 73.2946 99.7866 73.3671 99.7986C73.4153 99.7986 73.4757 99.8107 73.5239 99.8228C73.6084 99.8228 73.6808 99.847 73.7653 99.847C73.9826 99.8591 74.1877 99.8712 74.405 99.8833C74.4774 99.8833 74.5377 99.8833 74.6102 99.8833C74.6705 99.8833 74.7309 99.8833 74.7791 99.8833C74.8757 99.8833 74.9722 99.8833 75.0688 99.8833C75.3102 99.8833 75.5516 99.8591 75.7929 99.8349C75.8171 99.8349 75.8412 99.8349 75.8774 99.8349C75.9378 99.8349 76.0102 99.8107 76.0705 99.8107C76.2516 99.7866 76.4447 99.7624 76.6257 99.7382C76.7102 99.7261 76.7826 99.7019 76.855 99.6778C77.0723 99.6294 77.2895 99.581 77.5067 99.5206C77.6154 99.4843 77.7361 99.4722 77.8567 99.436C77.9533 99.4118 78.0257 99.3634 78.1223 99.3392C78.2068 99.303 78.2912 99.2788 78.3757 99.2425C78.6895 99.1095 79.0033 98.9766 79.2809 98.8073L116.466 77.167C116.466 77.167 116.514 77.1308 116.55 77.1187C116.816 76.9615 117.033 76.7922 117.238 76.6109C117.262 76.5867 117.286 76.5746 117.311 76.5505C117.323 76.5384 117.347 76.5142 117.371 76.5021C117.528 76.357 117.661 76.2119 117.769 76.0669C117.793 76.0306 117.817 75.9943 117.842 75.9581C117.866 75.9218 117.89 75.8855 117.914 75.8493C117.95 75.7888 117.999 75.7284 118.035 75.6679C118.107 75.547 118.155 75.4261 118.204 75.2931C118.204 75.269 118.204 75.2569 118.216 75.2327C118.216 75.2085 118.228 75.1843 118.24 75.1602C118.264 75.0755 118.288 75.003 118.312 74.9184C118.336 74.7975 118.349 74.6645 118.361 74.5436C118.361 74.5194 118.361 74.5073 118.361 74.4831L118.385 67.7734C118.385 67.991 118.336 68.2208 118.276 68.4384L118.288 68.4867Z" fill="url(#paint19_linear_2137_27534)"/>
<path d="M116.49 65.1267C119.036 66.6016 119.048 68.9833 116.526 70.4461L79.3411 92.0864C76.8187 93.5613 72.7031 93.5613 70.1566 92.0864L32.7303 70.4461C30.1958 68.9833 30.1838 66.5896 32.7062 65.1267L69.891 43.4864C72.4135 42.0115 76.529 42.0236 79.0635 43.4864L116.49 65.1267Z" fill="#E0E0E0"/>
<path d="M116.49 66.4685C119.037 67.9434 119.049 70.3251 116.526 71.7879L79.3415 93.4282C76.8191 94.9031 72.7035 94.9031 70.1569 93.4282L32.7307 71.7879C30.1962 70.3251 30.1841 67.9313 32.7066 66.4685L69.8914 44.8282C72.4138 43.3533 76.5294 43.3654 79.0639 44.8282L116.49 66.4685Z" fill="url(#paint20_linear_2137_27534)"/>
<path opacity="0.7" d="M116.49 65.1267C119.037 66.6016 119.049 68.9833 116.526 70.4461L79.3415 92.0864C76.8191 93.5613 72.7035 93.5613 70.1569 92.0864L32.7307 70.4461C30.1962 68.9833 30.1841 66.5896 32.7066 65.1267L69.8914 43.4864C72.4138 42.0115 76.5294 42.0236 79.0639 43.4864L116.49 65.1267Z" fill="#52FCFF"/>
<path d="M88.333 59.8076C80.7053 55.3949 68.3707 55.3949 60.7913 59.8076C53.212 64.2202 53.2482 71.3773 60.8758 75.7899C68.5035 80.2026 80.8381 80.2026 88.4175 75.7899C95.9968 71.3773 95.9606 64.2202 88.333 59.8076Z" fill="#1AD2F8"/>
<path d="M87.2467 60.7151C80.2225 56.7981 68.8775 56.7981 61.8895 60.7151C54.9136 64.6321 54.9498 70.967 61.974 74.8841C68.9982 78.8011 80.3432 78.8011 87.3312 74.8841C94.3071 70.967 94.2709 64.6321 87.2467 60.7151Z" fill="#6DE0F5"/>
<path d="M93.9834 -7.02601C93.9834 -7.15137 93.9834 -7.27673 93.9834 -7.41254V-7.56924H93.9713C93.79 -9.95109 91.8916 -12.312 88.252 -14.1402C80.6101 -17.9533 68.2524 -17.9533 60.6589 -14.1402C57.0314 -12.3225 55.1693 -9.96153 55.0242 -7.56924H55V-7.24539V69.2245C55 71.7317 56.9347 74.2285 60.7556 76.1402C68.3975 79.9533 80.7552 79.9533 88.3487 76.1402C92.2301 74.1867 94.1043 71.6168 93.9955 69.0573V-7.02601H93.9834Z" fill="url(#paint21_linear_2137_27534)"/>
<path fill-rule="evenodd" clip-rule="evenodd" d="M77.1628 28.6354C70.6505 25.5264 65.3734 16.8941 65.3734 9.28609C65.3734 6.43306 66.1219 4.16528 67.357 2.59245L66.3464 2.88507L68.7418 1.27568C68.7792 1.2391 68.826 1.21166 68.8727 1.18423C68.9195 1.1568 68.9663 1.12937 69.0037 1.09279L69.0786 1.01963C71.2119 -0.297145 74.0563 -0.406877 77.1628 1.09279C83.675 4.20185 88.9522 12.8341 88.9522 20.4421C88.9522 24.0633 87.7545 26.77 85.8083 28.3062L85.7709 28.3428C85.6586 28.416 85.5557 28.4891 85.4528 28.5623C85.3499 28.6354 85.2469 28.7086 85.1346 28.7817L82.8142 30.3911L82.9265 29.623C81.2048 29.9156 79.2587 29.623 77.1628 28.6354ZM77.1628 7.34749C73.6072 5.66494 70.7254 7.64011 70.7254 11.8099C70.7254 15.9431 73.6072 20.6982 77.1628 22.4173C80.7183 24.0999 83.6002 22.1247 83.6002 17.9549C83.6002 13.7851 80.7183 9.03005 77.1628 7.34749Z" fill="url(#paint22_linear_2137_27534)"/>
<path fill-rule="evenodd" clip-rule="evenodd" d="M62.716 11.2247C62.716 3.65318 67.9932 -0.00454175 74.5054 3.06794C80.9802 6.14043 86.2574 14.8092 86.2948 22.4173C86.2948 29.9888 81.0177 33.6465 74.5054 30.574C67.9932 27.4649 62.716 18.8327 62.716 11.2247ZM68.068 13.7119C68.068 17.8817 70.9499 22.6368 74.5054 24.3193C78.0609 26.0384 80.9428 24.0267 80.9428 19.8569C80.9428 15.6871 78.0609 10.932 74.5054 9.24949C70.9499 7.56694 68.068 9.54211 68.068 13.7119Z" fill="url(#paint23_linear_2137_27534)"/>
<ellipse cx="8.82669" cy="13.9707" rx="8.82669" ry="13.9707" transform="matrix(0.888785 -0.458324 0.476352 0.879255 60 8.43243)" fill="url(#paint24_linear_2137_27534)"/>
<path fill-rule="evenodd" clip-rule="evenodd" d="M76.5273 19.1075L70.7909 15.6901C70.1614 17.2076 69.3616 19.0895 68.7043 20.5884C68.6294 20.6982 68.5172 20.6982 68.3675 20.625C68.1429 20.5153 68.1055 20.4421 68.1055 20.2227V20.1495L70.1563 15.312L68.33 14.224C68.2178 14.1508 68.1429 14.0045 68.1429 13.8582V13.529C68.1429 13.3827 68.2178 13.3461 68.33 13.3827L70.4411 14.6404L71.1393 12.9935L69.3406 11.9196C69.2283 11.8465 69.1534 11.7002 69.1534 11.5539V11.1881C69.1534 11.0418 69.2283 11.0052 69.3406 11.0418L71.4363 12.293L73.0832 8.40823C73.2329 8.11561 73.6072 7.89615 73.944 8.11561C74.3183 8.33508 74.5054 8.774 74.6177 9.21293L76.3303 15.2148L78.2855 16.3821C78.3978 16.4552 78.4727 16.6015 78.4727 16.7478V17.077C78.4727 17.2599 78.3978 17.3331 78.2855 17.2599L76.6322 16.2729L77.339 18.7499L79.2586 19.8935C79.3709 19.9666 79.4458 20.1129 79.4458 20.2592V20.5884C79.4832 20.7347 79.3709 20.8079 79.2586 20.7347L77.6282 19.7634L79.4083 26.0019C79.5206 26.2945 79.6703 26.77 79.3709 26.8431C78.9592 26.9529 78.7721 26.6603 78.6972 26.4042L76.5273 19.1075ZM75.6042 15.6591L76.2878 18.1236L71.1404 15.057L71.8171 13.3982L75.6042 15.6591ZM75.3123 14.607L72.1051 12.6923L73.4201 9.46897C73.6072 8.95689 73.7943 9.17635 74.0189 9.94447L75.3123 14.607Z" fill="white"/>
<path d="M194.53 16.9307C199.402 14.616 209.025 16.1888 210.125 16.8936L260.111 44.1066C264.511 46.6142 265.843 50.0418 265.828 55.8286L265.664 159.487C265.664 163.872 263.224 165.459 259.722 167.166L199.11 127.845C194.702 125.33 192.375 120.953 192.375 115.181L194.53 16.9307Z" fill="url(#paint25_linear_2137_27534)"/>
<path d="M259.722 167.166V57.4979C259.723 53.5412 257.56 49.895 254.072 47.9719L198.331 17.1533C196.975 16.4034 195.32 16.4216 193.982 17.2012C192.643 17.9808 191.821 19.4051 191.821 20.9444V128.52L259.722 167.166Z" fill="url(#paint26_linear_2137_27534)"/>
<path d="M198.296 65.8891C197.247 65.1968 196.397 65.6496 196.397 66.9005C196.397 68.1513 197.247 69.7266 198.296 70.4189L211.248 78.9675C212.297 79.6598 213.147 79.207 213.147 77.9562C213.147 76.7053 212.297 75.13 211.248 74.4377L198.296 65.8891Z" fill="#52FCFF"/>
<path d="M215.431 79.4636C215.431 78.2128 216.282 77.76 217.331 78.4523L231.044 87.5034C232.093 88.1957 232.943 89.771 232.943 91.0218C232.943 92.2727 232.093 92.7255 231.044 92.0332L217.331 82.9821C216.282 82.2897 215.431 80.7145 215.431 79.4636Z" fill="#52FCFF"/>
<path d="M237.127 91.5183C236.078 90.826 235.228 91.2788 235.228 92.5297C235.228 93.7805 236.078 95.3558 237.127 96.0481L250.079 104.597C251.128 105.289 251.978 104.836 251.978 103.585C251.978 102.334 251.128 100.759 250.079 100.067L237.127 91.5183Z" fill="#52FCFF"/>
<path d="M196.397 75.0541C196.397 73.8032 197.247 73.3504 198.296 74.0428L211.248 82.5913C212.297 83.2837 213.147 84.8589 213.147 86.1098C213.147 87.3606 212.297 87.8134 211.248 87.1211L198.296 78.5725C197.247 77.8802 196.397 76.3049 196.397 75.0541Z" fill="#52FCFF"/>
<path d="M217.331 86.6059C216.282 85.9136 215.431 86.3664 215.431 87.6172C215.431 88.8681 216.282 90.4434 217.331 91.1357L231.044 100.187C232.093 100.879 232.943 100.426 232.943 99.1755C232.943 97.9246 232.093 96.3493 231.044 95.657L217.331 86.6059Z" fill="#52FCFF"/>
<path d="M235.228 100.683C235.228 99.4324 236.078 98.9796 237.127 99.672L250.079 108.221C251.128 108.913 251.978 110.488 251.978 111.739C251.978 112.99 251.128 113.443 250.079 112.75L237.127 104.202C236.078 103.509 235.228 101.934 235.228 100.683Z" fill="#52FCFF"/>
<path d="M198.296 82.1962C197.247 81.5039 196.397 81.9567 196.397 83.2075C196.397 84.4584 197.247 86.0336 198.296 86.726L211.248 95.2745C212.297 95.9669 213.147 95.5141 213.147 94.2632C213.147 93.0124 212.297 91.4371 211.248 90.7448L198.296 82.1962Z" fill="#52FCFF"/>
<path d="M215.431 95.7705C215.431 94.5196 216.282 94.0669 217.331 94.7592L231.044 103.81C232.093 104.503 232.943 106.078 232.943 107.329C232.943 108.58 232.093 109.032 231.044 108.34L217.331 99.2889C216.282 98.5966 215.431 97.0214 215.431 95.7705Z" fill="#52FCFF"/>
<path d="M237.127 107.825C236.078 107.133 235.228 107.585 235.228 108.836C235.228 110.087 236.078 111.662 237.127 112.355L250.079 120.903C251.128 121.596 251.978 121.143 251.978 119.892C251.978 118.641 251.128 117.066 250.079 116.374L237.127 107.825Z" fill="#52FCFF"/>
<path d="M196.397 91.3611C196.397 90.1103 197.247 89.6575 198.296 90.3498L211.248 98.8984C212.297 99.5907 213.147 101.166 213.147 102.417C213.147 103.668 212.297 104.12 211.248 103.428L198.296 94.8796C197.247 94.1873 196.397 92.612 196.397 91.3611Z" fill="#52FCFF"/>
<path d="M217.331 102.913C216.282 102.221 215.431 102.674 215.431 103.924C215.431 105.175 216.282 106.751 217.331 107.443L231.044 116.494C232.093 117.186 232.943 116.734 232.943 115.483C232.943 114.232 232.093 112.657 231.044 111.964L217.331 102.913Z" fill="#52FCFF"/>
<path d="M235.228 116.99C235.228 115.739 236.078 115.287 237.127 115.979L250.079 124.528C251.128 125.22 251.978 126.795 251.978 128.046C251.978 129.297 251.128 129.75 250.079 129.057L237.127 120.509C236.078 119.816 235.228 118.241 235.228 116.99Z" fill="#52FCFF"/>
<path d="M198.296 98.5033C197.247 97.8109 196.397 98.2637 196.397 99.5146C196.397 100.765 197.247 102.341 198.296 103.033L211.248 111.582C212.297 112.274 213.147 111.821 213.147 110.57C213.147 109.319 212.297 107.744 211.248 107.052L198.296 98.5033Z" fill="#52FCFF"/>
<path d="M215.431 112.078C215.431 110.827 216.282 110.374 217.331 111.067L231.044 120.118C232.093 120.81 232.943 122.385 232.943 123.636C232.943 124.887 232.093 125.34 231.044 124.647L217.331 115.596C216.282 114.904 215.431 113.329 215.431 112.078Z" fill="#52FCFF"/>
<path d="M237.127 124.132C236.078 123.44 235.228 123.893 235.228 125.144C235.228 126.395 236.078 127.97 237.127 128.662L250.079 137.211C251.128 137.903 251.978 137.45 251.978 136.199C251.978 134.949 251.128 133.373 250.079 132.681L237.127 124.132Z" fill="#52FCFF"/>
<path d="M196.397 107.668C196.397 106.417 197.247 105.965 198.296 106.657L211.248 115.205C212.297 115.898 213.147 117.473 213.147 118.724C213.147 119.975 212.297 120.428 211.248 119.735L198.296 111.187C197.247 110.494 196.397 108.919 196.397 107.668Z" fill="#52FCFF"/>
<path d="M217.331 119.22C216.282 118.528 215.431 118.981 215.431 120.232C215.431 121.482 216.282 123.058 217.331 123.75L231.044 132.801C232.093 133.493 232.943 133.041 232.943 131.79C232.943 130.539 232.093 128.964 231.044 128.271L217.331 119.22Z" fill="#52FCFF"/>
<path d="M235.228 133.298C235.228 132.047 236.078 131.594 237.127 132.286L250.079 140.835C251.128 141.527 251.978 143.102 251.978 144.353C251.978 145.604 251.128 146.057 250.079 145.365L237.127 136.816C236.078 136.124 235.228 134.548 235.228 133.298Z" fill="#52FCFF"/>
<path d="M198.296 114.81C197.247 114.118 196.397 114.571 196.397 115.822C196.397 117.072 197.247 118.648 198.296 119.34L211.248 127.889C212.297 128.581 213.147 128.128 213.147 126.877C213.147 125.626 212.297 124.051 211.248 123.359L198.296 114.81Z" fill="#52FCFF"/>
<path d="M215.431 128.385C215.431 127.134 216.282 126.682 217.331 127.374L231.044 136.425C232.093 137.117 232.943 138.693 232.943 139.943C232.943 141.194 232.093 141.647 231.044 140.955L217.331 131.904C216.282 131.211 215.431 129.636 215.431 128.385Z" fill="#52FCFF"/>
<path d="M237.127 140.44C236.078 139.747 235.228 140.2 235.228 141.451C235.228 142.702 236.078 144.277 237.127 144.969L250.079 153.518C251.128 154.21 251.978 153.758 251.978 152.507C251.978 151.256 251.128 149.681 250.079 148.988L237.127 140.44Z" fill="#52FCFF"/>
<path opacity="0.8" d="M200.972 104.564L167.588 123.671H167.572L134.171 104.564L167.572 85.4726L200.972 104.564Z" fill="#52FCFF"/>
<path d="M200.972 104.564V142.778L167.572 161.901V123.671H167.587L200.972 104.564Z" fill="url(#paint27_linear_2137_27534)"/>
<path d="M167.572 123.671V161.901L134.171 142.778V104.564L167.572 123.671Z" fill="url(#paint28_linear_2137_27534)"/>
<path d="M153.342 131.517C152.95 131.575 152.558 131.619 152.166 131.662C151.774 131.705 151.382 131.748 150.99 131.806C150.878 131.806 150.822 131.806 150.71 131.633C149.758 130.363 148.806 129.15 147.798 127.88L144.773 123.896C144.592 123.668 144.419 123.44 144.247 123.214C143.941 122.812 143.64 122.418 143.317 122.048L139.845 120.027C140.013 120.258 140.181 120.489 140.349 120.662C140.623 121.016 140.897 121.374 141.173 121.735C141.799 122.553 142.433 123.383 143.093 124.184C143.541 124.762 143.989 125.354 144.437 125.946C144.885 126.537 145.333 127.129 145.781 127.707L148.302 130.998C148.694 131.517 149.1 132.037 149.506 132.557C149.912 133.076 150.318 133.596 150.71 134.116C150.822 134.231 150.878 134.289 150.934 134.231C151.606 134.173 152.222 134.116 152.894 134C153.706 133.914 154.504 133.813 155.302 133.712C156.1 133.611 156.898 133.509 157.71 133.423C158.336 133.361 158.961 133.284 159.579 133.207C160.122 133.139 160.658 133.073 161.182 133.019C161.406 133.019 161.686 132.961 161.91 132.903L158.438 130.825C157.271 131.025 156.104 131.17 154.919 131.317C154.397 131.382 153.872 131.447 153.342 131.517Z" fill="white"/>
<path d="M156.926 145.433L155.19 145.664C153.034 142.863 150.892 140.077 148.749 137.291C146.607 134.505 144.465 131.72 142.309 128.919V126.436L142.31 126.438C147.182 132.789 152.054 139.14 156.926 145.433Z" fill="white"/>
<path d="M142.309 132.557C144.537 135.409 146.742 138.285 148.953 141.17C150.188 142.781 151.426 144.396 152.67 146.01L150.934 146.241C149.308 144.146 147.7 142.051 146.1 139.967C144.833 138.317 143.571 136.672 142.309 135.04V132.557Z" fill="white"/>
<path d="M159.502 136.541C158.438 136.685 157.374 136.815 156.31 136.945C155.246 137.075 154.182 137.205 153.118 137.349C153.174 137.407 153.174 137.465 153.174 137.465C153.454 137.811 153.72 138.172 153.986 138.533C154.252 138.894 154.518 139.255 154.798 139.601L154.854 139.659C155.638 139.572 156.408 139.471 157.178 139.37C157.948 139.269 158.718 139.168 159.502 139.081V136.541Z" fill="white"/>
<path d="M158.438 142.863C158.788 142.82 159.138 142.777 159.502 142.719V145.144L159.054 145.202C158.774 144.826 158.494 144.466 158.214 144.105C157.934 143.744 157.654 143.383 157.374 143.008C157.738 142.95 158.088 142.907 158.438 142.863Z" fill="white"/>
<path d="M206.45 153.723L206.46 157.42L217.589 163.833L217.579 160.136L206.45 153.723Z" fill="#ED8600"/>
<path d="M214.149 146.85H218.457L229.586 153.263V155.739L221.903 160.136H217.589L206.46 153.723C206.46 152.758 206.46 152.223 206.46 151.247L214.149 146.85Z" fill="#ECBA09"/>
<path fill-rule="evenodd" clip-rule="evenodd" d="M150.508 73.1874C145.75 70.9218 141.895 64.6313 141.895 59.0871C141.895 57.0081 142.442 55.3555 143.344 54.2093L142.606 54.4225L144.356 53.2497C144.383 53.2231 144.417 53.2031 144.451 53.1831C144.486 53.1631 144.52 53.1431 144.547 53.1165L144.602 53.0632C146.16 52.1036 148.238 52.0236 150.508 53.1165C155.265 55.3821 159.121 61.6726 159.121 67.2168C159.121 69.8556 158.246 71.828 156.824 72.9475L156.797 72.9742C156.715 73.0275 156.639 73.0808 156.564 73.1341C156.489 73.1874 156.414 73.2407 156.332 73.2941L154.637 74.4669L154.719 73.9071C153.461 74.1203 152.039 73.9071 150.508 73.1874ZM150.508 57.6744C147.91 56.4483 145.805 57.8877 145.805 60.9263C145.805 63.9383 147.91 67.4034 150.508 68.6561C153.105 69.8823 155.211 68.4429 155.211 65.4043C155.211 62.3656 153.105 58.9005 150.508 57.6744Z" fill="url(#paint29_linear_2137_27534)"/>
<path fill-rule="evenodd" clip-rule="evenodd" d="M139.954 60.4998C139.954 54.9823 143.809 52.3168 148.566 54.5558C153.297 56.7948 157.152 63.112 157.179 68.6562C157.179 74.1737 153.324 76.8391 148.566 74.6001C143.809 72.3345 139.954 66.044 139.954 60.4998ZM143.864 62.3123C143.864 65.351 145.969 68.8161 148.566 70.0422C151.164 71.295 153.269 69.829 153.269 66.7903C153.269 63.7517 151.164 60.2866 148.566 59.0605C145.969 57.8344 143.864 59.2737 143.864 62.3123Z" fill="url(#paint30_linear_2137_27534)"/>
<ellipse cx="6.44502" cy="10.1866" rx="6.44502" ry="10.1866" transform="matrix(0.889254 -0.457413 0.477279 0.878752 137.969 58.465)" fill="url(#paint31_linear_2137_27534)"/>
<path fill-rule="evenodd" clip-rule="evenodd" d="M150.044 66.2442L145.853 63.7538C145.393 64.8597 144.809 66.2311 144.328 67.3234C144.274 67.4034 144.192 67.4034 144.082 67.3501C143.918 67.2701 143.891 67.2168 143.891 67.0569V67.0035L145.389 63.4784L144.055 62.6855C143.973 62.6322 143.918 62.5256 143.918 62.4189V62.179C143.918 62.0724 143.973 62.0458 144.055 62.0724L145.597 62.9889L146.107 61.7888L144.793 61.0062C144.711 60.9529 144.657 60.8463 144.657 60.7397V60.4732C144.657 60.3665 144.711 60.3399 144.793 60.3665L146.324 61.2783L147.527 58.4474C147.637 58.2342 147.91 58.0742 148.156 58.2342C148.43 58.3941 148.566 58.7139 148.649 59.0338L149.9 63.4075L151.328 64.2581C151.41 64.3114 151.465 64.418 151.465 64.5247V64.7646C151.465 64.8978 151.41 64.9511 151.328 64.8978L150.12 64.1785L150.637 65.9836L152.039 66.817C152.121 66.8703 152.176 66.9769 152.176 67.0835V67.3234C152.203 67.43 152.121 67.4833 152.039 67.43L150.848 66.7222L152.148 71.2683C152.23 71.4815 152.34 71.828 152.121 71.8813C151.82 71.9613 151.684 71.7481 151.629 71.5615L150.044 66.2442ZM149.369 63.7313L149.869 65.5272L146.108 63.2925L146.603 62.0837L149.369 63.7313ZM149.156 62.9646L146.813 61.5693L147.774 59.2204C147.91 58.8472 148.047 59.0071 148.211 59.5669L149.156 62.9646Z" fill="white"/>
<path fill-rule="evenodd" clip-rule="evenodd" d="M128.225 57.4618C122.448 54.7006 117.767 47.034 117.767 40.277C117.767 37.7432 118.431 35.7291 119.526 34.3322L118.63 34.5921L120.755 33.1628C120.788 33.1303 120.83 33.1059 120.871 33.0815C120.913 33.0572 120.954 33.0328 120.987 33.0003L121.054 32.9354C122.946 31.7659 125.469 31.6684 128.225 33.0003C134.002 35.7616 138.684 43.4281 138.684 50.1851C138.684 53.4011 137.621 55.8051 135.895 57.1694L135.862 57.2019C135.762 57.2669 135.671 57.3319 135.579 57.3968C135.488 57.4618 135.397 57.5268 135.297 57.5918L133.239 59.0211L133.338 58.3389C131.811 58.5988 130.084 58.3389 128.225 57.4618ZM128.225 38.5553C125.071 37.061 122.515 38.8152 122.515 42.5185C122.515 46.1894 125.071 50.4125 128.225 51.9393C131.379 53.4336 133.936 51.6794 133.936 47.9761C133.936 44.2727 131.379 40.0497 128.225 38.5553Z" fill="url(#paint32_linear_2137_27534)"/>
<path fill-rule="evenodd" clip-rule="evenodd" d="M115.409 41.9988C115.409 35.2743 120.091 32.0258 125.868 34.7545C131.612 37.4833 136.293 45.1823 136.326 51.9393C136.326 58.6638 131.645 61.9123 125.868 59.1835C120.091 56.4223 115.409 48.7557 115.409 41.9988ZM120.157 44.2078C120.157 47.9111 122.714 52.1342 125.868 53.6285C129.022 55.1554 131.579 53.3687 131.579 49.6653C131.579 45.962 129.022 41.7389 125.868 40.2446C122.714 38.7502 120.157 40.5044 120.157 44.2078Z" fill="url(#paint33_linear_2137_27534)"/>
<ellipse cx="7.83213" cy="12.4046" rx="7.83213" ry="12.4046" transform="matrix(0.88857 -0.458741 0.475927 0.879485 113 39.5189)" fill="url(#paint34_linear_2137_27534)"/>
<path fill-rule="evenodd" clip-rule="evenodd" d="M127.661 48.9998L122.573 45.9646C122.014 47.3124 121.305 48.9838 120.722 50.315C120.655 50.4125 120.556 50.4125 120.423 50.3475C120.224 50.25 120.19 50.1851 120.19 49.9902V49.9252L122.01 45.6289L120.39 44.6626C120.29 44.5976 120.224 44.4676 120.224 44.3377V44.0453C120.224 43.9154 120.29 43.8829 120.39 43.9154L122.262 45.0324L122.882 43.5697L121.286 42.616C121.186 42.551 121.12 42.4211 121.12 42.2911V41.9663C121.12 41.8363 121.186 41.8039 121.286 41.8363L123.145 42.9475L124.606 39.4974C124.739 39.2375 125.071 39.0426 125.37 39.2375C125.702 39.4324 125.868 39.8222 125.967 40.2121L127.487 45.5425L129.221 46.5792C129.321 46.6442 129.387 46.7741 129.387 46.9041V47.1964C129.387 47.3588 129.321 47.4238 129.221 47.3588L127.755 46.4822L128.382 48.6821L130.084 49.6978C130.184 49.7628 130.25 49.8927 130.25 50.0226V50.315C130.284 50.445 130.184 50.5099 130.084 50.445L128.638 49.5823L130.217 55.1229C130.317 55.3827 130.45 55.805 130.184 55.87C129.819 55.9675 129.653 55.7076 129.586 55.4802L127.661 48.9998ZM126.843 45.9371L127.449 48.1259L122.883 45.4024L123.483 43.9291L126.843 45.9371ZM126.584 45.0027L123.739 43.3022L124.905 40.4395C125.071 39.9847 125.237 40.1796 125.436 40.8618L126.584 45.0027Z" fill="white"/>
<path fill-rule="evenodd" clip-rule="evenodd" d="M149.519 47.6488C142.553 44.3212 136.908 35.082 136.908 26.939C136.908 23.8854 137.708 21.4581 139.03 19.7747L137.949 20.0879L140.511 18.3654C140.551 18.3262 140.601 18.2969 140.651 18.2675C140.701 18.2381 140.751 18.2088 140.791 18.1696L140.871 18.0913C143.154 16.682 146.196 16.5645 149.519 18.1696C156.486 21.4973 162.131 30.7365 162.131 38.8795C162.131 42.7552 160.85 45.6522 158.768 47.2965L158.728 47.3357C158.608 47.414 158.498 47.4923 158.388 47.5706C158.278 47.6488 158.167 47.7271 158.047 47.8054L155.565 49.528L155.685 48.7059C153.843 49.0191 151.761 48.7059 149.519 47.6488ZM149.519 24.8641C145.716 23.0633 142.633 25.1773 142.633 29.6403C142.633 34.0641 145.716 39.1535 149.519 40.9935C153.323 42.7944 156.406 40.6803 156.406 36.2173C156.406 31.7543 153.323 26.665 149.519 24.8641Z" fill="url(#paint35_linear_2137_27534)"/>
<path fill-rule="evenodd" clip-rule="evenodd" d="M134.065 29.0139C134.065 20.9101 139.71 16.9952 146.677 20.2837C153.603 23.5722 159.248 32.8505 159.288 40.9935C159.288 49.0974 153.643 53.0123 146.677 49.7237C139.71 46.3961 134.065 37.1569 134.065 29.0139ZM139.79 31.676C139.79 36.139 142.873 41.2284 146.677 43.0293C150.48 44.8693 153.563 42.7161 153.563 38.2531C153.563 33.7901 150.48 28.7007 146.677 26.8999C142.873 25.099 139.79 27.2131 139.79 31.676Z" fill="url(#paint36_linear_2137_27534)"/>
<ellipse cx="9.44338" cy="14.9512" rx="9.44338" ry="14.9512" transform="matrix(0.888687 -0.458515 0.476158 0.87936 131.16 26.0253)" fill="url(#paint37_linear_2137_27534)"/>
<path fill-rule="evenodd" clip-rule="evenodd" d="M148.84 37.451L142.703 33.7933C142.03 35.4175 141.174 37.4318 140.471 39.0361C140.391 39.1535 140.271 39.1535 140.111 39.0752C139.87 38.9578 139.83 38.8795 139.83 38.6446V38.5663L142.024 33.3887L140.071 32.2241C139.951 32.1458 139.87 31.9892 139.87 31.8326V31.4803C139.87 31.3237 139.951 31.2845 140.071 31.3237L142.329 32.6698L143.076 30.9071L141.152 29.7577C141.032 29.6794 140.951 29.5228 140.951 29.3663V28.9748C140.951 28.8182 141.032 28.779 141.152 28.8182L143.394 30.1573L145.155 25.9994C145.316 25.6862 145.716 25.4514 146.076 25.6862C146.477 25.9211 146.677 26.3909 146.797 26.8607L148.629 33.2846L150.721 34.5339C150.841 34.6122 150.921 34.7688 150.921 34.9254V35.2778C150.921 35.4735 150.841 35.5518 150.721 35.4735L148.952 34.4171L149.708 37.0682L151.762 38.2922C151.882 38.3705 151.962 38.5271 151.962 38.6837V39.0361C152.002 39.1927 151.882 39.271 151.762 39.1927L150.017 38.153L151.922 44.8301C152.042 45.1433 152.202 45.6523 151.882 45.7305C151.441 45.848 151.241 45.5348 151.161 45.2608L148.84 37.451ZM147.852 33.7601L148.584 36.3979L143.077 33.1157L143.801 31.3403L147.852 33.7601ZM147.54 32.6341L144.109 30.5847L145.516 27.1348C145.716 26.5867 145.916 26.8216 146.156 27.6437L147.54 32.6341Z" fill="white"/>
<path d="M199.359 41.7843C199.284 41.7413 199.221 41.6748 199.169 41.5845C199.117 41.4943 199.091 41.4063 199.091 41.3204L199.091 32.9181C199.091 32.8321 199.117 32.7742 199.169 32.7441C199.221 32.714 199.284 32.7205 199.358 32.7634L200.408 33.3691C200.489 33.4164 200.553 33.483 200.597 33.5689C200.649 33.6591 200.675 33.7472 200.675 33.8331L200.676 42.2354C200.676 42.3213 200.65 42.3793 200.598 42.4094C200.553 42.4437 200.49 42.4373 200.408 42.39L199.359 41.7843ZM203.103 43.9465C203.022 43.8992 202.955 43.8305 202.903 43.7403C202.85 43.6501 202.824 43.562 202.824 43.4761L202.824 35.0867C202.824 34.9922 202.85 34.9299 202.902 34.8998C202.954 34.8698 203.021 34.8784 203.103 34.9256L203.985 35.4347C204.089 35.4948 204.167 35.5743 204.219 35.6731C204.271 35.7633 204.305 35.8299 204.32 35.8728L206.474 41.7558L208.65 38.373C208.665 38.3473 208.698 38.3194 208.75 38.2893C208.802 38.2506 208.88 38.2614 208.985 38.3215L209.855 38.8241C209.937 38.8714 210.004 38.9401 210.056 39.0303C210.108 39.1205 210.134 39.2129 210.134 39.3074L210.134 47.6968C210.134 47.7827 210.108 47.8407 210.056 47.8708C210.004 47.9009 209.937 47.8923 209.855 47.845L208.918 47.3037C208.836 47.2565 208.769 47.1877 208.717 47.0975C208.672 47.0116 208.65 46.9257 208.65 46.8398L208.65 41.2597L207.088 43.7984C207.05 43.8543 207.002 43.8951 206.943 43.9208C206.883 43.938 206.805 43.9187 206.708 43.8628L206.251 43.5986C206.146 43.5385 206.065 43.4655 206.005 43.3796C205.953 43.2893 205.908 43.1948 205.871 43.096L204.309 38.7531L204.309 44.3331C204.309 44.419 204.283 44.477 204.231 44.5071C204.179 44.5372 204.115 44.5307 204.041 44.4878L203.103 43.9465ZM212.537 49.3932C212.462 49.3503 212.399 49.2837 212.347 49.1935C212.295 49.1032 212.269 49.0152 212.269 48.9293L212.269 40.5399C212.269 40.4454 212.295 40.3831 212.347 40.353C212.399 40.3229 212.462 40.3294 212.536 40.3723L215.527 42.0993C216.108 42.4344 216.614 42.8339 217.045 43.2978C217.477 43.7532 217.812 44.2644 218.05 44.8314C218.288 45.3898 218.407 45.9869 218.407 46.6227C218.407 47.267 218.288 47.731 218.05 48.0145C217.812 48.2894 217.477 48.4054 217.045 48.3624C216.614 48.3194 216.108 48.1304 215.528 47.7953L213.865 46.8352L213.865 49.8507C213.865 49.9367 213.839 49.9946 213.787 50.0247C213.742 50.0591 213.679 50.0526 213.597 50.0054L212.537 49.3932ZM213.842 45.3918L215.472 46.3327C215.903 46.5818 216.234 46.657 216.465 46.5582C216.696 46.4508 216.811 46.1652 216.811 45.7012C216.811 45.2717 216.703 44.8657 216.487 44.4834C216.272 44.0925 215.933 43.7639 215.472 43.4975L213.842 42.5567L213.842 45.3918ZM220.292 53.871C220.218 53.828 220.154 53.7615 220.102 53.6712C220.05 53.581 220.024 53.493 220.024 53.4071L220.024 45.0176C220.024 44.9231 220.05 44.8609 220.102 44.8308C220.154 44.8007 220.217 44.8072 220.292 44.8501L223.182 46.5191C224.082 47.0389 224.793 47.6897 225.314 48.4715C225.835 49.2533 226.095 50.1039 226.095 51.0232C226.095 51.6589 225.957 52.1078 225.682 52.3698C225.414 52.6362 225.054 52.7328 224.6 52.6598L226.229 56.8867C226.252 56.9512 226.263 57.0049 226.263 57.0478C226.263 57.1251 226.237 57.1745 226.185 57.196C226.14 57.2218 226.088 57.2175 226.028 57.1831L225.013 56.5967C224.886 56.5237 224.79 56.4292 224.723 56.3132C224.656 56.1972 224.604 56.0898 224.566 55.991L223.127 52.1056L221.575 51.2099L221.575 54.3028C221.575 54.3887 221.549 54.4467 221.497 54.4767C221.453 54.5111 221.389 54.5046 221.308 54.4574L220.292 53.871ZM221.575 49.7537L223.149 50.6622C223.603 50.9243 223.941 51.0038 224.164 50.9007C224.388 50.789 224.499 50.5184 224.499 50.0888C224.499 49.6592 224.388 49.2597 224.164 48.8903C223.949 48.5166 223.61 48.1965 223.149 47.9302L221.575 47.0216L221.575 49.7537ZM230.912 60.1319C230.25 59.7496 229.681 59.2964 229.205 58.7723C228.728 58.2396 228.356 57.6339 228.089 56.9552C227.821 56.2679 227.676 55.5226 227.653 54.7193C227.646 54.3456 227.642 53.9783 227.642 53.6174C227.642 53.2566 227.646 52.8893 227.653 52.5156C227.676 51.7467 227.824 51.1797 228.1 50.8145C228.375 50.4494 228.751 50.2712 229.227 50.2798C229.71 50.2927 230.272 50.4838 230.912 50.8533C231.552 51.2227 232.113 51.6802 232.597 52.2258C233.081 52.7714 233.46 53.3857 233.735 54.0687C234.011 54.7517 234.16 55.4906 234.182 56.2852C234.197 56.6719 234.204 57.0456 234.204 57.4064C234.204 57.7673 234.197 58.1281 234.182 58.4889C234.16 59.2664 234.015 59.8442 233.747 60.2222C233.479 60.5916 233.103 60.7656 232.62 60.7441C232.144 60.7183 231.574 60.5142 230.912 60.1319ZM230.912 58.6499C231.396 58.9291 231.79 58.9936 232.095 58.8432C232.4 58.6843 232.564 58.2376 232.586 57.503C232.601 57.1336 232.608 56.7899 232.608 56.4721C232.608 56.1456 232.601 55.7933 232.586 55.4153C232.571 54.9084 232.489 54.4574 232.34 54.0622C232.199 53.6627 232.006 53.3233 231.76 53.0441C231.515 52.7563 231.232 52.52 230.912 52.3353C230.599 52.1549 230.32 52.0668 230.075 52.0711C229.829 52.0668 229.632 52.1806 229.483 52.4126C229.342 52.6402 229.264 52.9989 229.249 53.4886C229.242 53.8538 229.238 54.1996 229.238 54.526C229.238 54.8439 229.242 55.194 229.249 55.5763C229.272 56.3366 229.435 56.9724 229.74 57.4836C230.045 57.9862 230.436 58.375 230.912 58.6499ZM238.116 64.1627C237.997 64.0939 237.904 64.0059 237.837 63.8985C237.77 63.7911 237.722 63.6772 237.692 63.557L235.304 53.9045C235.289 53.853 235.281 53.81 235.281 53.7757C235.281 53.6983 235.304 53.6468 235.348 53.621C235.393 53.5953 235.449 53.6017 235.516 53.6404L236.498 54.2074C236.602 54.2676 236.68 54.347 236.732 54.4458C236.792 54.5403 236.829 54.622 236.844 54.6907L238.73 62.4165L240.605 56.8623C240.627 56.815 240.664 56.7764 240.716 56.7463C240.776 56.7119 240.858 56.7248 240.962 56.785L241.944 57.352C242.004 57.3864 242.056 57.4422 242.1 57.5196C242.152 57.6012 242.178 57.6806 242.178 57.758C242.178 57.7923 242.171 57.8267 242.156 57.8611L239.768 64.7555C239.738 64.8414 239.69 64.8994 239.623 64.9295C239.556 64.9595 239.463 64.9402 239.344 64.8715L238.116 64.1627ZM244.026 67.5749C243.952 67.532 243.889 67.4654 243.836 67.3752C243.784 67.285 243.758 67.1969 243.758 67.111L243.758 58.7216C243.758 58.6271 243.784 58.5648 243.836 58.5347C243.888 58.5047 243.951 58.5111 244.026 58.5541L248.936 61.3894C249.018 61.4366 249.085 61.5053 249.137 61.5956C249.189 61.6858 249.215 61.7781 249.215 61.8726L249.215 62.7232C249.215 62.8091 249.189 62.8671 249.137 62.8971C249.085 62.9272 249.018 62.9186 248.936 62.8714L245.265 60.7513L245.265 63.0323L248.691 65.0106C248.773 65.0578 248.84 65.1266 248.892 65.2168C248.944 65.2984 248.97 65.3865 248.97 65.481L248.97 66.28C248.97 66.3745 248.944 66.4368 248.892 66.4668C248.84 66.4883 248.773 66.4754 248.691 66.4282L245.265 64.4499L245.265 66.8082L249.026 68.9798C249.108 69.027 249.175 69.0958 249.227 69.186C249.279 69.2762 249.305 69.3685 249.305 69.4631L249.305 70.3136C249.305 70.3995 249.279 70.4575 249.227 70.4876C249.175 70.5176 249.108 70.509 249.026 70.4618L244.026 67.5749ZM211.193 64.6169C211.118 64.5739 211.055 64.5073 211.003 64.4171C210.951 64.3269 210.925 64.2388 210.925 64.1529L210.925 61.2405L208.291 54.333C208.283 54.3115 208.276 54.2857 208.268 54.2557C208.261 54.2256 208.257 54.1977 208.257 54.1719C208.257 54.0946 208.28 54.043 208.324 54.0172C208.369 53.9915 208.421 53.9958 208.481 54.0301L209.474 54.6036C209.563 54.6552 209.634 54.7218 209.686 54.8034C209.745 54.8893 209.786 54.9688 209.809 55.0418L211.706 59.8874L213.592 57.2263C213.622 57.1833 213.663 57.1511 213.715 57.1296C213.774 57.1124 213.849 57.1296 213.938 57.1812L214.92 57.7482C214.987 57.7869 215.043 57.8449 215.087 57.9222C215.132 57.9995 215.154 58.0769 215.154 58.1542C215.154 58.18 215.151 58.2036 215.143 58.2251C215.143 58.2508 215.136 58.268 215.121 58.2766L212.487 62.1426L212.487 65.0551C212.487 65.141 212.461 65.199 212.409 65.229C212.357 65.2591 212.29 65.2505 212.208 65.2033L211.193 64.6169ZM219.334 69.4467C218.672 69.0644 218.103 68.6111 217.627 68.0871C217.151 67.5544 216.779 66.9487 216.511 66.27C216.243 65.5827 216.098 64.8373 216.076 64.0341C216.068 63.6603 216.064 63.2931 216.064 62.9322C216.064 62.5714 216.068 62.2041 216.075 61.8304C216.098 61.0615 216.247 60.4944 216.522 60.1293C216.797 59.7642 217.173 59.5859 217.649 59.5946C218.133 59.6075 218.694 59.7986 219.334 60.1681C219.974 60.5375 220.536 60.995 221.019 61.5406C221.503 62.0862 221.882 62.7004 222.158 63.3835C222.433 64.0665 222.582 64.8053 222.604 65.6C222.619 65.9866 222.627 66.3604 222.627 66.7212C222.627 67.082 222.619 67.4429 222.604 67.8037C222.582 68.5812 222.437 69.159 222.169 69.537C221.901 69.9064 221.526 70.0804 221.042 70.0589C220.566 70.0331 219.997 69.829 219.334 69.4467ZM219.334 67.9647C219.818 68.2439 220.212 68.3084 220.517 68.158C220.822 67.9991 220.986 67.5524 221.008 66.8178C221.023 66.4484 221.031 66.1047 221.031 65.7868C221.031 65.4604 221.023 65.1081 221.008 64.7301C220.993 64.2232 220.912 63.7722 220.763 63.377C220.621 62.9775 220.428 62.6381 220.182 62.3589C219.937 62.0711 219.654 61.8348 219.334 61.6501C219.022 61.4696 218.743 61.3816 218.497 61.3859C218.252 61.3816 218.054 61.4954 217.906 61.7274C217.764 61.955 217.686 62.3137 217.671 62.8034C217.664 63.1685 217.66 63.5143 217.66 63.8408C217.66 64.1587 217.664 64.5088 217.671 64.8911C217.694 65.6514 217.857 66.2872 218.163 66.7984C218.468 67.301 218.858 67.6898 219.334 67.9647ZM224.759 72.4497C224.684 72.4067 224.621 72.3402 224.569 72.2499C224.517 72.1597 224.491 72.0717 224.491 71.9858L224.49 63.5963C224.49 63.5018 224.517 63.4396 224.569 63.4095C224.621 63.3794 224.684 63.3859 224.758 63.4288L227.649 65.0978C228.549 65.6176 229.26 66.2684 229.78 67.0502C230.301 67.832 230.562 68.6826 230.562 69.6019C230.562 70.2376 230.424 70.6865 230.149 70.9485C229.881 71.2149 229.52 71.3115 229.066 71.2385L230.696 75.4654C230.718 75.5299 230.729 75.5836 230.729 75.6265C230.729 75.7039 230.703 75.7532 230.651 75.7747C230.607 75.8005 230.554 75.7962 230.495 75.7618L229.479 75.1754C229.353 75.1024 229.256 75.0079 229.189 74.8919C229.122 74.7759 229.07 74.6685 229.033 74.5697L227.593 70.6843L226.042 69.7886L226.042 72.8815C226.042 72.9674 226.016 73.0254 225.964 73.0554C225.919 73.0898 225.856 73.0833 225.774 73.0361L224.759 72.4497ZM226.042 68.3324L227.615 69.2409C228.069 69.503 228.408 69.5825 228.631 69.4794C228.854 69.3677 228.966 69.0971 228.966 68.6675C228.966 68.2379 228.854 67.8384 228.631 67.469C228.415 67.0953 228.077 66.7752 227.615 66.5089L226.042 65.6003L226.042 68.3324ZM235.379 78.7106C234.717 78.3283 234.147 77.8751 233.671 77.351C233.195 76.8183 232.823 76.2126 232.555 75.5339C232.287 74.8466 232.142 74.1013 232.12 73.298C232.112 72.9243 232.109 72.557 232.109 72.1961C232.109 71.8353 232.112 71.468 232.12 71.0943C232.142 70.3254 232.291 69.7584 232.566 69.3932C232.841 69.0281 233.217 68.8499 233.693 68.8585C234.177 68.8714 234.739 69.0625 235.379 69.432C236.018 69.8014 236.58 70.2589 237.064 70.8045C237.547 71.3501 237.927 71.9644 238.202 72.6474C238.477 73.3304 238.626 74.0693 238.649 74.864C238.663 75.2506 238.671 75.6243 238.671 75.9851C238.671 76.346 238.664 76.7068 238.649 77.0676C238.626 77.8451 238.481 78.4229 238.213 78.8009C237.946 79.1703 237.57 79.3443 237.086 79.3228C236.61 79.297 236.041 79.0929 235.379 78.7106ZM235.379 77.2286C235.862 77.5078 236.257 77.5723 236.562 77.422C236.867 77.263 237.03 76.8163 237.053 76.0817C237.068 75.7123 237.075 75.3686 237.075 75.0508C237.075 74.7243 237.068 74.3721 237.053 73.994C237.038 73.4871 236.956 73.0361 236.807 72.6409C236.666 72.2414 236.472 71.902 236.227 71.6228C235.981 71.335 235.698 71.0987 235.379 70.914C235.066 70.7336 234.787 70.6455 234.542 70.6498C234.296 70.6455 234.099 70.7593 233.95 70.9913C233.809 71.2189 233.731 71.5776 233.716 72.0673C233.708 72.4325 233.705 72.7783 233.705 73.1047C233.705 73.4226 233.708 73.7727 233.716 74.155C233.738 74.9153 233.902 75.5511 234.207 76.0623C234.512 76.5649 234.903 76.9537 235.379 77.2286ZM240.803 81.7136C240.729 81.6707 240.665 81.6041 240.613 81.5139C240.561 81.4237 240.535 81.3356 240.535 81.2497L240.535 72.8474C240.535 72.7615 240.561 72.7035 240.613 72.6734C240.665 72.6433 240.728 72.6498 240.803 72.6927L241.852 73.2985C241.934 73.3457 241.997 73.4123 242.041 73.4982C242.094 73.5884 242.12 73.6765 242.12 73.7624L242.12 82.1647C242.12 82.2506 242.094 82.3086 242.042 82.3387C241.997 82.373 241.934 82.3666 241.852 82.3193L240.803 81.7136Z" fill="white"/>
<defs>
<linearGradient id="paint0_linear_2137_27534" x1="225.859" y1="75.7147" x2="179.942" y2="237.78" gradientUnits="userSpaceOnUse">
<stop stop-color="#17D1AA"/>
<stop offset="0.15" stop-color="#1ACBAF"/>
<stop offset="0.37" stop-color="#21B8BC"/>
<stop offset="0.62" stop-color="#2E9BD3"/>
<stop offset="0.89" stop-color="#3F71F1"/>
<stop offset="1" stop-color="#475FFF"/>
</linearGradient>
<linearGradient id="paint1_linear_2137_27534" x1="365.528" y1="141.084" x2="365.528" y2="114.923" gradientUnits="userSpaceOnUse">
<stop stop-color="#1D45BA"/>
<stop offset="0.4204" stop-color="#1D47BA"/>
<stop offset="0.5718" stop-color="#1D4EB9"/>
<stop offset="0.6797" stop-color="#1C59B8"/>
<stop offset="0.767" stop-color="#1B6AB6"/>
<stop offset="0.8417" stop-color="#1A80B3"/>
<stop offset="0.9079" stop-color="#199CB0"/>
<stop offset="0.9663" stop-color="#18BBAD"/>
<stop offset="1" stop-color="#17D1AA"/>
</linearGradient>
<linearGradient id="paint2_linear_2137_27534" x1="331.984" y1="93.6758" x2="313.944" y2="137.366" gradientUnits="userSpaceOnUse">
<stop stop-color="#17D1AA"/>
<stop offset="0.15" stop-color="#1ACBAF"/>
<stop offset="0.37" stop-color="#21B8BC"/>
<stop offset="0.62" stop-color="#2E9BD3"/>
<stop offset="0.89" stop-color="#3F71F1"/>
<stop offset="1" stop-color="#475FFF"/>
</linearGradient>
<linearGradient id="paint3_linear_2137_27534" x1="360.932" y1="131.507" x2="360.932" y2="108.225" gradientUnits="userSpaceOnUse">
<stop stop-color="#1D45BA"/>
<stop offset="0.4204" stop-color="#1D47BA"/>
<stop offset="0.5718" stop-color="#1D4EB9"/>
<stop offset="0.6797" stop-color="#1C59B8"/>
<stop offset="0.767" stop-color="#1B6AB6"/>
<stop offset="0.8417" stop-color="#1A80B3"/>
<stop offset="0.9079" stop-color="#199CB0"/>
<stop offset="0.9663" stop-color="#18BBAD"/>
<stop offset="1" stop-color="#17D1AA"/>
</linearGradient>
<linearGradient id="paint4_linear_2137_27534" x1="331.088" y1="89.3027" x2="315.03" y2="128.183" gradientUnits="userSpaceOnUse">
<stop stop-color="#17D1AA"/>
<stop offset="0.15" stop-color="#1ACBAF"/>
<stop offset="0.37" stop-color="#21B8BC"/>
<stop offset="0.62" stop-color="#2E9BD3"/>
<stop offset="0.89" stop-color="#3F71F1"/>
<stop offset="1" stop-color="#475FFF"/>
</linearGradient>
<linearGradient id="paint5_linear_2137_27534" x1="356.846" y1="123.621" x2="356.846" y2="102.933" gradientUnits="userSpaceOnUse">
<stop stop-color="#1D45BA"/>
<stop offset="0.4204" stop-color="#1D47BA"/>
<stop offset="0.5718" stop-color="#1D4EB9"/>
<stop offset="0.6797" stop-color="#1C59B8"/>
<stop offset="0.767" stop-color="#1B6AB6"/>
<stop offset="0.8417" stop-color="#1A80B3"/>
<stop offset="0.9079" stop-color="#199CB0"/>
<stop offset="0.9663" stop-color="#18BBAD"/>
<stop offset="1" stop-color="#17D1AA"/>
</linearGradient>
<linearGradient id="paint6_linear_2137_27534" x1="330.293" y1="86.082" x2="316" y2="120.676" gradientUnits="userSpaceOnUse">
<stop stop-color="#17D1AA"/>
<stop offset="0.15" stop-color="#1ACBAF"/>
<stop offset="0.37" stop-color="#21B8BC"/>
<stop offset="0.62" stop-color="#2E9BD3"/>
<stop offset="0.89" stop-color="#3F71F1"/>
<stop offset="1" stop-color="#475FFF"/>
</linearGradient>
<linearGradient id="paint7_linear_2137_27534" x1="323.908" y1="50.9219" x2="323.908" y2="115.021" gradientUnits="userSpaceOnUse">
<stop stop-color="#52FCFF" stop-opacity="0"/>
<stop offset="1" stop-color="#52FCFF" stop-opacity="0.24"/>
</linearGradient>
<linearGradient id="paint8_linear_2137_27534" x1="311.115" y1="102.075" x2="337.946" y2="102.075" gradientUnits="userSpaceOnUse">
<stop stop-color="#17D1AA"/>
<stop offset="0.15" stop-color="#1ACBAF"/>
<stop offset="0.37" stop-color="#21B8BC"/>
<stop offset="0.62" stop-color="#2E9BD3"/>
<stop offset="0.89" stop-color="#3F71F1"/>
<stop offset="1" stop-color="#475FFF"/>
</linearGradient>
<linearGradient id="paint9_linear_2137_27534" x1="336.125" y1="123.652" x2="380.154" y2="62.3999" gradientUnits="userSpaceOnUse">
<stop stop-color="#244ABF"/>
<stop offset="1" stop-color="#4760FF"/>
</linearGradient>
<linearGradient id="paint10_linear_2137_27534" x1="12.209" y1="2.49021e-06" x2="-6.45711" y2="16.7068" gradientUnits="userSpaceOnUse">
<stop stop-color="#17D1AA"/>
<stop offset="0.15" stop-color="#1ACBAF"/>
<stop offset="0.37" stop-color="#21B8BC"/>
<stop offset="0.62" stop-color="#2E9BD3"/>
<stop offset="0.89" stop-color="#3F71F1"/>
<stop offset="1" stop-color="#475FFF"/>
</linearGradient>
<linearGradient id="paint11_linear_2137_27534" x1="15.1153" y1="118.319" x2="222.948" y2="76.125" gradientUnits="userSpaceOnUse">
<stop stop-color="#17D1AA"/>
<stop offset="0.0659437" stop-color="#1AC2AE"/>
<stop offset="0.2651" stop-color="#229BB8"/>
<stop offset="0.4616" stop-color="#297CC0"/>
<stop offset="0.6525" stop-color="#2D66C6"/>
<stop offset="0.8349" stop-color="#3059CA"/>
<stop offset="1" stop-color="#3154CB"/>
</linearGradient>
<linearGradient id="paint12_linear_2137_27534" x1="88.1853" y1="80.5039" x2="57.8799" y2="153.867" gradientUnits="userSpaceOnUse">
<stop stop-color="#17D1AA"/>
<stop offset="0.15" stop-color="#1ACBAF"/>
<stop offset="0.37" stop-color="#21B8BC"/>
<stop offset="0.62" stop-color="#2E9BD3"/>
<stop offset="0.89" stop-color="#3F71F1"/>
<stop offset="1" stop-color="#475FFF"/>
</linearGradient>
<linearGradient id="paint13_linear_2137_27534" x1="124.038" y1="145.513" x2="124.038" y2="109.266" gradientUnits="userSpaceOnUse">
<stop stop-color="#1D45BA"/>
<stop offset="0.4204" stop-color="#1D47BA"/>
<stop offset="0.5718" stop-color="#1D4EB9"/>
<stop offset="0.6797" stop-color="#1C59B8"/>
<stop offset="0.767" stop-color="#1B6AB6"/>
<stop offset="0.8417" stop-color="#1A80B3"/>
<stop offset="0.9079" stop-color="#199CB0"/>
<stop offset="0.9663" stop-color="#18BBAD"/>
<stop offset="1" stop-color="#17D1AA"/>
</linearGradient>
<linearGradient id="paint14_linear_2137_27534" x1="74.6155" y1="85.4124" x2="108.808" y2="165.238" gradientUnits="userSpaceOnUse">
<stop stop-color="#0CDDB3"/>
<stop offset="1" stop-color="#4F6FC6"/>
</linearGradient>
<linearGradient id="paint15_linear_2137_27534" x1="124.038" y1="131.635" x2="124.038" y2="95.3755" gradientUnits="userSpaceOnUse">
<stop stop-color="#1D45BA"/>
<stop offset="0.4204" stop-color="#1D47BA"/>
<stop offset="0.5718" stop-color="#1D4EB9"/>
<stop offset="0.6797" stop-color="#1C59B8"/>
<stop offset="0.767" stop-color="#1B6AB6"/>
<stop offset="0.8417" stop-color="#1A80B3"/>
<stop offset="0.9079" stop-color="#199CB0"/>
<stop offset="0.9663" stop-color="#18BBAD"/>
<stop offset="1" stop-color="#17D1AA"/>
</linearGradient>
<linearGradient id="paint16_linear_2137_27534" x1="74.6155" y1="71.5094" x2="108.808" y2="151.335" gradientUnits="userSpaceOnUse">
<stop stop-color="#0CDDB3"/>
<stop offset="1" stop-color="#4F6FC6"/>
</linearGradient>
<linearGradient id="paint17_linear_2137_27534" x1="124.038" y1="117.731" x2="124.038" y2="81.4851" gradientUnits="userSpaceOnUse">
<stop stop-color="#1D45BA"/>
<stop offset="0.4204" stop-color="#1D47BA"/>
<stop offset="0.5718" stop-color="#1D4EB9"/>
<stop offset="0.6797" stop-color="#1C59B8"/>
<stop offset="0.767" stop-color="#1B6AB6"/>
<stop offset="0.8417" stop-color="#1A80B3"/>
<stop offset="0.9079" stop-color="#199CB0"/>
<stop offset="0.9663" stop-color="#18BBAD"/>
<stop offset="1" stop-color="#17D1AA"/>
</linearGradient>
<linearGradient id="paint18_linear_2137_27534" x1="74.6156" y1="57.6189" x2="108.808" y2="137.444" gradientUnits="userSpaceOnUse">
<stop stop-color="#0CDDB3"/>
<stop offset="1" stop-color="#4F6FC6"/>
</linearGradient>
<linearGradient id="paint19_linear_2137_27534" x1="124.038" y1="103.85" x2="124.038" y2="67.604" gradientUnits="userSpaceOnUse">
<stop stop-color="#1D45BA"/>
<stop offset="0.4204" stop-color="#1D47BA"/>
<stop offset="0.5718" stop-color="#1D4EB9"/>
<stop offset="0.6797" stop-color="#1C59B8"/>
<stop offset="0.767" stop-color="#1B6AB6"/>
<stop offset="0.8417" stop-color="#1A80B3"/>
<stop offset="0.9079" stop-color="#199CB0"/>
<stop offset="0.9663" stop-color="#18BBAD"/>
<stop offset="1" stop-color="#17D1AA"/>
</linearGradient>
<linearGradient id="paint20_linear_2137_27534" x1="74.6157" y1="43.7266" x2="108.808" y2="123.552" gradientUnits="userSpaceOnUse">
<stop stop-color="#0CDDB3"/>
<stop offset="1" stop-color="#4F6FC6"/>
</linearGradient>
<linearGradient id="paint21_linear_2137_27534" x1="74.5" y1="-17" x2="74.5" y2="79" gradientUnits="userSpaceOnUse">
<stop stop-color="#52FCFF" stop-opacity="0"/>
<stop offset="1" stop-color="#52FCFF" stop-opacity="0.24"/>
</linearGradient>
<linearGradient id="paint22_linear_2137_27534" x1="65.3734" y1="30.3913" x2="88.9522" y2="30.3913" gradientUnits="userSpaceOnUse">
<stop stop-color="#17D1AA"/>
<stop offset="0.15" stop-color="#1ACBAF"/>
<stop offset="0.37" stop-color="#21B8BC"/>
<stop offset="0.62" stop-color="#2E9BD3"/>
<stop offset="0.89" stop-color="#3F71F1"/>
<stop offset="1" stop-color="#475FFF"/>
</linearGradient>
<linearGradient id="paint23_linear_2137_27534" x1="87.3519" y1="49.6352" x2="126.803" y2="-4.44117" gradientUnits="userSpaceOnUse">
<stop stop-color="#244ABF"/>
<stop offset="1" stop-color="#4760FF"/>
</linearGradient>
<linearGradient id="paint24_linear_2137_27534" x1="10.7622" y1="2.21346e-06" x2="-5.81372" y2="14.7129" gradientUnits="userSpaceOnUse">
<stop stop-color="#17D1AA"/>
<stop offset="0.15" stop-color="#1ACBAF"/>
<stop offset="0.37" stop-color="#21B8BC"/>
<stop offset="0.62" stop-color="#2E9BD3"/>
<stop offset="0.89" stop-color="#3F71F1"/>
<stop offset="1" stop-color="#475FFF"/>
</linearGradient>
<linearGradient id="paint25_linear_2137_27534" x1="221.049" y1="15.7143" x2="305.26" y2="73.0935" gradientUnits="userSpaceOnUse">
<stop stop-color="#17D1AA"/>
<stop offset="0.15" stop-color="#1ACBAF"/>
<stop offset="0.37" stop-color="#21B8BC"/>
<stop offset="0.62" stop-color="#2E9BD3"/>
<stop offset="0.89" stop-color="#3F71F1"/>
<stop offset="1" stop-color="#475FFF"/>
</linearGradient>
<linearGradient id="paint26_linear_2137_27534" x1="259.722" y1="167.167" x2="191.821" y2="167.167" gradientUnits="userSpaceOnUse">
<stop stop-color="#17D1AA"/>
<stop offset="0.15" stop-color="#1ACBAF"/>
<stop offset="0.37" stop-color="#21B8BC"/>
<stop offset="0.62" stop-color="#2E9BD3"/>
<stop offset="0.89" stop-color="#3F71F1"/>
<stop offset="1" stop-color="#475FFF"/>
</linearGradient>
<linearGradient id="paint27_linear_2137_27534" x1="167.572" y1="161.901" x2="200.972" y2="161.901" gradientUnits="userSpaceOnUse">
<stop stop-color="#17D1AA"/>
<stop offset="0.15" stop-color="#1ACBAF"/>
<stop offset="0.37" stop-color="#21B8BC"/>
<stop offset="0.62" stop-color="#2E9BD3"/>
<stop offset="0.89" stop-color="#3F71F1"/>
<stop offset="1" stop-color="#475FFF"/>
</linearGradient>
<linearGradient id="paint28_linear_2137_27534" x1="154.533" y1="104.564" x2="120.954" y2="132.045" gradientUnits="userSpaceOnUse">
<stop stop-color="#17D1AA"/>
<stop offset="0.15" stop-color="#1ACBAF"/>
<stop offset="0.37" stop-color="#21B8BC"/>
<stop offset="0.62" stop-color="#2E9BD3"/>
<stop offset="0.89" stop-color="#3F71F1"/>
<stop offset="1" stop-color="#475FFF"/>
</linearGradient>
<linearGradient id="paint29_linear_2137_27534" x1="141.895" y1="74.467" x2="159.121" y2="74.467" gradientUnits="userSpaceOnUse">
<stop stop-color="#17D1AA"/>
<stop offset="0.15" stop-color="#1ACBAF"/>
<stop offset="0.37" stop-color="#21B8BC"/>
<stop offset="0.62" stop-color="#2E9BD3"/>
<stop offset="0.89" stop-color="#3F71F1"/>
<stop offset="1" stop-color="#475FFF"/>
</linearGradient>
<linearGradient id="paint30_linear_2137_27534" x1="157.952" y1="88.4905" x2="186.678" y2="49.0149" gradientUnits="userSpaceOnUse">
<stop stop-color="#244ABF"/>
<stop offset="1" stop-color="#4760FF"/>
</linearGradient>
<linearGradient id="paint31_linear_2137_27534" x1="7.85824" y1="1.61393e-06" x2="-4.22991" y2="10.7448" gradientUnits="userSpaceOnUse">
<stop stop-color="#17D1AA"/>
<stop offset="0.15" stop-color="#1ACBAF"/>
<stop offset="0.37" stop-color="#21B8BC"/>
<stop offset="0.62" stop-color="#2E9BD3"/>
<stop offset="0.89" stop-color="#3F71F1"/>
<stop offset="1" stop-color="#475FFF"/>
</linearGradient>
<linearGradient id="paint32_linear_2137_27534" x1="117.767" y1="59.0213" x2="138.684" y2="59.0213" gradientUnits="userSpaceOnUse">
<stop stop-color="#17D1AA"/>
<stop offset="0.15" stop-color="#1ACBAF"/>
<stop offset="0.37" stop-color="#21B8BC"/>
<stop offset="0.62" stop-color="#2E9BD3"/>
<stop offset="0.89" stop-color="#3F71F1"/>
<stop offset="1" stop-color="#475FFF"/>
</linearGradient>
<linearGradient id="paint33_linear_2137_27534" x1="137.264" y1="76.1123" x2="172.314" y2="28.124" gradientUnits="userSpaceOnUse">
<stop stop-color="#244ABF"/>
<stop offset="1" stop-color="#4760FF"/>
</linearGradient>
<linearGradient id="paint34_linear_2137_27534" x1="9.5495" y1="1.96533e-06" x2="-5.16706" y2="13.0541" gradientUnits="userSpaceOnUse">
<stop stop-color="#17D1AA"/>
<stop offset="0.15" stop-color="#1ACBAF"/>
<stop offset="0.37" stop-color="#21B8BC"/>
<stop offset="0.62" stop-color="#2E9BD3"/>
<stop offset="0.89" stop-color="#3F71F1"/>
<stop offset="1" stop-color="#475FFF"/>
</linearGradient>
<linearGradient id="paint35_linear_2137_27534" x1="136.908" y1="49.5282" x2="162.131" y2="49.5282" gradientUnits="userSpaceOnUse">
<stop stop-color="#17D1AA"/>
<stop offset="0.15" stop-color="#1ACBAF"/>
<stop offset="0.37" stop-color="#21B8BC"/>
<stop offset="0.62" stop-color="#2E9BD3"/>
<stop offset="0.89" stop-color="#3F71F1"/>
<stop offset="1" stop-color="#475FFF"/>
</linearGradient>
<linearGradient id="paint36_linear_2137_27534" x1="160.419" y1="70.1251" x2="202.651" y2="12.2678" gradientUnits="userSpaceOnUse">
<stop stop-color="#244ABF"/>
<stop offset="1" stop-color="#4760FF"/>
</linearGradient>
<linearGradient id="paint37_linear_2137_27534" x1="11.5141" y1="2.36881e-06" x2="-6.22454" y2="15.7403" gradientUnits="userSpaceOnUse">
<stop stop-color="#17D1AA"/>
<stop offset="0.15" stop-color="#1ACBAF"/>
<stop offset="0.37" stop-color="#21B8BC"/>
<stop offset="0.62" stop-color="#2E9BD3"/>
<stop offset="0.89" stop-color="#3F71F1"/>
<stop offset="1" stop-color="#475FFF"/>
</linearGradient>
</defs>
</svg>