<svg width="280" height="280" viewBox="0 0 280 280" fill="none" xmlns="http://www.w3.org/2000/svg">
<path fill-rule="evenodd" clip-rule="evenodd" d="M161.362 193.115C162.897 193.115 164.142 194.343 164.142 195.858V260.453C164.142 261.968 162.897 263.196 161.362 263.196C159.827 263.196 158.582 261.968 158.582 260.453V195.858C158.582 194.343 159.827 193.115 161.362 193.115Z" fill="url(#paint0_linear_18611_133549)"/>
<path fill-rule="evenodd" clip-rule="evenodd" d="M224.978 44.0461L206.331 21.3194C204.307 18.8411 201.536 18.5247 200.151 20.6339L154.385 90.8178C149.537 98.2528 151.455 111.435 158.648 120.189C165.84 128.942 175.59 129.996 180.438 122.561L226.204 52.3775C227.536 50.2683 227.003 46.5244 224.978 44.0461ZM161.098 116.392C154.279 108.904 151.775 98.2001 155.451 92.5579C159.127 86.9158 167.651 88.3922 174.418 95.8799C181.237 103.368 183.741 114.072 180.065 119.714C176.389 125.409 167.865 123.932 161.098 116.392Z" fill="url(#paint1_linear_18611_133549)"/>
<path d="M152.895 186.894V197.493C152.895 198.6 153.481 199.602 154.44 200.182L164.882 207.353C167.546 207.67 169.464 206.035 169.464 203.715V194.962L152.895 186.894Z" fill="url(#paint2_linear_18611_133549)"/>
<path d="M150.604 187.578V198.177C150.604 199.284 151.19 200.286 152.149 200.866L162.592 206.983C164.616 208.196 167.174 206.719 167.174 204.399V195.646L150.604 187.578Z" fill="url(#paint3_linear_18611_133549)"/>
<path fill-rule="evenodd" clip-rule="evenodd" d="M164.348 93.2439C159.553 90.5547 155.664 92.7166 155.664 97.9897C155.664 103.263 159.553 109.749 164.348 112.385C169.143 115.074 173.033 112.912 173.033 107.639C173.033 102.366 169.143 95.8805 164.348 93.2439ZM177.668 207.616L151.562 188.211C148.205 186.313 145.488 181.831 145.488 178.14L142.345 75.6848C145.861 74.8411 152.627 74.1556 155.345 75.6848L179.959 89.3946C183.315 91.2929 186.033 95.775 186.033 99.4661V200.128C186.086 203.819 183.049 206.667 177.668 207.616Z" fill="url(#paint4_linear_18611_133549)"/>
<path fill-rule="evenodd" clip-rule="evenodd" d="M160.778 94.6164C155.983 91.9271 152.094 94.0891 152.094 99.3621C152.094 104.635 155.983 111.121 160.778 113.757C165.573 116.447 169.463 114.285 169.463 109.012C169.463 103.739 165.573 97.2529 160.778 94.6164ZM174.524 206.826L146.127 191.007C142.77 189.109 140 184.627 140 180.936V79.641C140 75.9498 142.717 74.4734 146.074 76.3717L174.471 92.1908C177.827 94.089 180.544 98.5711 180.544 102.262V203.557C180.598 207.195 177.881 208.672 174.524 206.826Z" fill="url(#paint5_linear_18611_133549)"/>
<path fill-rule="evenodd" clip-rule="evenodd" d="M167.383 191.744L152.146 183.254C149.908 181.989 148.097 178.983 148.097 176.557V135.375C148.097 132.897 149.908 131.948 152.146 133.16L167.383 141.65C169.621 142.916 171.432 145.921 171.432 148.347V189.529C171.486 192.007 169.621 192.956 167.383 191.744Z" fill="url(#paint6_linear_18611_133549)"/>
<path fill-rule="evenodd" clip-rule="evenodd" d="M217.464 41.6744L198.71 19.0531C196.632 16.5748 193.915 16.3111 192.53 18.4203L147.137 88.8679C142.342 96.3556 144.313 109.485 151.559 118.186C158.805 126.886 168.555 127.888 173.35 120.453L218.742 50.0057C220.074 47.8965 219.488 44.1527 217.464 41.6744ZM155.874 111.331C151.026 106.058 149.215 98.5176 151.772 94.5101C154.329 90.5026 160.35 91.5044 165.198 96.7775C170.046 102.05 171.858 109.591 169.301 113.598C166.743 117.659 160.723 116.604 155.874 111.331Z" fill="url(#paint7_linear_18611_133549)"/>
<path fill-rule="evenodd" clip-rule="evenodd" d="M194.661 17.0486C194.661 17.0486 201.694 16.5741 205.477 20.0543C207.341 21.7416 225.616 44.5738 225.616 44.5738C225.616 44.5738 227.8 47.8431 226.681 51.2706C226.681 51.2706 224.07 49.2141 218.796 49.5305C218.796 49.5305 220.448 45.2066 216.825 40.9882C213.735 37.297 199.882 20.5816 199.882 20.5816C199.882 20.5816 197.591 17.5759 194.661 17.0486Z" fill="url(#paint8_linear_18611_133549)"/>
<path fill-rule="evenodd" clip-rule="evenodd" d="M170.687 124.883C169.781 125.357 165.785 125.357 165.785 125.357C165.785 125.357 167.757 125.252 169.888 123.881C171.859 122.615 172.818 121.192 174.363 118.766L218.797 49.4785C219.063 49.0566 219.543 48.793 220.076 48.793C220.875 48.793 222.153 48.8457 223.645 49.3203C224.924 49.6894 226.895 50.5858 226.682 51.2186C226.362 52.0622 225.616 53.2223 225.616 53.2223L186.084 113.862V111.12L224.764 52.5368C224.924 52.2732 224.817 51.9568 224.498 51.9041L221.461 51.1658C220.395 50.9022 219.276 51.324 218.69 52.2732L174.363 121.824C173.084 123.723 172.072 124.197 170.687 124.883Z" fill="url(#paint9_linear_18611_133549)"/>
<path fill-rule="evenodd" clip-rule="evenodd" d="M179.795 68.6695C179.102 68.5641 178.463 68.9332 177.93 69.7769C177.664 70.146 177.504 70.4624 177.504 70.8842C177.344 71.2533 177.238 71.6751 177.131 72.1497L177.504 72.7298C177.596 72.2288 177.728 71.8458 177.831 71.5468C177.847 71.4997 177.862 71.4546 177.877 71.4115C177.983 71.0951 178.143 70.726 178.356 70.4096C178.836 69.7241 179.315 69.355 179.848 69.5132C180.381 69.6187 180.967 70.146 181.553 71.0424L178.889 75.3135L179.209 75.8408C179.795 76.79 180.381 77.3173 181.02 77.4755C181.606 77.5809 182.139 77.3173 182.565 76.6318C183.045 75.8408 183.205 74.8917 183.098 73.7844C182.992 72.677 182.565 71.5697 181.873 70.5151C181.18 69.4078 180.487 68.775 179.795 68.6695ZM182.565 74.1007C182.565 74.839 182.459 75.5245 182.086 76.1045C181.766 76.6318 181.393 76.79 180.914 76.6318C180.434 76.5263 179.955 76.0518 179.475 75.2608L181.766 71.6224C182.246 72.5188 182.512 73.3098 182.565 74.1007Z" fill="white"/>
<path d="M178.516 82.643C178.729 82.4321 178.942 82.2212 179.102 81.9575C179.369 81.5357 179.528 81.1139 179.582 80.5338C179.635 80.112 179.582 79.4792 179.422 78.741V78.6883L180.221 79.8483L180.541 79.3738L176.225 72.677L175.852 73.2571L178.197 76.9482C178.676 77.7391 178.942 78.4773 179.049 79.321C179.156 80.112 179.049 80.7975 178.729 81.2721C178.569 81.5357 178.41 81.7466 178.197 81.9575L178.516 82.643Z" fill="white"/>
<path d="M204.196 46.9974L201.692 50.9522C201.213 51.6904 200.36 51.5849 199.827 50.7412L196.95 46.2592L200.307 40.9334L204.196 46.9974Z" fill="white"/>
<path d="M205.368 45.0464L204.942 45.7319L203.45 43.4117L204.729 41.3553L205.208 42.0935C205.794 42.9899 205.848 44.3082 205.368 45.0464Z" fill="white"/>
<path d="M202.544 42.0408L203.823 39.9843L202.331 37.6642L201.053 39.7206L202.544 42.0408Z" fill="white"/>
<path d="M195.459 41.1443L195.885 40.4589L197.377 42.779L196.098 44.8355L195.618 44.0972C195.032 43.2008 194.979 41.8826 195.459 41.1443Z" fill="white"/>
<path d="M198.122 41.5662L199.401 39.5097L197.909 37.1896L196.631 39.2461L198.122 41.5662Z" fill="white"/>
<path d="M200.946 35.5022L201.426 36.2404L200.147 38.3496L198.655 36.0295L199.081 35.344C199.561 34.5531 200.413 34.6585 200.946 35.5022Z" fill="white"/>
<path d="M198.176 55.9099L192.368 46.8931L189.651 51.2697L190.024 51.8497L192.422 48.0531L197.803 56.49L198.176 55.9099Z" fill="white"/>
<path fill-rule="evenodd" clip-rule="evenodd" d="M189.758 52.7988C189.065 52.6934 188.426 53.0625 187.893 53.9062C187.68 54.1698 187.467 54.5389 187.52 55.0135C187.36 55.3826 187.254 55.8045 187.147 56.279L187.52 56.8591C187.612 56.358 187.744 55.9751 187.847 55.6761C187.863 55.629 187.878 55.5839 187.893 55.5408C187.999 55.2244 188.159 54.8553 188.372 54.5389C188.852 53.8534 189.331 53.4843 189.864 53.6425C190.397 53.748 190.983 54.2753 191.569 55.1717L188.852 59.4428L189.172 59.9701C189.758 60.9193 190.344 61.4466 190.983 61.6048C191.569 61.7102 192.102 61.4466 192.528 60.7611C193.008 59.9701 193.167 59.021 193.061 57.9137C192.954 56.8063 192.528 55.699 191.835 54.6444C191.143 53.5371 190.45 52.9043 189.758 52.7988ZM192.581 58.1246C192.581 58.8628 192.475 59.5483 192.102 60.1283C191.782 60.6556 191.356 60.8666 190.93 60.6556C190.45 60.5502 189.971 60.0756 189.491 59.2847L191.782 55.6463C192.262 56.5427 192.528 57.3336 192.581 58.1246Z" fill="white"/>
<path fill-rule="evenodd" clip-rule="evenodd" d="M188.372 66.6669C188.639 66.5087 188.958 66.245 189.225 65.8232C189.704 65.0323 189.917 64.1358 189.864 63.134C189.704 62.0794 189.278 60.972 188.532 59.812C187.786 58.7046 187.147 58.0191 186.508 57.9137C185.815 57.7555 185.282 58.0719 184.75 58.9155C184.217 59.7592 184.057 60.8138 184.27 62.0266L183.524 61.1302L183.311 61.4993L189.491 71.149L189.811 70.6217L188.266 68.1961C187.946 67.6688 187.627 67.1942 187.254 66.6669V66.6142C187.68 66.7723 188.053 66.7724 188.372 66.6669ZM189.278 63.0285C189.385 63.9249 189.225 64.6631 188.852 65.2959C188.426 65.9814 187.999 66.2978 187.52 66.0341C187.04 65.9287 186.454 65.3486 185.815 64.294L185.762 64.1886C185.069 63.134 184.75 62.2376 184.643 61.4993C184.536 60.7611 184.696 60.0756 185.122 59.3901C185.922 58.0719 186.934 58.3882 188.159 60.2865C188.799 61.2884 189.172 62.1848 189.278 63.0285Z" fill="white"/>
<path fill-rule="evenodd" clip-rule="evenodd" d="M183.684 73.5218L183.95 73.9437L185.176 71.9926C185.314 71.9016 185.491 71.6536 185.709 71.3501C185.743 71.3019 185.779 71.2523 185.815 71.2017C186.241 70.5689 186.401 69.8834 186.401 69.0925C186.348 68.3543 186.135 67.616 185.709 66.9305C185.389 66.5087 185.069 66.1923 184.75 66.0341C184.377 65.8759 184.057 65.9287 183.737 66.0869C183.791 65.2432 183.684 64.5577 183.418 64.1358C183.311 63.9249 183.151 63.8195 182.991 63.7667C182.885 63.714 182.672 63.7667 182.512 63.8195C182.725 63.2922 182.778 62.7121 182.778 62.1848C182.778 61.6575 182.618 61.1302 182.299 60.6556C181.979 60.0756 181.553 59.812 181.073 59.9174C180.594 60.0229 180.114 60.4447 179.635 61.1829C179.049 62.1321 178.676 63.0285 178.623 63.9249C178.569 64.7686 178.729 65.5596 179.209 66.2978C179.582 66.8778 180.008 67.1415 180.381 67.0887C180.807 67.036 181.233 66.6669 181.606 66.0341L182.245 65.0323C182.459 64.6631 182.618 64.5049 182.778 64.4522C182.938 64.3995 183.045 64.5049 183.204 64.7159C183.364 64.9268 183.418 65.1377 183.471 65.4541C183.471 65.7177 183.471 66.0341 183.418 66.4032C183.364 66.456 183.204 66.6669 183.045 66.9305C182.618 67.5633 182.459 68.2488 182.459 69.0397C182.459 69.8307 182.672 70.5162 183.098 71.2017C183.418 71.729 183.844 72.0454 184.377 72.2036L183.684 73.5218ZM179.955 61.7102C180.7 60.4975 181.393 60.392 181.979 61.2884C182.565 62.2376 182.565 63.2922 181.873 64.3995L181.286 65.3486C180.967 65.8759 180.647 66.1923 180.381 66.245C180.114 66.2978 179.848 66.1396 179.582 65.7177C178.836 64.6104 178.996 63.2394 179.955 61.7102ZM184.323 66.7196C184.696 66.7196 185.069 66.9833 185.389 67.5106C185.709 68.0379 185.922 68.6179 185.922 69.1979C185.975 69.778 185.868 70.3053 185.549 70.7799C185.229 71.2544 184.909 71.4653 184.536 71.4653C184.217 71.4653 183.844 71.2017 183.471 70.6217C183.151 70.0416 182.938 69.5671 182.938 68.987C182.885 68.4597 183.045 67.8797 183.364 67.4051C183.631 66.9305 183.95 66.7196 184.323 66.7196Z" fill="white"/>
<path fill-rule="evenodd" clip-rule="evenodd" d="M98.5 151C99.8807 151 101 152.163 101 153.599V214.401C101 215.837 99.8807 217 98.5 217C97.1193 217 96 215.837 96 214.401V153.599C96 152.163 97.1193 151 98.5 151Z" fill="url(#paint10_linear_18611_133549)"/>
<path d="M94.0378 153.865V159.982C94.0378 160.626 94.3632 161.212 94.9251 161.534L100.958 165.661C102.496 165.837 103.591 164.9 103.591 163.553V158.519L94.0378 153.865Z" fill="url(#paint11_linear_18611_133549)"/>
<path d="M92.7388 154.274V160.392C92.7388 161.036 93.0641 161.621 93.626 161.943L99.6593 165.485C100.842 166.158 102.321 165.339 102.321 163.992V158.958L92.7388 154.274Z" fill="url(#paint12_linear_18611_133549)"/>
<path d="M131.658 96.4927C131.658 92.5704 128.346 87.565 124.205 85.2526L78.5707 60.021C75.1105 57.972 68.2195 59.6405 68.2195 59.6405L70.0531 110.514C70.0236 111.919 70.408 113.528 71.1474 115.109L83.8942 142.829C83.8942 142.829 88.0052 151.113 92.5006 153.63L107.643 165.075C107.791 165.075 107.968 165.104 108.116 165.104C111.991 165.221 115.806 163.494 118.674 160.538L130.534 148.478C131.214 147.659 131.599 146.488 131.658 145.112V96.4927Z" fill="url(#paint13_linear_18611_133549)"/>
<path d="M127.606 98.0737C127.606 94.1514 124.294 89.1461 120.153 86.8337L73.4545 60.5482C69.314 58.2358 66.0016 59.4945 66.0016 63.4168V112.065C65.972 113.47 66.3565 115.08 67.0959 116.661L79.8427 144.381C79.8427 144.381 83.9536 152.664 88.449 155.182L104.922 164.46C109.388 166.978 113.351 163.612 113.351 163.612L126.483 150.03C127.163 149.21 127.547 148.039 127.606 146.664V98.0737Z" fill="url(#paint14_linear_18611_133549)"/>
<path d="M74.402 80.13L119.179 105.332C120.509 106.093 121.604 107.879 121.604 109.343V141.248C121.604 142.712 120.509 143.268 119.179 142.507L74.402 117.304C73.0711 116.543 71.9768 114.758 71.9768 113.294V81.3887C71.9768 79.9544 73.0415 79.369 74.402 80.13Z" fill="url(#paint15_linear_18611_133549)"/>
<path fill-rule="evenodd" clip-rule="evenodd" d="M102.499 109.138L99.7777 107.616L93.8331 104.279C93.4782 103.196 93.1825 101.761 93.4191 100.854C93.5965 100.21 94.0106 99.8588 94.75 99.8002C95.5485 99.7417 96.2879 100.034 96.9681 100.678C97.8258 101.498 98.5356 102.786 99.0088 103.781C99.1566 104.132 99.5115 104.337 99.8664 104.308L101.109 104.22C101.375 104.191 101.552 103.898 101.434 103.635C100.783 102.142 99.6003 99.8295 97.8258 98.161C96.4062 96.8438 94.8978 96.1999 93.4487 96.2877C92.0586 96.3755 91.1122 97.1658 90.7869 98.5708C90.4912 99.8002 90.6686 101.264 90.9644 102.581L89.6631 101.849C89.3673 101.703 89.042 101.937 89.042 102.288V114.289C89.042 114.641 89.1603 114.992 89.3969 115.226L96.3174 122.924C96.6723 123.305 97.116 123.51 97.6188 123.539L102.735 123.598C103.77 123.598 104.628 122.69 104.628 121.578V111.479C104.628 110.777 104.273 110.162 103.711 109.84L102.499 109.138ZM101.878 120.114L96.7906 120.056L91.7037 114.406V106.211L101.848 111.918V120.114H101.878Z" fill="white"/>
<path fill-rule="evenodd" clip-rule="evenodd" d="M79.666 72.7829V71.817C79.666 70.3827 80.849 69.9143 82.3277 70.7632C83.7769 71.6121 84.9599 73.4561 84.9599 74.8904V75.8564C85.4627 76.2369 85.9655 76.6759 85.9655 76.8223V81.8862C85.9655 81.8862 85.9655 82.0326 85.8176 82.0033C85.3946 81.9405 84.1095 81.6382 83.217 81.4282C82.8614 81.3446 82.5681 81.2756 82.4165 81.2422C82.3277 81.2422 82.3277 81.2422 82.2982 81.213C82.2686 81.213 82.239 81.1837 82.1799 81.1252C81.6475 80.6275 79.3702 78.4908 78.7787 77.9346C78.6309 77.7882 78.6309 77.6419 78.6309 77.6419V72.5487C78.6309 72.4024 79.1632 72.578 79.666 72.7829ZM80.1688 77.6712C80.1983 77.7297 82.2094 79.6031 82.2094 79.6031L82.2982 79.6909C82.3277 79.6909 82.4165 79.7201 82.4165 79.7201C82.4165 79.7201 84.4276 80.1885 84.4571 80.1885C84.4877 80.2036 84.5024 80.2109 84.5096 80.2064C84.5163 80.2022 84.5163 80.1875 84.5163 80.1592V76.9979C84.5163 76.8223 83.5107 76.1491 82.2982 75.4466C81.1152 74.7441 80.1096 74.2465 80.1096 74.4221V77.5834C80.1096 77.598 80.117 77.6053 80.1281 77.6163C80.1392 77.6273 80.154 77.6419 80.1688 77.6712ZM82.3277 71.9926C81.4701 71.495 80.9377 71.6999 80.9377 72.5487H80.9673V73.3976C81.9433 73.8952 82.7418 74.3928 83.7178 75.0075V74.1586C83.7178 73.3098 83.1854 72.4902 82.3277 71.9926Z" fill="white"/>
<path d="M88.0637 77.5542V78.7836L89.365 79.5447V83.0279L90.8142 83.8475V80.3935L92.0859 81.1253V79.8959L88.0637 77.5542Z" fill="white"/>
<path fill-rule="evenodd" clip-rule="evenodd" d="M92.7086 80.248V84.9606L94.1578 85.8095V84.3166L94.6902 84.6093L95.3408 86.4827L96.997 87.4486L96.1394 85.2826C96.5238 85.3118 96.997 85.1655 96.997 84.3459C96.997 83.4678 96.4055 82.3847 95.2817 81.7408L92.7086 80.248ZM94.1578 82.3262L95.0451 82.8531C95.2817 82.9994 95.5183 83.2336 95.5183 83.497C95.5183 83.7605 95.2817 83.7312 95.0451 83.6141L94.1578 83.0872V82.3262Z" fill="white"/>
<path d="M97.7349 83.1752V87.8878L101.373 89.9953V88.7659L99.184 87.478V86.9804L101.313 88.2098V86.9804L99.184 85.7217V85.2534L101.373 86.5413V85.2827L97.7349 83.1752Z" fill="white"/>
<path d="M102.112 86.9801V85.7215L105.838 87.9168V89.0291L104.034 90.317L105.897 91.4V92.6587L102.112 90.4634V89.3218L103.945 88.0339L102.112 86.9801Z" fill="white"/>
<path fill-rule="evenodd" clip-rule="evenodd" d="M106.252 90.5214C106.252 91.9557 107.406 93.6241 108.885 94.473C110.363 95.3219 111.517 94.9999 111.517 93.5656C111.517 92.1021 110.363 90.4629 108.885 89.5847C107.406 88.7359 106.252 89.0579 106.252 90.5214ZM107.731 91.3703C107.731 90.7263 108.175 90.4629 108.885 90.8727C109.594 91.2825 110.038 92.0728 110.038 92.7167C110.038 93.3607 109.594 93.6242 108.885 93.2144C108.175 92.8046 107.731 92.0142 107.731 91.3703Z" fill="white"/>
<path fill-rule="evenodd" clip-rule="evenodd" d="M112.109 96.2584V91.5457L114.682 93.0386C115.806 93.6825 116.397 94.7656 116.397 95.6437C116.397 96.4633 115.924 96.6096 115.54 96.5804L116.397 98.7464L114.741 97.7805L114.09 95.9071L113.558 95.6144V97.1072L112.109 96.2584ZM114.445 94.1801L113.558 93.6533V94.4143L114.445 94.9412C114.682 95.0583 114.919 95.0875 114.919 94.8241C114.919 94.5607 114.682 94.3265 114.445 94.1801Z" fill="white"/>
<defs>
<linearGradient id="paint0_linear_18611_133549" x1="164.391" y1="305.631" x2="190.678" y2="302.033" gradientUnits="userSpaceOnUse">
<stop stop-color="#244ABF"/>
<stop offset="1" stop-color="#4760FF"/>
</linearGradient>
<linearGradient id="paint1_linear_18611_133549" x1="230.308" y1="193.077" x2="378.984" y2="14.8361" gradientUnits="userSpaceOnUse">
<stop stop-color="#244ABF"/>
<stop offset="1" stop-color="#4760FF"/>
</linearGradient>
<linearGradient id="paint2_linear_18611_133549" x1="170.207" y1="219.805" x2="197.304" y2="182.011" gradientUnits="userSpaceOnUse">
<stop stop-color="#244ABF"/>
<stop offset="1" stop-color="#4760FF"/>
</linearGradient>
<linearGradient id="paint3_linear_18611_133549" x1="160.706" y1="187.578" x2="149.002" y2="201.31" gradientUnits="userSpaceOnUse">
<stop stop-color="#17D1AA"/>
<stop offset="0.15" stop-color="#1ACBAF"/>
<stop offset="0.37" stop-color="#21B8BC"/>
<stop offset="0.62" stop-color="#2E9BD3"/>
<stop offset="0.89" stop-color="#3F71F1"/>
<stop offset="1" stop-color="#475FFF"/>
</linearGradient>
<linearGradient id="paint4_linear_18611_133549" x1="168.979" y1="74.7771" x2="108.541" y2="102.702" gradientUnits="userSpaceOnUse">
<stop stop-color="#17D1AA"/>
<stop offset="0.15" stop-color="#1ACBAF"/>
<stop offset="0.37" stop-color="#21B8BC"/>
<stop offset="0.62" stop-color="#2E9BD3"/>
<stop offset="0.89" stop-color="#3F71F1"/>
<stop offset="1" stop-color="#475FFF"/>
</linearGradient>
<linearGradient id="paint5_linear_18611_133549" x1="140" y1="207.623" x2="180.545" y2="207.623" gradientUnits="userSpaceOnUse">
<stop stop-color="#17D1AA"/>
<stop offset="0.15" stop-color="#1ACBAF"/>
<stop offset="0.37" stop-color="#21B8BC"/>
<stop offset="0.62" stop-color="#2E9BD3"/>
<stop offset="0.89" stop-color="#3F71F1"/>
<stop offset="1" stop-color="#475FFF"/>
</linearGradient>
<linearGradient id="paint6_linear_18611_133549" x1="172.48" y1="228.378" x2="249.684" y2="176.244" gradientUnits="userSpaceOnUse">
<stop stop-color="#244ABF"/>
<stop offset="1" stop-color="#4760FF"/>
</linearGradient>
<linearGradient id="paint7_linear_18611_133549" x1="144.518" y1="125.433" x2="219.458" y2="125.433" gradientUnits="userSpaceOnUse">
<stop stop-color="#17D1AA"/>
<stop offset="0.15" stop-color="#1ACBAF"/>
<stop offset="0.37" stop-color="#21B8BC"/>
<stop offset="0.62" stop-color="#2E9BD3"/>
<stop offset="0.89" stop-color="#3F71F1"/>
<stop offset="1" stop-color="#475FFF"/>
</linearGradient>
<linearGradient id="paint8_linear_18611_133549" x1="194.661" y1="51.2707" x2="227" y2="51.2707" gradientUnits="userSpaceOnUse">
<stop stop-color="#17D1AA"/>
<stop offset="0.15" stop-color="#1ACBAF"/>
<stop offset="0.37" stop-color="#21B8BC"/>
<stop offset="0.62" stop-color="#2E9BD3"/>
<stop offset="0.89" stop-color="#3F71F1"/>
<stop offset="1" stop-color="#475FFF"/>
</linearGradient>
<linearGradient id="paint9_linear_18611_133549" x1="202.92" y1="48.793" x2="157.458" y2="99.6057" gradientUnits="userSpaceOnUse">
<stop stop-color="#17D1AA"/>
<stop offset="0.15" stop-color="#1ACBAF"/>
<stop offset="0.37" stop-color="#21B8BC"/>
<stop offset="0.62" stop-color="#2E9BD3"/>
<stop offset="0.89" stop-color="#3F71F1"/>
<stop offset="1" stop-color="#475FFF"/>
</linearGradient>
<linearGradient id="paint10_linear_18611_133549" x1="101.224" y1="256.964" x2="124.904" y2="253.868" gradientUnits="userSpaceOnUse">
<stop stop-color="#244ABF"/>
<stop offset="1" stop-color="#4760FF"/>
</linearGradient>
<linearGradient id="paint11_linear_18611_133549" x1="104.019" y1="172.838" x2="119.64" y2="151.049" gradientUnits="userSpaceOnUse">
<stop stop-color="#244ABF"/>
<stop offset="1" stop-color="#4760FF"/>
</linearGradient>
<linearGradient id="paint12_linear_18611_133549" x1="98.5805" y1="154.274" x2="91.8276" y2="162.213" gradientUnits="userSpaceOnUse">
<stop stop-color="#17D1AA"/>
<stop offset="0.15" stop-color="#1ACBAF"/>
<stop offset="0.37" stop-color="#21B8BC"/>
<stop offset="0.62" stop-color="#2E9BD3"/>
<stop offset="0.89" stop-color="#3F71F1"/>
<stop offset="1" stop-color="#475FFF"/>
</linearGradient>
<linearGradient id="paint13_linear_18611_133549" x1="106.894" y1="59" x2="44.4503" y2="111.448" gradientUnits="userSpaceOnUse">
<stop stop-color="#17D1AA"/>
<stop offset="0.15" stop-color="#1ACBAF"/>
<stop offset="0.37" stop-color="#21B8BC"/>
<stop offset="0.62" stop-color="#2E9BD3"/>
<stop offset="0.89" stop-color="#3F71F1"/>
<stop offset="1" stop-color="#475FFF"/>
</linearGradient>
<linearGradient id="paint14_linear_18611_133549" x1="66.0001" y1="165.395" x2="127.606" y2="165.395" gradientUnits="userSpaceOnUse">
<stop stop-color="#17D1AA"/>
<stop offset="0.15" stop-color="#1ACBAF"/>
<stop offset="0.37" stop-color="#21B8BC"/>
<stop offset="0.62" stop-color="#2E9BD3"/>
<stop offset="0.89" stop-color="#3F71F1"/>
<stop offset="1" stop-color="#475FFF"/>
</linearGradient>
<linearGradient id="paint15_linear_18611_133549" x1="123.828" y1="181.026" x2="207.865" y2="66.8935" gradientUnits="userSpaceOnUse">
<stop stop-color="#244ABF"/>
<stop offset="1" stop-color="#4760FF"/>
</linearGradient>
</defs>
</svg>
