<svg width="56" height="48" viewBox="0 0 56 48" fill="none" xmlns="http://www.w3.org/2000/svg">
<path d="M26.4594 19.4882L-0.000732422 0H8.31098L27.9303 14.0028L47.6476 0H56.0008L29.4085 19.4882C28.9654 19.8 28.4434 19.956 27.9303 19.956C27.4198 19.956 26.9004 19.8 26.4594 19.4882Z" fill="#4B6DDE"/>
<path d="M36.8056 41.8013L4.43689 18.7441V12.1371L42.0263 38.7001L36.8056 41.8013Z" fill="#4B6DDE"/>
<path d="M38.3724 28.3169L49.8581 19.8221V13.4847L33.9348 25.0808L38.3724 28.3169Z" fill="#4B6DDE"/>
<path d="M48.5524 35.5984L49.8576 34.5197V28.3172L44.1147 32.3623L48.5524 35.5984Z" fill="#4B6DDE"/>
<path d="M4.43689 33.0337L25.842 48.0007L31.1933 45.0342L4.43689 26.157V33.0337Z" fill="#4B6DDE"/>
</svg>
