<svg width="19" height="20" viewBox="0 0 19 20" fill="none" xmlns="http://www.w3.org/2000/svg">
<path d="M17.8031 5.50607C18.2795 5.23173 18.4472 4.61967 18.1268 4.17294C17.0845 2.71918 15.6672 1.56633 14.018 0.842713C12.0639 -0.0146962 9.88672 -0.224522 7.80484 0.243912C5.72295 0.712346 3.8455 1.83447 2.44697 3.44624C1.04844 5.05801 0.202173 7.07489 0.0318895 9.20202C-0.138394 11.3292 0.376236 13.455 1.50054 15.2687C2.62485 17.0824 4.29987 18.4889 6.28073 19.2826C8.26158 20.0763 10.4444 20.2155 12.51 19.6799C14.2533 19.2278 15.836 18.3151 17.0963 17.0457C17.4836 16.6556 17.4155 16.0247 16.9888 15.6781C16.5622 15.3315 15.9392 15.4017 15.5424 15.7821C14.557 16.7266 13.3422 17.4076 12.0103 17.753C10.3559 18.182 8.60763 18.0705 7.02109 17.4348C5.43456 16.7991 4.09297 15.6726 3.19247 14.2199C2.29197 12.7672 1.87978 11.0646 2.01617 9.36087C2.15256 7.65717 2.83036 6.04177 3.9505 4.75085C5.07063 3.45992 6.57435 2.56117 8.24181 2.18599C9.90927 1.8108 11.653 1.97886 13.2181 2.66559C14.4781 3.21843 15.5691 4.08406 16.3917 5.17331C16.7229 5.61198 17.3268 5.7804 17.8031 5.50607Z" fill="#242838"/>
</svg>
