<svg width="280" height="280" viewBox="0 0 280 280" fill="none" xmlns="http://www.w3.org/2000/svg">
<path opacity="0.6" d="M76.4805 99.4133C90.316 107.288 90.316 120.055 76.4805 127.93C62.6449 135.805 40.2125 135.805 26.3769 127.93C12.541 120.055 12.541 107.288 26.3769 99.4133C40.2125 91.5384 62.6449 91.5384 76.4805 99.4133Z" fill="#52FCFF"/>
<path fill-rule="evenodd" clip-rule="evenodd" d="M53.7746 116.064C42.0974 110.412 32.6349 94.7166 32.6349 80.8838C32.6349 75.6965 33.9771 71.5732 36.1918 68.7136L34.3798 69.2456L38.6748 66.3194C38.742 66.2529 38.8258 66.203 38.9097 66.1531C38.9936 66.1033 39.0775 66.0534 39.1446 65.9869L39.2788 65.8539C43.1041 63.4597 48.2045 63.2602 53.7746 65.9869C65.4517 71.6397 74.9142 87.3347 74.9142 101.168C74.9142 107.751 72.7667 112.673 69.277 115.466L69.2099 115.532C69.0085 115.665 68.824 115.798 68.6394 115.931C68.4549 116.064 68.2703 116.197 68.069 116.33L63.9082 119.257L64.1095 117.86C61.0225 118.392 57.5327 117.86 53.7746 116.064ZM53.7746 77.3591C47.3991 74.2999 42.2317 77.8911 42.2317 85.4726C42.2317 92.9875 47.3991 101.633 53.7746 104.759C60.15 107.818 65.3175 104.227 65.3175 96.6452C65.3175 89.0638 60.15 80.4183 53.7746 77.3591Z" fill="url(#paint0_linear_20219_207938)"/>
<path fill-rule="evenodd" clip-rule="evenodd" d="M27.8701 84.4085C27.8701 70.6421 37.3326 63.9917 49.0097 69.5781C60.6198 75.1644 70.0823 90.9258 70.1494 104.759C70.1494 118.525 60.6869 125.175 49.0097 119.589C37.3326 113.936 27.8701 98.2413 27.8701 84.4085ZM37.4668 88.9307C37.4668 96.5122 42.6343 105.158 49.0097 108.217C55.3852 111.343 60.5527 107.685 60.5527 100.103C60.5527 92.5219 55.3852 83.8764 49.0097 80.8172C42.6343 77.7581 37.4668 81.3493 37.4668 88.9307Z" fill="url(#paint1_linear_20219_207938)"/>
<ellipse cx="15.8739" cy="25.3222" rx="15.8739" ry="25.3222" transform="matrix(0.886168 -0.463365 0.471249 0.882 23 79.332)" fill="url(#paint2_linear_20219_207938)"/>
<path fill-rule="evenodd" clip-rule="evenodd" d="M52.6351 98.7411L42.3492 92.5276C41.2205 95.2867 39.7863 98.7084 38.6077 101.434C38.4735 101.633 38.2721 101.633 38.0037 101.5C37.601 101.301 37.5339 101.168 37.5339 100.769V100.636L41.2114 91.8402L37.9366 89.862C37.7353 89.729 37.601 89.463 37.601 89.197V88.5984C37.601 88.3324 37.7353 88.2659 37.9366 88.3324L41.7219 90.6191L42.9739 87.6248L39.7486 85.6723C39.5472 85.5393 39.413 85.2732 39.413 85.0072V84.3422C39.413 84.0762 39.5472 84.0097 39.7486 84.0762L43.5064 86.351L46.4596 79.2879C46.728 78.7559 47.3991 78.3568 48.0031 78.7559C48.6742 79.1549 49.0097 79.9529 49.2111 80.751L52.2819 91.6634L55.7878 93.7858C55.9892 93.9188 56.1234 94.1848 56.1234 94.4508V95.0493C56.1234 95.3819 55.9892 95.5149 55.7878 95.3819L52.8233 93.5872L54.0906 98.0908L57.5327 100.17C57.734 100.303 57.8683 100.569 57.8683 100.835V101.434C57.9354 101.7 57.734 101.833 57.5327 101.7L54.6092 99.9337L57.8011 111.276C58.0025 111.808 58.2709 112.673 57.734 112.806C56.9958 113.005 56.6603 112.473 56.526 112.008L52.6351 98.7411ZM50.9799 92.4713L52.2058 96.9522L42.9759 91.3766L44.1893 88.3605L50.9799 92.4713ZM50.4565 90.5584L44.7057 87.077L47.0635 81.2165C47.3991 80.2854 47.7346 80.6845 48.1373 82.0811L50.4565 90.5584Z" fill="white"/>
<path opacity="0.6" d="M234.602 211.565C248.466 218.985 248.466 231.015 234.602 238.435C220.739 245.855 198.261 245.855 184.398 238.435C170.534 231.015 170.534 218.985 184.398 211.565C198.261 204.145 220.739 204.145 234.602 211.565Z" fill="#52FCFF"/>
<path opacity="0.6" d="M262.735 135.004L243.37 137.394L179.312 100.442C174.933 97.9153 169.536 97.9153 165.158 100.442L62.4019 159.716L28.6531 163.879L29.7691 182.345C29.7691 184.562 30.8676 186.779 33.0647 188.048L38.8812 191.402L113.654 234.532C115.524 235.612 117.649 236.06 119.73 235.877C121.207 235.747 122.661 235.299 123.99 234.532L252.174 160.591L258.159 157.138C260.269 155.924 261.345 153.815 261.394 151.684L262.735 135.004Z" fill="#52FCFF"/>
<path d="M262 124.5L243.644 133.527L247.302 136.748L125.831 207.194C124.514 207.958 123.073 208.404 121.609 208.531V226.582C123.073 226.455 124.514 226.009 125.831 225.245L258.789 148.14C260.93 146.899 262 144.725 262 142.551C263.764 136.665 263.765 130.388 262 124.5Z" fill="url(#paint3_linear_20219_207938)"/>
<path d="M114.158 207.197L40.8073 165.018L43.7934 162.743L30.1186 155.072L29.8668 156.215C28.6323 161.808 28.7184 167.612 30.1186 173.171C30.1184 175.385 31.2193 177.599 33.4205 178.866L114.158 225.292C116.031 226.371 118.161 226.817 120.245 226.633V208.537C118.161 208.722 116.031 208.276 114.158 207.197Z" fill="url(#paint4_linear_20219_207938)"/>
<path d="M114.158 207.197L40.8073 165.018L43.7934 162.743L30.1186 155.072L29.8668 156.215C28.6323 161.808 28.7184 167.612 30.1186 173.171C30.1184 175.385 31.2193 177.599 33.4205 178.866L114.158 225.292C116.031 226.371 118.161 226.817 120.245 226.633V208.537C118.161 208.722 116.031 208.276 114.158 207.197Z" fill="url(#paint5_linear_20219_207938)"/>
<path opacity="0.8" d="M30.5782 155.744L30.4664 156.251C29.255 161.746 29.3409 167.531 30.7149 172.988C30.7244 173.026 30.7294 173.065 30.7294 173.106C30.7296 175.311 31.8732 177.283 33.7886 178.387L114.481 224.817C116.246 225.832 118.253 226.276 120.282 226.094C121.72 225.969 123.087 225.542 124.35 224.817L258.691 147.514C260.572 146.432 261.694 144.495 261.694 142.328C261.694 142.29 261.699 142.252 261.708 142.214C263.421 136.543 263.474 130.582 261.874 124.915L244.491 133.397L247.643 136.151C247.76 136.253 247.82 136.406 247.805 136.559C247.789 136.712 247.701 136.853 247.566 136.929L124.831 207.55C123.452 208.345 121.95 208.817 120.367 208.954C118.138 209.152 115.936 208.667 113.999 207.55L40.6891 165.371C40.5498 165.288 40.4596 165.145 40.4492 164.985C40.4387 164.825 40.5092 164.669 40.6372 164.573L43.0413 162.738L30.5782 155.744ZM119.393 227.096C117.502 227.096 115.654 226.601 113.999 225.65L33.3065 179.22C31.1065 177.953 29.7864 175.694 29.7659 173.164C28.369 167.582 28.2857 161.666 29.5246 156.047L29.7764 154.904C29.8092 154.754 29.9108 154.63 30.0503 154.569C30.1898 154.506 30.3505 154.515 30.4837 154.588L44.151 162.257C44.2922 162.336 44.384 162.483 44.3954 162.643C44.407 162.805 44.3364 162.959 44.2076 163.058L41.7968 164.899L114.481 206.721C116.245 207.736 118.25 208.179 120.282 207.997C121.725 207.873 123.093 207.442 124.349 206.721L246.501 136.431L243.311 133.642C243.19 133.537 243.13 133.378 243.152 133.218C243.173 133.058 243.273 132.921 243.417 132.851L261.964 123.801C262.091 123.741 262.239 123.737 262.369 123.792C262.499 123.849 262.597 123.961 262.638 124.095C264.447 130.081 264.454 136.412 262.658 142.402C262.633 144.884 261.335 147.102 259.173 148.347L124.831 225.65C123.446 226.445 121.944 226.917 120.366 227.051C120.041 227.08 119.717 227.096 119.393 227.096Z" fill="#52FCFF"/>
<path d="M258.929 129.9L124.513 207.197C123.182 207.963 121.726 208.41 120.246 208.537C118.161 208.722 116.032 208.276 114.158 207.197L33.4206 160.771C29.0183 158.237 29.0183 151.91 33.4206 149.376L165.757 73.2758C170.144 70.7518 175.55 70.7518 179.937 73.2758L258.929 118.7C263.257 121.192 263.257 127.411 258.929 129.9Z" fill="url(#paint6_linear_20219_207938)"/>
<path d="M258.929 129.9L124.513 207.197C123.182 207.963 121.726 208.41 120.246 208.537C118.161 208.722 116.032 208.276 114.158 207.197L33.4206 160.771C29.0183 158.237 29.0183 151.91 33.4206 149.376L165.757 73.2758C170.144 70.7518 175.55 70.7518 179.937 73.2758L258.929 118.7C263.257 121.192 263.257 127.411 258.929 129.9Z" fill="url(#paint7_linear_20219_207938)"/>
<path opacity="0.8" d="M173.003 71.7847C170.637 71.7847 168.271 72.3963 166.161 73.6162L33.9403 149.977C32.0255 151.085 30.8822 153.067 30.8822 155.276C30.8822 157.488 32.0255 159.47 33.9403 160.578L114.607 207.165C116.371 208.183 118.375 208.628 120.406 208.446C121.848 208.321 123.215 207.889 124.471 207.165L258.769 129.6C260.648 128.515 261.771 126.571 261.771 124.401C261.772 122.227 260.649 120.283 258.769 119.198L179.846 73.6162C177.735 72.3963 175.369 71.7847 173.003 71.7847ZM119.523 209.451C117.629 209.451 115.78 208.955 114.124 207.998L33.4583 161.411C31.2418 160.13 29.9184 157.838 29.9184 155.276C29.9184 152.718 31.2418 150.425 33.4583 149.144L165.679 72.7805C170.197 70.1678 175.81 70.1678 180.328 72.7805L259.251 118.362C261.433 119.623 262.735 121.881 262.735 124.401C262.734 126.92 261.432 129.175 259.251 130.436L124.953 207.998C123.574 208.795 122.073 209.269 120.49 209.406C120.167 209.435 119.844 209.451 119.523 209.451Z" fill="#52FCFF"/>
<path opacity="0.8" d="M172.541 115.617L176.404 117.779C181.615 120.698 188.034 120.704 193.249 117.791L222.634 101.385C223.801 100.732 223.803 99.1004 222.636 98.4445L207.599 90.023C206.888 89.6258 206.011 89.6258 205.298 90.023L172.546 108.31C169.643 109.93 169.641 113.991 172.541 115.617Z" fill="#52FCFF"/>
<path opacity="0.8" d="M168.72 123.975C189.474 136.035 189.474 155.585 168.72 167.644C147.967 179.698 114.319 179.698 93.565 167.644C72.8117 155.585 72.8117 136.035 93.565 123.975C114.319 111.916 147.967 111.916 168.72 123.975Z" fill="#52FCFF"/>
<path d="M191.443 107.77C195.397 109.984 195.397 113.575 191.443 115.79C187.49 118.005 181.081 118.005 177.128 115.79C173.175 113.575 173.175 109.984 177.128 107.77C181.081 105.555 187.49 105.555 191.443 107.77Z" fill="url(#paint8_linear_20219_207938)"/>
<path d="M178 215.645L241.884 216.111V223.915C241.884 228.078 238.758 232.233 232.524 235.407C220.047 241.739 199.828 241.739 187.351 235.407C181.117 232.241 178 228.078 178 223.915V215.645Z" fill="url(#paint9_linear_20219_207938)"/>
<path d="M232.526 227.629C220.05 233.933 199.831 233.933 187.354 227.629C174.877 221.324 174.886 211.08 187.354 204.775C199.822 198.471 220.05 198.471 232.526 204.775C245.003 211.08 245.003 221.308 232.526 227.629Z" fill="url(#paint10_linear_20219_207938)"/>
<path d="M209.316 230.129C224.536 230.129 236.874 223.644 236.874 215.645C236.874 207.646 224.536 201.161 209.316 201.161C194.096 201.161 181.758 207.646 181.758 215.645C181.758 223.644 194.096 230.129 209.316 230.129Z" fill="url(#paint11_linear_20219_207938)"/>
<path fill-rule="evenodd" clip-rule="evenodd" d="M221.662 210.621C221.083 210.324 220.156 210.383 219.576 210.681L216.447 212.288L213.434 211.633L215.404 210.621C215.984 210.324 216.099 209.848 215.52 209.55C214.941 209.253 214.013 209.253 213.434 209.55L210.595 211.008L198.194 208.33C197.615 208.211 197.035 208.271 196.572 208.509C196.166 208.717 196.05 209.074 196.224 209.342L201.555 215.591L198.774 217.019C198.194 217.317 198.078 217.793 198.658 218.091C199.237 218.388 200.164 218.388 200.744 218.091L202.772 217.049L204.047 218.597L200.976 220.174C200.396 220.471 200.28 220.948 200.86 221.245C201.439 221.543 202.366 221.543 202.946 221.245L205.322 220.025L209.783 225.173C210.073 225.56 210.942 225.709 211.696 225.56C211.869 225.53 211.985 225.471 212.101 225.411C212.507 225.203 212.681 224.876 212.449 224.578L207.639 218.954L217.027 214.133L228.152 216.573C228.732 216.692 229.311 216.633 229.775 216.395C229.89 216.335 230.006 216.275 230.122 216.156C230.412 215.77 230.122 215.323 229.369 215.174L219.286 212.972L221.662 211.752C222.242 211.395 222.3 210.889 221.662 210.621ZM200.454 210.443L208.276 212.139L203.815 214.43L200.454 210.443ZM205.148 215.889L206.423 217.436L214.187 213.448L211.174 212.794L205.148 215.889Z" fill="white"/>
<path d="M178 201.636L241.884 202.103V209.906C241.884 214.069 238.758 218.224 232.524 221.398C220.047 227.73 199.828 227.73 187.351 221.398C181.117 218.232 178 214.069 178 209.906V201.636Z" fill="url(#paint12_linear_20219_207938)"/>
<path d="M232.526 213.62C220.05 219.924 199.831 219.924 187.354 213.62C174.877 207.315 174.886 197.071 187.354 190.766C199.822 184.462 220.05 184.462 232.526 190.766C245.003 197.071 245.003 207.3 232.526 213.62Z" fill="url(#paint13_linear_20219_207938)"/>
<path d="M209.316 216.12C224.536 216.12 236.874 209.635 236.874 201.636C236.874 193.637 224.536 187.152 209.316 187.152C194.096 187.152 181.758 193.637 181.758 201.636C181.758 209.635 194.096 216.12 209.316 216.12Z" fill="url(#paint14_linear_20219_207938)"/>
<path fill-rule="evenodd" clip-rule="evenodd" d="M221.662 196.614C221.083 196.316 220.156 196.376 219.576 196.673L216.447 198.28L213.434 197.625L215.404 196.614C215.984 196.316 216.099 195.84 215.52 195.542C214.941 195.245 214.013 195.245 213.434 195.542L210.595 197L198.194 194.322C197.615 194.203 197.035 194.263 196.572 194.501C196.166 194.709 196.05 195.066 196.224 195.334L201.555 201.583L198.774 203.012C198.194 203.309 198.078 203.785 198.658 204.083C199.237 204.38 200.164 204.38 200.744 204.083L202.772 203.041L204.047 204.589L200.976 206.166C200.396 206.464 200.28 206.94 200.86 207.237C201.439 207.535 202.366 207.535 202.946 207.237L205.322 206.017L209.783 211.165C210.073 211.552 210.942 211.701 211.696 211.552C211.869 211.522 211.985 211.463 212.101 211.403C212.507 211.195 212.681 210.868 212.449 210.57L207.639 204.946L217.027 200.125L228.152 202.565C228.732 202.684 229.311 202.625 229.775 202.387C229.89 202.327 230.006 202.268 230.122 202.149C230.412 201.762 230.122 201.315 229.369 201.167L219.286 198.964L221.662 197.744C222.242 197.387 222.3 196.881 221.662 196.614ZM200.454 196.435L208.276 198.131L203.815 200.423L200.454 196.435ZM205.148 201.881L206.423 203.428L214.187 199.441L211.174 198.786L205.148 201.881Z" fill="white"/>
<path d="M178 187.626L241.884 188.093V195.897C241.884 200.06 238.758 204.215 232.524 207.388C220.047 213.72 199.828 213.72 187.351 207.388C181.117 204.223 178 200.06 178 195.897V187.626Z" fill="url(#paint15_linear_20219_207938)"/>
<path d="M232.526 199.61C220.05 205.915 199.831 205.915 187.354 199.61C174.877 193.306 174.886 183.061 187.354 176.757C199.822 170.452 220.05 170.452 232.526 176.757C245.003 183.061 245.003 193.29 232.526 199.61Z" fill="url(#paint16_linear_20219_207938)"/>
<path d="M209.316 202.11C224.536 202.11 236.874 195.626 236.874 187.626C236.874 179.627 224.536 173.143 209.316 173.143C194.096 173.143 181.758 179.627 181.758 187.626C181.758 195.626 194.096 202.11 209.316 202.11Z" fill="url(#paint17_linear_20219_207938)"/>
<path fill-rule="evenodd" clip-rule="evenodd" d="M221.662 182.604C221.083 182.306 220.156 182.366 219.576 182.663L216.447 184.27L213.434 183.616L215.404 182.604C215.984 182.306 216.099 181.83 215.52 181.533C214.941 181.235 214.013 181.235 213.434 181.533L210.595 182.991L198.194 180.312C197.615 180.193 197.035 180.253 196.572 180.491C196.166 180.699 196.05 181.056 196.224 181.324L201.555 187.573L198.774 189.002C198.194 189.299 198.078 189.776 198.658 190.073C199.237 190.371 200.164 190.371 200.744 190.073L202.772 189.032L204.047 190.579L200.976 192.156C200.396 192.454 200.28 192.93 200.86 193.228C201.439 193.525 202.366 193.525 202.946 193.228L205.322 192.007L209.783 197.156C210.073 197.542 210.942 197.691 211.696 197.542C211.869 197.513 211.985 197.453 212.101 197.394C212.507 197.185 212.681 196.858 212.449 196.56L207.639 190.936L217.027 186.115L228.152 188.555C228.732 188.675 229.311 188.615 229.775 188.377C229.89 188.317 230.006 188.258 230.122 188.139C230.412 187.752 230.122 187.306 229.369 187.157L219.286 184.955L221.662 183.735C222.242 183.378 222.3 182.872 221.662 182.604ZM200.454 182.425L208.276 184.122L203.815 186.413L200.454 182.425ZM205.148 187.871L206.423 189.418L214.187 185.431L211.174 184.776L205.148 187.871Z" fill="white"/>
<path d="M178 173.616L241.884 174.083V181.887C241.884 186.05 238.758 190.205 232.524 193.379C220.047 199.71 199.828 199.71 187.351 193.379C181.117 190.213 178 186.05 178 181.887V173.616Z" fill="url(#paint18_linear_20219_207938)"/>
<path d="M232.526 185.6C220.05 191.905 199.831 191.905 187.354 185.6C174.877 179.296 174.886 169.051 187.354 162.747C199.822 156.442 220.05 156.442 232.526 162.747C245.003 169.051 245.003 179.28 232.526 185.6Z" fill="url(#paint19_linear_20219_207938)"/>
<path d="M209.316 188.1C224.536 188.1 236.874 181.616 236.874 173.617C236.874 165.617 224.536 159.133 209.316 159.133C194.096 159.133 181.758 165.617 181.758 173.617C181.758 181.616 194.096 188.1 209.316 188.1Z" fill="url(#paint20_linear_20219_207938)"/>
<path fill-rule="evenodd" clip-rule="evenodd" d="M221.662 168.594C221.083 168.296 220.156 168.356 219.576 168.654L216.447 170.261L213.434 169.606L215.404 168.594C215.984 168.296 216.099 167.82 215.52 167.523C214.941 167.225 214.013 167.225 213.434 167.523L210.595 168.981L198.194 166.303C197.615 166.184 197.035 166.243 196.572 166.481C196.166 166.69 196.05 167.047 196.224 167.314L201.555 173.564L198.774 174.992C198.194 175.29 198.078 175.766 198.658 176.063C199.237 176.361 200.164 176.361 200.744 176.063L202.772 175.022L204.047 176.569L200.976 178.146C200.396 178.444 200.28 178.92 200.86 179.218C201.439 179.515 202.366 179.515 202.946 179.218L205.322 177.998L209.783 183.146C210.073 183.533 210.942 183.681 211.696 183.533C211.869 183.503 211.985 183.443 212.101 183.384C212.507 183.176 212.681 182.848 212.449 182.551L207.639 176.926L217.027 172.106L228.152 174.546C228.732 174.665 229.311 174.605 229.775 174.367C229.89 174.308 230.006 174.248 230.122 174.129C230.412 173.742 230.122 173.296 229.369 173.147L219.286 170.945L221.662 169.725C222.242 169.368 222.3 168.862 221.662 168.594ZM200.454 168.416L208.276 170.112L203.815 172.403L200.454 168.416ZM205.148 173.861L206.423 175.409L214.187 171.421L211.174 170.767L205.148 173.861Z" fill="white"/>
<path d="M178 159.607L241.884 160.074V167.878C241.884 172.041 238.758 176.196 232.524 179.37C220.047 185.701 199.828 185.701 187.351 179.37C181.117 176.204 178 172.041 178 167.878V159.607Z" fill="url(#paint21_linear_20219_207938)"/>
<path d="M232.526 171.592C220.05 177.896 199.831 177.896 187.354 171.592C174.877 165.287 174.886 155.042 187.354 148.738C199.822 142.434 220.05 142.434 232.526 148.738C245.003 155.042 245.003 165.271 232.526 171.592Z" fill="url(#paint22_linear_20219_207938)"/>
<path d="M209.316 174.092C224.536 174.092 236.874 167.607 236.874 159.608C236.874 151.609 224.536 145.124 209.316 145.124C194.096 145.124 181.758 151.609 181.758 159.608C181.758 167.607 194.096 174.092 209.316 174.092Z" fill="url(#paint23_linear_20219_207938)"/>
<path fill-rule="evenodd" clip-rule="evenodd" d="M221.662 154.585C221.083 154.288 220.156 154.347 219.576 154.645L216.447 156.252L213.434 155.597L215.404 154.585C215.984 154.288 216.099 153.812 215.52 153.514C214.941 153.216 214.013 153.216 213.434 153.514L210.595 154.972L198.194 152.294C197.615 152.175 197.035 152.234 196.572 152.472C196.166 152.681 196.05 153.038 196.224 153.306L201.555 159.555L198.774 160.983C198.194 161.281 198.078 161.757 198.658 162.055C199.237 162.352 200.164 162.352 200.744 162.055L202.772 161.013L204.047 162.56L200.976 164.138C200.396 164.435 200.28 164.911 200.86 165.209C201.439 165.507 202.366 165.507 202.946 165.209L205.322 163.989L209.783 169.137C210.073 169.524 210.942 169.673 211.696 169.524C211.869 169.494 211.985 169.435 212.101 169.375C212.507 169.167 212.681 168.839 212.449 168.542L207.639 162.918L217.027 158.097L228.152 160.537C228.732 160.656 229.311 160.596 229.775 160.358C229.89 160.299 230.006 160.239 230.122 160.12C230.412 159.733 230.122 159.287 229.369 159.138L219.286 156.936L221.662 155.716C222.242 155.359 222.3 154.853 221.662 154.585ZM200.454 154.407L208.276 156.103L203.815 158.394L200.454 154.407ZM205.148 159.853L206.423 161.4L214.187 157.412L211.174 156.758L205.148 159.853Z" fill="white"/>
<path d="M178 145.598L241.884 146.065V153.868C241.884 158.031 238.758 162.186 232.524 165.36C220.047 171.692 199.828 171.692 187.351 165.36C181.117 162.194 178 158.031 178 153.868V145.598Z" fill="url(#paint24_linear_20219_207938)"/>
<path d="M232.526 157.582C220.05 163.886 199.831 163.886 187.354 157.582C174.877 151.277 174.886 141.033 187.354 134.728C199.822 128.424 220.05 128.424 232.526 134.728C245.003 141.033 245.003 151.262 232.526 157.582Z" fill="url(#paint25_linear_20219_207938)"/>
<path d="M209.316 160.082C224.536 160.082 236.874 153.597 236.874 145.598C236.874 137.599 224.536 131.114 209.316 131.114C194.096 131.114 181.758 137.599 181.758 145.598C181.758 153.597 194.096 160.082 209.316 160.082Z" fill="url(#paint26_linear_20219_207938)"/>
<path d="M92.2072 59.614L96.9355 56.9458C97.611 56.6123 98.2865 56.3622 99.0464 56.1954C100.313 55.7785 101.833 56.0287 103.521 56.9458L161.95 90.2977C166.341 92.7991 169.887 99.5529 169.887 105.306L169.718 151.749C169.718 155.251 168.367 157.502 166.425 158.336L161.022 161.087L156.715 154.834L103.268 124.317C98.8775 121.815 95.3312 115.061 95.3312 109.308L95.5001 64.5334L92.2072 59.614Z" fill="url(#paint27_linear_20219_207938)"/>
<path opacity="0.8" fill-rule="evenodd" clip-rule="evenodd" d="M89.161 65.5515C89.1814 59.7373 92.7731 57.077 97.1833 59.6097L155.746 93.2357C160.156 95.7684 163.715 102.535 163.695 108.349L163.534 155.139C163.514 160.953 159.923 163.613 155.513 161.081L96.9501 127.454C92.5398 124.922 88.9804 118.156 89.0001 112.342L89.161 65.5515Z" fill="#52FCFF"/>
<path d="M110.843 96.2714L110.843 99.1195L103 94.5915L103 91.7433L110.843 96.2714ZM104.936 89.1179L108.152 90.9743L108.152 105.642C108.152 106.137 108.217 106.555 108.347 106.894C108.483 107.231 108.661 107.51 108.88 107.731C109.099 107.952 109.342 108.14 109.608 108.294C109.81 108.41 109.993 108.499 110.159 108.561C110.331 108.626 110.461 108.671 110.55 108.695L111.092 111.887C110.92 111.855 110.674 111.788 110.354 111.685C110.04 111.585 109.656 111.41 109.2 111.16C108.394 110.723 107.669 110.165 107.024 109.487C106.378 108.802 105.866 108.025 105.487 107.156C105.114 106.289 104.93 105.369 104.936 104.396L104.936 89.1179Z" fill="url(#paint28_linear_20219_207938)"/>
<path d="M119.425 117.156C118.057 116.366 116.876 115.358 115.881 114.133C114.892 112.904 114.131 111.536 113.598 110.028C113.066 108.513 112.799 106.939 112.799 105.304C112.799 103.697 113.066 102.441 113.598 101.534C114.137 100.625 114.889 100.11 115.855 99.9888C116.82 99.8611 117.954 100.173 119.256 100.925C120.097 101.411 120.891 102.025 121.637 102.768C122.389 103.507 123.052 104.365 123.626 105.34C124.207 106.32 124.663 107.403 124.994 108.592C125.326 109.773 125.492 111.049 125.492 112.419L125.492 113.548L114.309 107.092L114.309 104.61L122.409 109.287C122.404 108.578 122.27 107.874 122.01 107.174C121.749 106.467 121.385 105.82 120.917 105.231C120.455 104.646 119.917 104.175 119.301 103.82C118.643 103.44 118.066 103.29 117.569 103.369C117.071 103.441 116.683 103.692 116.405 104.121C116.133 104.547 115.994 105.108 115.988 105.803L115.988 107.969C115.988 108.878 116.133 109.742 116.423 110.56C116.713 111.372 117.119 112.101 117.64 112.748C118.161 113.388 118.771 113.909 119.469 114.313C119.937 114.583 120.361 114.753 120.74 114.822C121.119 114.885 121.447 114.848 121.726 114.71C122.004 114.572 122.214 114.324 122.356 113.965L125.358 116.085C125.169 116.885 124.808 117.469 124.275 117.84C123.748 118.207 123.073 118.339 122.25 118.237C121.426 118.128 120.485 117.768 119.425 117.156Z" fill="url(#paint29_linear_20219_207938)"/>
<path d="M138.994 116.655L136.063 115.328C135.98 114.942 135.835 114.539 135.628 114.121C135.427 113.706 135.154 113.308 134.811 112.927C134.468 112.546 134.047 112.211 133.55 111.924C132.881 111.538 132.318 111.379 131.862 111.448C131.412 111.521 131.19 111.823 131.196 112.356C131.19 112.806 131.335 113.26 131.631 113.716C131.933 114.175 132.431 114.696 133.123 115.279L135.45 117.192C136.741 118.256 137.701 119.315 138.328 120.369C138.962 121.427 139.282 122.517 139.288 123.639C139.282 124.619 139.03 125.342 138.533 125.807C138.041 126.269 137.357 126.458 136.481 126.372C135.604 126.287 134.598 125.916 133.461 125.259C131.791 124.295 130.447 123.119 129.428 121.731C128.41 120.336 127.803 118.863 127.608 117.313L130.743 118.777C130.885 119.564 131.187 120.271 131.649 120.897C132.111 121.523 132.712 122.05 133.452 122.477C134.216 122.918 134.829 123.092 135.291 123C135.758 122.91 135.992 122.601 135.992 122.072C135.992 121.625 135.841 121.168 135.539 120.702C135.243 120.239 134.781 119.749 134.154 119.231L131.827 117.328C130.518 116.26 129.55 115.176 128.922 114.074C128.295 112.966 127.984 111.844 127.99 110.708C127.984 109.741 128.212 109.039 128.673 108.6C129.141 108.158 129.79 107.983 130.619 108.075C131.454 108.164 132.416 108.523 133.505 109.152C135.104 110.075 136.362 111.192 137.28 112.501C138.204 113.814 138.775 115.199 138.994 116.655Z" fill="url(#paint30_linear_20219_207938)"/>
<path d="M148.751 118.158L148.751 121.006L140.908 116.478L140.908 113.63L148.751 118.158ZM142.845 111.004L146.06 112.861L146.06 127.529C146.06 128.024 146.125 128.441 146.255 128.781C146.392 129.117 146.569 129.396 146.788 129.617C147.007 129.839 147.25 130.027 147.517 130.18C147.718 130.297 147.902 130.386 148.067 130.447C148.239 130.513 148.369 130.557 148.458 130.582L149 133.773C148.828 133.742 148.583 133.674 148.263 133.571C147.949 133.471 147.564 133.297 147.108 133.047C146.303 132.609 145.577 132.051 144.932 131.374C144.287 130.689 143.774 129.912 143.395 129.042C143.022 128.176 142.839 127.256 142.845 126.283L142.845 111.004Z" fill="url(#paint31_linear_20219_207938)"/>
<defs>
<linearGradient id="paint0_linear_20219_207938" x1="32.635" y1="119.257" x2="74.9142" y2="119.257" gradientUnits="userSpaceOnUse">
<stop stop-color="#17D1AA"/>
<stop offset="0.15" stop-color="#1ACBAF"/>
<stop offset="0.37" stop-color="#21B8BC"/>
<stop offset="0.62" stop-color="#2E9BD3"/>
<stop offset="0.89" stop-color="#3F71F1"/>
<stop offset="1" stop-color="#475FFF"/>
</linearGradient>
<linearGradient id="paint1_linear_20219_207938" x1="72.0447" y1="154.246" x2="144.073" y2="56.8778" gradientUnits="userSpaceOnUse">
<stop stop-color="#244ABF"/>
<stop offset="1" stop-color="#4760FF"/>
</linearGradient>
<linearGradient id="paint2_linear_20219_207938" x1="19.3547" y1="4.01195e-06" x2="-10.6607" y2="26.4343" gradientUnits="userSpaceOnUse">
<stop stop-color="#17D1AA"/>
<stop offset="0.15" stop-color="#1ACBAF"/>
<stop offset="0.37" stop-color="#21B8BC"/>
<stop offset="0.62" stop-color="#2E9BD3"/>
<stop offset="0.89" stop-color="#3F71F1"/>
<stop offset="1" stop-color="#475FFF"/>
</linearGradient>
<linearGradient id="paint3_linear_20219_207938" x1="272.468" y1="111.889" x2="272.468" y2="227.121" gradientUnits="userSpaceOnUse">
<stop stop-color="#1D45BA"/>
<stop offset="0.4204" stop-color="#1D47BA"/>
<stop offset="0.5718" stop-color="#1D4EB9"/>
<stop offset="0.6797" stop-color="#1C59B8"/>
<stop offset="0.767" stop-color="#1B6AB6"/>
<stop offset="0.8417" stop-color="#1A80B3"/>
<stop offset="0.9079" stop-color="#199CB0"/>
<stop offset="0.9663" stop-color="#18BBAD"/>
<stop offset="1" stop-color="#17D1AA"/>
</linearGradient>
<linearGradient id="paint4_linear_20219_207938" x1="126.133" y1="235.519" x2="126.133" y2="154.695" gradientUnits="userSpaceOnUse">
<stop stop-color="#1D45BA"/>
<stop offset="0.4204" stop-color="#1D47BA"/>
<stop offset="0.5718" stop-color="#1D4EB9"/>
<stop offset="0.6797" stop-color="#1C59B8"/>
<stop offset="0.767" stop-color="#1B6AB6"/>
<stop offset="0.8417" stop-color="#1A80B3"/>
<stop offset="0.9079" stop-color="#199CB0"/>
<stop offset="0.9663" stop-color="#18BBAD"/>
<stop offset="1" stop-color="#17D1AA"/>
</linearGradient>
<linearGradient id="paint5_linear_20219_207938" x1="126.133" y1="235.519" x2="126.133" y2="154.695" gradientUnits="userSpaceOnUse">
<stop stop-color="#1D45BA"/>
<stop offset="0.4204" stop-color="#1D47BA"/>
<stop offset="0.5718" stop-color="#1D4EB9"/>
<stop offset="0.6797" stop-color="#1C59B8"/>
<stop offset="0.767" stop-color="#1B6AB6"/>
<stop offset="0.8417" stop-color="#1A80B3"/>
<stop offset="0.9079" stop-color="#199CB0"/>
<stop offset="0.9663" stop-color="#18BBAD"/>
<stop offset="1" stop-color="#17D1AA"/>
</linearGradient>
<linearGradient id="paint6_linear_20219_207938" x1="30.1191" y1="208.578" x2="262.175" y2="208.578" gradientUnits="userSpaceOnUse">
<stop stop-color="#17D1AA"/>
<stop offset="0.15" stop-color="#1ACBAF"/>
<stop offset="0.37" stop-color="#21B8BC"/>
<stop offset="0.62" stop-color="#2E9BD3"/>
<stop offset="0.89" stop-color="#3F71F1"/>
<stop offset="1" stop-color="#475FFF"/>
</linearGradient>
<linearGradient id="paint7_linear_20219_207938" x1="30.1191" y1="208.578" x2="262.175" y2="208.578" gradientUnits="userSpaceOnUse">
<stop stop-color="#17D1AA"/>
<stop offset="0.15" stop-color="#1ACBAF"/>
<stop offset="0.37" stop-color="#21B8BC"/>
<stop offset="0.62" stop-color="#2E9BD3"/>
<stop offset="0.89" stop-color="#3F71F1"/>
<stop offset="1" stop-color="#475FFF"/>
</linearGradient>
<linearGradient id="paint8_linear_20219_207938" x1="195.715" y1="104.707" x2="195.715" y2="117.511" gradientUnits="userSpaceOnUse">
<stop stop-color="#1D45BA"/>
<stop offset="0.4204" stop-color="#1D47BA"/>
<stop offset="0.5718" stop-color="#1D4EB9"/>
<stop offset="0.6797" stop-color="#1C59B8"/>
<stop offset="0.767" stop-color="#1B6AB6"/>
<stop offset="0.8417" stop-color="#1A80B3"/>
<stop offset="0.9079" stop-color="#199CB0"/>
<stop offset="0.9663" stop-color="#18BBAD"/>
<stop offset="1" stop-color="#17D1AA"/>
</linearGradient>
<linearGradient id="paint9_linear_20219_207938" x1="216.946" y1="215.645" x2="209.502" y2="242.9" gradientUnits="userSpaceOnUse">
<stop stop-color="#17D1AA"/>
<stop offset="0.15" stop-color="#1ACBAF"/>
<stop offset="0.37" stop-color="#21B8BC"/>
<stop offset="0.62" stop-color="#2E9BD3"/>
<stop offset="0.89" stop-color="#3F71F1"/>
<stop offset="1" stop-color="#475FFF"/>
</linearGradient>
<linearGradient id="paint10_linear_20219_207938" x1="178" y1="232.357" x2="241.884" y2="232.357" gradientUnits="userSpaceOnUse">
<stop stop-color="#17D1AA"/>
<stop offset="0.15" stop-color="#1ACBAF"/>
<stop offset="0.37" stop-color="#21B8BC"/>
<stop offset="0.62" stop-color="#2E9BD3"/>
<stop offset="0.89" stop-color="#3F71F1"/>
<stop offset="1" stop-color="#475FFF"/>
</linearGradient>
<linearGradient id="paint11_linear_20219_207938" x1="239.344" y1="247.669" x2="261.883" y2="173.671" gradientUnits="userSpaceOnUse">
<stop stop-color="#244ABF"/>
<stop offset="1" stop-color="#4760FF"/>
</linearGradient>
<linearGradient id="paint12_linear_20219_207938" x1="216.946" y1="201.636" x2="209.502" y2="228.892" gradientUnits="userSpaceOnUse">
<stop stop-color="#17D1AA"/>
<stop offset="0.15" stop-color="#1ACBAF"/>
<stop offset="0.37" stop-color="#21B8BC"/>
<stop offset="0.62" stop-color="#2E9BD3"/>
<stop offset="0.89" stop-color="#3F71F1"/>
<stop offset="1" stop-color="#475FFF"/>
</linearGradient>
<linearGradient id="paint13_linear_20219_207938" x1="178" y1="218.348" x2="241.884" y2="218.348" gradientUnits="userSpaceOnUse">
<stop stop-color="#17D1AA"/>
<stop offset="0.15" stop-color="#1ACBAF"/>
<stop offset="0.37" stop-color="#21B8BC"/>
<stop offset="0.62" stop-color="#2E9BD3"/>
<stop offset="0.89" stop-color="#3F71F1"/>
<stop offset="1" stop-color="#475FFF"/>
</linearGradient>
<linearGradient id="paint14_linear_20219_207938" x1="239.344" y1="233.66" x2="261.883" y2="159.663" gradientUnits="userSpaceOnUse">
<stop stop-color="#244ABF"/>
<stop offset="1" stop-color="#4760FF"/>
</linearGradient>
<linearGradient id="paint15_linear_20219_207938" x1="216.946" y1="187.626" x2="209.502" y2="214.882" gradientUnits="userSpaceOnUse">
<stop stop-color="#17D1AA"/>
<stop offset="0.15" stop-color="#1ACBAF"/>
<stop offset="0.37" stop-color="#21B8BC"/>
<stop offset="0.62" stop-color="#2E9BD3"/>
<stop offset="0.89" stop-color="#3F71F1"/>
<stop offset="1" stop-color="#475FFF"/>
</linearGradient>
<linearGradient id="paint16_linear_20219_207938" x1="178" y1="204.339" x2="241.884" y2="204.339" gradientUnits="userSpaceOnUse">
<stop stop-color="#17D1AA"/>
<stop offset="0.15" stop-color="#1ACBAF"/>
<stop offset="0.37" stop-color="#21B8BC"/>
<stop offset="0.62" stop-color="#2E9BD3"/>
<stop offset="0.89" stop-color="#3F71F1"/>
<stop offset="1" stop-color="#475FFF"/>
</linearGradient>
<linearGradient id="paint17_linear_20219_207938" x1="239.344" y1="219.651" x2="261.883" y2="145.653" gradientUnits="userSpaceOnUse">
<stop stop-color="#244ABF"/>
<stop offset="1" stop-color="#4760FF"/>
</linearGradient>
<linearGradient id="paint18_linear_20219_207938" x1="216.946" y1="173.616" x2="209.502" y2="200.872" gradientUnits="userSpaceOnUse">
<stop stop-color="#17D1AA"/>
<stop offset="0.15" stop-color="#1ACBAF"/>
<stop offset="0.37" stop-color="#21B8BC"/>
<stop offset="0.62" stop-color="#2E9BD3"/>
<stop offset="0.89" stop-color="#3F71F1"/>
<stop offset="1" stop-color="#475FFF"/>
</linearGradient>
<linearGradient id="paint19_linear_20219_207938" x1="178" y1="190.329" x2="241.884" y2="190.329" gradientUnits="userSpaceOnUse">
<stop stop-color="#17D1AA"/>
<stop offset="0.15" stop-color="#1ACBAF"/>
<stop offset="0.37" stop-color="#21B8BC"/>
<stop offset="0.62" stop-color="#2E9BD3"/>
<stop offset="0.89" stop-color="#3F71F1"/>
<stop offset="1" stop-color="#475FFF"/>
</linearGradient>
<linearGradient id="paint20_linear_20219_207938" x1="239.344" y1="205.641" x2="261.883" y2="131.643" gradientUnits="userSpaceOnUse">
<stop stop-color="#244ABF"/>
<stop offset="1" stop-color="#4760FF"/>
</linearGradient>
<linearGradient id="paint21_linear_20219_207938" x1="216.946" y1="159.607" x2="209.502" y2="186.863" gradientUnits="userSpaceOnUse">
<stop stop-color="#17D1AA"/>
<stop offset="0.15" stop-color="#1ACBAF"/>
<stop offset="0.37" stop-color="#21B8BC"/>
<stop offset="0.62" stop-color="#2E9BD3"/>
<stop offset="0.89" stop-color="#3F71F1"/>
<stop offset="1" stop-color="#475FFF"/>
</linearGradient>
<linearGradient id="paint22_linear_20219_207938" x1="178" y1="176.32" x2="241.884" y2="176.32" gradientUnits="userSpaceOnUse">
<stop stop-color="#17D1AA"/>
<stop offset="0.15" stop-color="#1ACBAF"/>
<stop offset="0.37" stop-color="#21B8BC"/>
<stop offset="0.62" stop-color="#2E9BD3"/>
<stop offset="0.89" stop-color="#3F71F1"/>
<stop offset="1" stop-color="#475FFF"/>
</linearGradient>
<linearGradient id="paint23_linear_20219_207938" x1="239.344" y1="191.632" x2="261.883" y2="117.634" gradientUnits="userSpaceOnUse">
<stop stop-color="#244ABF"/>
<stop offset="1" stop-color="#4760FF"/>
</linearGradient>
<linearGradient id="paint24_linear_20219_207938" x1="216.946" y1="145.598" x2="209.502" y2="172.853" gradientUnits="userSpaceOnUse">
<stop stop-color="#17D1AA"/>
<stop offset="0.15" stop-color="#1ACBAF"/>
<stop offset="0.37" stop-color="#21B8BC"/>
<stop offset="0.62" stop-color="#2E9BD3"/>
<stop offset="0.89" stop-color="#3F71F1"/>
<stop offset="1" stop-color="#475FFF"/>
</linearGradient>
<linearGradient id="paint25_linear_20219_207938" x1="178" y1="162.31" x2="241.884" y2="162.31" gradientUnits="userSpaceOnUse">
<stop stop-color="#17D1AA"/>
<stop offset="0.15" stop-color="#1ACBAF"/>
<stop offset="0.37" stop-color="#21B8BC"/>
<stop offset="0.62" stop-color="#2E9BD3"/>
<stop offset="0.89" stop-color="#3F71F1"/>
<stop offset="1" stop-color="#475FFF"/>
</linearGradient>
<linearGradient id="paint26_linear_20219_207938" x1="215.359" y1="131.114" x2="203.999" y2="161.479" gradientUnits="userSpaceOnUse">
<stop stop-color="#17D1AA"/>
<stop offset="0.15" stop-color="#1ACBAF"/>
<stop offset="0.37" stop-color="#21B8BC"/>
<stop offset="0.62" stop-color="#2E9BD3"/>
<stop offset="0.89" stop-color="#3F71F1"/>
<stop offset="1" stop-color="#475FFF"/>
</linearGradient>
<linearGradient id="paint27_linear_20219_207938" x1="92.2072" y1="161.088" x2="169.887" y2="161.088" gradientUnits="userSpaceOnUse">
<stop stop-color="#17D1AA"/>
<stop offset="0.15" stop-color="#1ACBAF"/>
<stop offset="0.37" stop-color="#21B8BC"/>
<stop offset="0.62" stop-color="#2E9BD3"/>
<stop offset="0.89" stop-color="#3F71F1"/>
<stop offset="1" stop-color="#475FFF"/>
</linearGradient>
<linearGradient id="paint28_linear_20219_207938" x1="151.968" y1="138.375" x2="161.584" y2="121.72" gradientUnits="userSpaceOnUse">
<stop stop-color="#1D45BA"/>
<stop offset="0.4204" stop-color="#1D47BA"/>
<stop offset="0.5718" stop-color="#1D4EB9"/>
<stop offset="0.6797" stop-color="#1C59B8"/>
<stop offset="0.767" stop-color="#1B6AB6"/>
<stop offset="0.8417" stop-color="#1A80B3"/>
<stop offset="0.9079" stop-color="#199CB0"/>
<stop offset="0.9663" stop-color="#18BBAD"/>
<stop offset="1" stop-color="#17D1AA"/>
</linearGradient>
<linearGradient id="paint29_linear_20219_207938" x1="151.968" y1="138.375" x2="161.584" y2="121.72" gradientUnits="userSpaceOnUse">
<stop stop-color="#1D45BA"/>
<stop offset="0.4204" stop-color="#1D47BA"/>
<stop offset="0.5718" stop-color="#1D4EB9"/>
<stop offset="0.6797" stop-color="#1C59B8"/>
<stop offset="0.767" stop-color="#1B6AB6"/>
<stop offset="0.8417" stop-color="#1A80B3"/>
<stop offset="0.9079" stop-color="#199CB0"/>
<stop offset="0.9663" stop-color="#18BBAD"/>
<stop offset="1" stop-color="#17D1AA"/>
</linearGradient>
<linearGradient id="paint30_linear_20219_207938" x1="151.968" y1="138.375" x2="161.584" y2="121.72" gradientUnits="userSpaceOnUse">
<stop stop-color="#1D45BA"/>
<stop offset="0.4204" stop-color="#1D47BA"/>
<stop offset="0.5718" stop-color="#1D4EB9"/>
<stop offset="0.6797" stop-color="#1C59B8"/>
<stop offset="0.767" stop-color="#1B6AB6"/>
<stop offset="0.8417" stop-color="#1A80B3"/>
<stop offset="0.9079" stop-color="#199CB0"/>
<stop offset="0.9663" stop-color="#18BBAD"/>
<stop offset="1" stop-color="#17D1AA"/>
</linearGradient>
<linearGradient id="paint31_linear_20219_207938" x1="151.968" y1="138.375" x2="161.584" y2="121.72" gradientUnits="userSpaceOnUse">
<stop stop-color="#1D45BA"/>
<stop offset="0.4204" stop-color="#1D47BA"/>
<stop offset="0.5718" stop-color="#1D4EB9"/>
<stop offset="0.6797" stop-color="#1C59B8"/>
<stop offset="0.767" stop-color="#1B6AB6"/>
<stop offset="0.8417" stop-color="#1A80B3"/>
<stop offset="0.9079" stop-color="#199CB0"/>
<stop offset="0.9663" stop-color="#18BBAD"/>
<stop offset="1" stop-color="#17D1AA"/>
</linearGradient>
</defs>
</svg>
